<?xml version="1.0" encoding="UTF-8"?>
<svg id="Layer_1" data-name="Layer 1" xmlns="http://www.w3.org/2000/svg" viewBox="0 0 70.34 135.86">
  <defs>
    <style>
      .cls-1 {
        fill: #fff;
        stroke: #231f20;
        stroke-miterlimit: 10;
      }
    </style>
  </defs>
  <path class="cls-1" d="m70.31.62c-5.33-.32-13.92-.18-23.77,3.02-2.97.96-13.68,4.69-24.23,14.37C7.97,31.17,3.51,46.58,2.67,49.65c-.83,3.05-4.68,17.96.46,36.23,1.55,5.51,6.35,19.98,19.72,32.33,10.11,9.34,20.15,12.87,25.45,14.68,2.46.83,11.08,3.76,12.15,1.83,1.07-1.91-6.56-6.3-13.76-15.13-9.41-11.56-12.4-23.76-13.99-30.27-1.36-5.56-3.77-15.84-2.06-29.12,2.03-15.79,8.72-26.65,12.15-32.1C51.59,14.13,62.5,5.65,69.62,1.04"/>
</svg>