<?xml version="1.0" encoding="UTF-8"?>
<svg id="Layer_2" data-name="Layer 2" xmlns="http://www.w3.org/2000/svg" viewBox="0 0 200.54 169.23">
  <defs>
    <style>
      .cls-1 {
        stroke-dasharray: 0 0 3.93 3.93;
      }

      .cls-1, .cls-2, .cls-3, .cls-4 {
        fill: none;
        stroke: #000;
        stroke-miterlimit: 10;
      }

      .cls-5 {
        letter-spacing: -.04em;
      }

      .cls-5, .cls-6, .cls-7, .cls-8 {
        font-size: 12px;
      }

      .cls-5, .cls-7 {
        font-family: Arial-BoldMT, Arial;
        font-weight: 700;
      }

      .cls-6 {
        font-family: MyriadPro-Regular, 'Myriad Pro';
      }

      .cls-3 {
        stroke-width: .75px;
      }

      .cls-8, .cls-9 {
        font-family: ArialMT, Arial;
      }

      .cls-9 {
        font-size: 11px;
      }

      .cls-4 {
        stroke-width: 2px;
      }
    </style>
  </defs>
  <line class="cls-4" x1="53.79" y1="160.49" x2="173.71" y2="95.37"/>
  <line class="cls-4" x1="65.48" y1="10.3" x2="173.71" y2="95.37"/>
  <g>
    <line class="cls-2" x1="8.62" y1="92.85" x2="10.62" y2="92.88"/>
    <line class="cls-1" x1="14.54" y1="92.94" x2="169.75" y2="95.31"/>
    <line class="cls-2" x1="171.71" y1="95.34" x2="173.71" y2="95.37"/>
  </g>
  <path class="cls-4" d="m94.57,33.81c-5.65,11.86-13.64,32.62-14.33,59.5-.52,20.11,3.42,37.42,6.91,48.52"/>
  <path class="cls-4" d="m94.57,33.95c-10.33,4.93-19.47,11.23-24.96,15.68-11.45,9.28-18.32,18.42-22.01,23.39-5.23,7.05-9.56,15.28-12.15,20.24"/>
  <path class="cls-4" d="m35.16,92.33c2.29,4.21,6.66,11.04,11.29,16.87,1.74,2.19,7.7,9.5,17.27,17.27,5.22,4.24,14.38,10.84,23.75,15.52"/>
  <path class="cls-2" d="m126.99,94.28c.03-2.94.4-7.72,1.83-12.27,1.93-6.13,6.06-11.86,8.21-14.5"/>
  <path class="cls-2" d="m135.71,95.09c-.26,2-.66,5.87.29,9.69.9,3.61,2.79,6.73,3.9,8.35"/>
  <path class="cls-2" d="m155.94,82.3c-1.26,1.73-3.45,5.23-4.24,10.2-.9,5.64.99,11.11,1.76,13.14"/>
  <line class="cls-3" x1="136.99" y1="67.36" x2="134.22" y2="68.41"/>
  <line class="cls-3" x1="137.21" y1="67.78" x2="137.23" y2="70.26"/>
  <line class="cls-3" x1="155.81" y1="81.98" x2="153.55" y2="83.29"/>
  <line class="cls-3" x1="156.06" y1="82.3" x2="156.23" y2="84.65"/>
  <line class="cls-3" x1="153.63" y1="105.3" x2="154.3" y2="103.04"/>
  <line class="cls-3" x1="153.46" y1="105.64" x2="151.13" y2="104.13"/>
  <line class="cls-3" x1="140.1" y1="112.95" x2="140.4" y2="110.24"/>
  <line class="cls-3" x1="139.89" y1="113.18" x2="136.73" y2="111.9"/>
  <text class="cls-7" transform="translate(175.32 99.61)"><tspan x="0" y="0">O</tspan></text>
  <text class="cls-7" transform="translate(86.58 151.31)"><tspan x="0" y="0">C</tspan></text>
  <text class="cls-5" transform="translate(95.9 32.35)"><tspan x="0" y="0">A</tspan></text>
  <text class="cls-7" transform="translate(26.9 92.56)"><tspan x="0" y="0">B</tspan></text>
  <text class="cls-9" transform="translate(83.3 84.51)"><tspan x="0" y="0">b</tspan></text>
  <text class="cls-9" transform="translate(47.99 61.68)"><tspan x="0" y="0">c</tspan></text>
  <text class="cls-9" transform="translate(46.26 125.04)"><tspan x="0" y="0">a</tspan></text>
  <text/>
  <text class="cls-9" transform="translate(131.74 83.99)"><tspan x="0" y="0">c</tspan></text>
  <text class="cls-9" transform="translate(137.22 106.18)"><tspan x="0" y="0">a</tspan></text>
  <text class="cls-9" transform="translate(154.65 94.51)"><tspan x="0" y="0">b</tspan></text>
  <text class="cls-8" transform="translate(0 98.21)"><tspan x="0" y="0">β</tspan></text>
  <text class="cls-6" transform="translate(57.73 10.04)"><tspan x="0" y="0">α</tspan></text>
  <text class="cls-6" transform="translate(46.66 166.23)"><tspan x="0" y="0">γ</tspan></text>
</svg>