<?xml version="1.0" encoding="utf-8"?>
<!-- Generator: Adobe Illustrator 27.3.1, SVG Export Plug-In . SVG Version: 6.00 Build 0)  -->
<svg version="1.1" xmlns="http://www.w3.org/2000/svg" xmlns:xlink="http://www.w3.org/1999/xlink" x="0px" y="0px"
	 viewBox="0 0 294.3 302.1" style="enable-background:new 0 0 294.3 302.1;" xml:space="preserve">
<style type="text/css">
	.st0{stroke:#000000;stroke-miterlimit:10;}
	.st1{fill:#FFFFFF;}
</style>
<g id="Layer_2">
	<circle class="st0" cx="147.1" cy="168.1" r="197.7"/>
</g>
<g id="Layer_1">
	<path class="st1" d="M0,254.1C49.1,169.1,97.7,84.9,146.8,0c1.4,1.9,2.3,2.9,3,4c11,19,22,37.9,32.8,56.9c0.9,1.5,1.5,4.1,0.8,5.4
		c-4.6,8.5-9.5,16.8-14.7,25.8c-1.2-1.4-2.2-2.3-2.8-3.4c-5.4-9.1-10.6-18.2-15.9-27.3c-2.4-4.1-3.3-4.1-5.7,0
		c-15.1,26.2-30,52.5-45.2,78.7c-15.7,27.3-31.6,54.4-47.4,81.7c-1.8,3.2-1.3,4.4,2.3,4.4c22.5,0,45,0.1,67.5-0.2
		c1.8,0,4.1-2.1,5.1-3.9c7.3-12.1,14.3-24.4,21.3-36.7c15.5-26.8,30.9-53.6,46.3-80.3c2.1-3.6,4.2-7.1,7-11.9
		c31.2,54,61.9,107,93.1,160.9h-120c2.1-3.6,3.7-6.7,5.5-9.7c2.9-5,5.7-10.1,8.9-15c1-1.4,3.2-2.8,4.8-2.8
		c15.3-0.3,30.5-0.2,45.8-0.3c1.4,0,2.9-0.5,4.3-0.8c-0.4-1.4-0.5-3-1.2-4.2c-6.8-12.1-13.6-24.1-20.6-36.1
		c-6-10.4-12.2-20.7-18.5-30.9c-1.5-2.4-3.8-2.3-5.1,0.1c-6,10.9-12.1,21.8-18.3,32.6c-8.9,15.5-17.8,31-26.8,46.5
		c-3.6,6.2-7.1,12.6-11,18.6c-0.9,1.4-3.6,2.4-5.6,2.4c-23.2,0.2-46.4,0.1-69.6,0.1c-20.4,0-40.8,0-61.2,0
		C4.3,254.4,2.8,254.2,0,254.1L0,254.1z"/>
	<path class="st1" d="M170.6,268.8c-4.5,6.9-9.1,13.8-13.6,20.7c-1.9,2.9-3.9,5.7-5.8,8.6c-3.1,4.5-6,4.4-9.1-0.3
		c-5.9-9-11.9-18.1-17.8-27.1c-0.6-0.9-1.3-1.7-2.6-3.6c-0.3,2.7-0.7,4.3-0.7,6c-0.1,8,0,16.1,0,24.1c0,1.8,0.3,4.1-2.4,3.7
		c-0.9-0.1-2-2.3-2.1-3.6c-0.2-9.7-0.2-19.4,0-29.1c0-1.7,1-4.6,2-4.9c2.6-0.7,5.6-1,7.6,2.3c5.5,8.6,11.3,17.1,17,25.6
		c3.4,5.1,3.6,5.1,7.1-0.1c5.7-8.5,11.5-17,17-25.6c1.9-3,4.8-2.8,7.3-2.2c1.1,0.3,2.1,3,2.1,4.6c0.2,9.9,0.1,19.7-0.1,29.5
		c0,1.2-1.4,2.5-2.1,3.7c-0.8-1.2-2.2-2.4-2.2-3.6c-0.2-8.2-0.1-16.4-0.1-24.6c0-1.3-0.3-2.6-0.4-3.9L170.6,268.8L170.6,268.8z"/>
	<path class="st1" d="M36.1,282.4c0-5,0.1-10,0-15c-0.1-3.2,1.2-4.5,4.4-4.5c9.1,0.1,18.3,0,27.5,0.1c11,0.2,14.7,4.1,14.7,15
		c0,3.6,0.1,7.2,0,10.8c-0.2,7.3-3.5,11.5-10.7,11.9c-10.9,0.6-21.9,0.4-32.8,0.5c-2.2,0-3.1-1.2-3-3.5
		C36.2,292.7,36.1,287.6,36.1,282.4L36.1,282.4L36.1,282.4z M57.7,267.3L57.7,267.3c-4.3,0-8.6,0.1-12.9,0c-3-0.1-4.2,1.2-3.9,4.8
		c0.6,6.6,0.8,13.3,0,19.9c-0.6,5.7,2,6.4,8.5,5.1s12.9-1.1,19.4-0.1c4.7,0.7,8.3-0.9,8.6-5.1c0.4-6.3,0.5-12.7,0.2-19
		c-0.2-3.8-3-5.7-7-5.6C66.2,267.3,61.9,267.3,57.7,267.3L57.7,267.3z"/>
	<path class="st1" d="M201.9,271.8c3,0.6,6.8-0.2,9.1,0.9c4.2,0.8,6.5,4.2,7.4,8.2c2.5,10.4,0.5,21-13.2,21.2c-2.4,0-4.7,0.1-7.1,0
		c-11.9-0.4-15-6.5-13.7-17.9C185.3,274.7,189.4,272.4,201.9,271.8L201.9,271.8z M201.6,276.3C201.6,276.3,201.6,276.3,201.6,276.3
		c-1.1,0-2.2,0-3.3,0c-3.8,0-7.7,0.6-8.6,4.8c-1.1,5.2-2.1,10.7,1.6,15.5c0.5,0.6,1.4,1.2,2.1,1.2c5.2,0.1,10.4,0.4,15.6-0.1
		c1.5-0.1,3.6-2.1,4-3.5c0.8-3.8,1.3-7.8,0.9-11.7c-0.4-3.9-3.4-5.8-7.3-6.1C205,276.2,203.3,276.3,201.6,276.3L201.6,276.3z"/>
	<path class="st1" d="M231.3,275c6.7-3.6,14.1-4.6,21.3-1.5c2.4,1,4.6,4,5,6.6c0.9,5.9,0.9,12,1,18c0,0.9-1.7,1.9-2.6,2.9
		c-0.8-1-2.1-2-2.2-3c-0.3-4.8-0.2-9.7-0.5-14.5c-0.2-4.5-2.3-7-6.7-7.4c-3.3-0.3-6.7-0.3-9.9,0.2c-4.9,0.8-6.8,3.3-6.8,8.3
		c0,4.6,0.1,9.2-0.1,13.7c-0.1,1-1.3,2-2,3c-0.9-1-2.4-2-2.5-3c-0.2-7.1-0.2-14.2,0-21.2c0-1.4,1.2-2.8,1.9-4.1
		C228.3,273.6,229.6,274.2,231.3,275L231.3,275z"/>
	<path class="st1" d="M95.4,287.3c0,3.7,0.2,7.5-0.1,11.2c-0.1,1-1.4,1.8-2.2,2.8c-0.8-0.9-2.2-1.8-2.3-2.8
		c-0.2-7.6-0.2-15.2,0-22.8c0-1,1.5-2,2.2-3c0.7,1,2.1,1.9,2.1,3C95.5,279.6,95.3,283.4,95.4,287.3
		C95.3,287.3,95.4,287.3,95.4,287.3L95.4,287.3z"/>
	<path class="st1" d="M96.2,265.4c-1.5,1-2.4,2-3.3,2c-0.7,0-1.4-1.2-2.1-1.9c0.9-0.8,1.6-1.9,2.7-2.3
		C93.9,263.1,94.9,264.3,96.2,265.4L96.2,265.4z"/>
</g>
</svg>
