<?xml version="1.0" encoding="UTF-8"?>
<svg id="Layer_1" data-name="Layer 1" xmlns="http://www.w3.org/2000/svg" viewBox="0 0 294.27 302.12">
  <defs>
    <style>
      .cls-1 {
        fill: #fff;
      }
    </style>
  </defs>
  <path class="cls-1" d="m0,254.06C49.11,169.05,97.7,84.93,146.76,0c1.43,1.89,2.33,2.86,2.98,3.97,10.99,18.95,21.99,37.9,32.84,56.94.87,1.52,1.54,4.11.84,5.42-4.56,8.5-9.53,16.79-14.74,25.79-1.2-1.45-2.16-2.35-2.8-3.44-5.35-9.08-10.64-18.19-15.94-27.3-2.4-4.12-3.34-4.12-5.74.05-15.05,26.22-30.03,52.48-45.15,78.65-15.74,27.26-31.61,54.44-47.42,81.66-1.85,3.19-1.32,4.37,2.28,4.37,22.49.02,44.99.05,67.47-.24,1.75-.02,4.05-2.14,5.1-3.89,7.26-12.13,14.27-24.42,21.34-36.67,15.46-26.77,30.89-53.56,46.35-80.33,2.06-3.56,4.19-7.09,7.03-11.89,31.23,53.99,61.87,106.98,93.06,160.92h-120c2.05-3.64,3.74-6.71,5.5-9.73,2.92-5.03,5.72-10.14,8.95-14.96.96-1.43,3.17-2.82,4.83-2.84,15.27-.26,30.54-.2,45.81-.31,1.43,0,2.85-.53,4.27-.81-.38-1.4-.5-2.96-1.19-4.18-6.82-12.08-13.65-24.14-20.63-36.12-6.04-10.38-12.18-20.71-18.48-30.93-1.46-2.38-3.77-2.31-5.11.13-6.02,10.92-12.15,21.77-18.34,32.59-8.88,15.52-17.83,31-26.77,46.48-3.61,6.25-7.07,12.59-11.03,18.6-.95,1.44-3.65,2.42-5.55,2.43-23.19.16-46.37.1-69.56.09-20.41,0-40.82-.01-61.23-.04-1.46,0-2.93-.18-5.72-.35Z"/>
  <path class="cls-1" d="m170.57,268.83c-4.54,6.9-9.08,13.81-13.63,20.7-1.91,2.88-3.85,5.74-5.81,8.59-3.09,4.49-6.03,4.39-9.1-.29-5.93-9.03-11.85-18.06-17.79-27.09-.58-.89-1.26-1.72-2.62-3.57-.31,2.69-.65,4.34-.66,5.99-.05,8.05-.02,16.1,0,24.14,0,1.82.29,4.11-2.37,3.74-.87-.12-2.04-2.33-2.06-3.6-.18-9.71-.21-19.43-.02-29.14.03-1.74.96-4.65,2.04-4.94,2.63-.71,5.58-.97,7.64,2.27,5.5,8.65,11.31,17.12,17.01,25.64,3.42,5.11,3.63,5.09,7.12-.14,5.69-8.53,11.48-17.01,17.03-25.63,1.95-3.04,4.8-2.82,7.31-2.16,1.06.27,2.06,2.99,2.09,4.62.16,9.85.11,19.7-.09,29.55-.03,1.25-1.37,2.48-2.11,3.72-.77-1.2-2.18-2.39-2.21-3.61-.2-8.18-.09-16.37-.13-24.56,0-1.31-.26-2.62-.39-3.93l-1.22-.3Z"/>
  <path class="cls-1" d="m36.14,282.43c0-4.99.11-9.99-.04-14.97-.09-3.19,1.17-4.54,4.38-4.51,9.15.11,18.31-.05,27.46.14,10.98.23,14.7,4.15,14.69,15.01,0,3.61.07,7.21-.04,10.82-.21,7.26-3.53,11.53-10.66,11.93-10.93.6-21.9.38-32.85.47-2.25.02-3.08-1.19-3.01-3.48.14-5.13.04-10.26.04-15.39h.03Zm21.51-15.16v.02c-4.3,0-8.59.07-12.89-.03-3.03-.07-4.2,1.16-3.88,4.77.59,6.63.75,13.3.02,19.92-.63,5.68,2.02,6.39,8.47,5.12s12.93-1.06,19.37-.06c4.67.72,8.34-.88,8.59-5.12.38-6.32.53-12.7.16-19.01-.22-3.8-3.01-5.68-6.96-5.61-4.29.08-8.59.02-12.89.02Z"/>
  <path class="cls-1" d="m201.86,271.84c2.97.56,6.77-.18,9.07.89,4.16.78,6.47,4.21,7.41,8.18,2.47,10.41.46,21.04-13.24,21.18-2.36.02-4.72.06-7.08-.02-11.9-.39-14.98-6.49-13.73-17.86,1.04-9.5,5.08-11.83,17.58-12.37Zm-.22,4.47s0-.03,0-.05c-1.11,0-2.21,0-3.32,0-3.79.01-7.72.62-8.65,4.83-1.13,5.18-2.08,10.68,1.65,15.46.47.6,1.39,1.17,2.12,1.18,5.2.12,10.43.35,15.6-.06,1.46-.12,3.65-2.08,3.96-3.53.81-3.81,1.27-7.84.91-11.7-.36-3.9-3.45-5.8-7.3-6.11-1.65-.13-3.32-.02-4.98-.02Z"/>
  <path class="cls-1" d="m231.27,275.04c6.73-3.65,14.06-4.65,21.33-1.49,2.37,1.03,4.6,4.04,5,6.6.93,5.92.91,12.01.96,18.04,0,.94-1.69,1.9-2.61,2.85-.78-1.01-2.15-1.98-2.22-3.03-.34-4.84-.23-9.7-.46-14.55-.21-4.51-2.31-6.97-6.72-7.39-3.28-.31-6.69-.29-9.94.24-4.94.8-6.79,3.32-6.84,8.3-.04,4.58.12,9.17-.1,13.74-.05,1.02-1.3,1.97-2,2.96-.86-.99-2.44-1.97-2.47-2.99-.2-7.07-.19-14.16.02-21.23.04-1.4,1.23-2.77,1.89-4.15,1.24.63,2.47,1.26,4.16,2.12Z"/>
  <path class="cls-1" d="m95.36,287.29c0,3.73.15,7.46-.1,11.17-.07.96-1.4,1.84-2.15,2.76-.79-.92-2.25-1.82-2.27-2.75-.18-7.59-.17-15.18.03-22.77.03-1.01,1.46-1.98,2.25-2.97.74.99,2.05,1.94,2.12,2.97.25,3.85.1,7.72.1,11.59,0,0,.02,0,.03,0Z"/>
  <path class="cls-1" d="m96.25,265.44c-1.53.99-2.41,1.99-3.31,2.01-.69.02-1.4-1.21-2.11-1.89.87-.81,1.64-1.89,2.67-2.31.42-.17,1.42,1.08,2.75,2.18Z"/>
</svg>