<?xml version="1.0" encoding="UTF-8"?>
<svg id="Layer_2" data-name="Layer 2" xmlns="http://www.w3.org/2000/svg" viewBox="0 0 416.42 426.93">
  <defs>
    <style>
      .cls-1, .cls-2, .cls-3, .cls-4, .cls-5 {
        fill: none;
        stroke: #231f20;
        stroke-miterlimit: 10;
      }

      .cls-2 {
        stroke-dasharray: 0 0 5.93 5.93;
      }

      .cls-2, .cls-3 {
        stroke-width: 3px;
      }

      .cls-6, .cls-7, .cls-8 {
        font-size: 25px;
      }

      .cls-9, .cls-7, .cls-10, .cls-8 {
        fill: #231f20;
        font-family: ArialMT, Arial;
      }

      .cls-10, .cls-11 {
        font-size: 15px;
      }

      .cls-4 {
        stroke-width: 2px;
      }

      .cls-8 {
        letter-spacing: -.06em;
      }

      .cls-5 {
        stroke-width: .75px;
      }
    </style>
  </defs>
  <circle class="cls-3" cx="193.38" cy="209.93" r="169.06"/>
  <line class="cls-1" x1="193.38" y1="378.99" x2="193.38" y2="40.86"/>
  <line class="cls-1" x1="24.32" y1="207.63" x2="362.41" y2="207.17"/>
  <path class="cls-3" d="m360.15,208.09c0,20.68-75.18,37.45-167.91,37.45S24.32,228.77,24.32,208.09"/>
  <g>
    <path class="cls-3" d="m24.32,208.09c0-.99.17-1.97.51-2.94"/>
    <path class="cls-2" d="m28.04,200.21c16.22-16.9,83.57-29.58,164.2-29.58s153.98,13.83,166.06,31.87"/>
    <path class="cls-3" d="m359.64,205.15c.34.97.51,1.95.51,2.94"/>
  </g>
  <path class="cls-1" d="m192.59,379.76c30.65,0,55.49-76.04,55.49-169.83s-24.84-169.83-55.49-169.83"/>
  <line class="cls-4" x1="151.32" y1="11.35" x2="300.82" y2="109.03"/>
  <line class="cls-4" x1="129.31" y1="40.1" x2="327.88" y2="40.1"/>
  <line class="cls-5" x1="193.49" y1="208.09" x2="247" y2="243.5"/>
  <path class="cls-5" d="m230.44,63.05c4.21-1.05,13.16-4.9,19.94-9.5,6.84-4.64,11.23-9.9,13.76-13.44"/>
  <text class="cls-7" transform="translate(0 219.69)"><tspan x="0" y="0">D</tspan></text>
  <text class="cls-8" transform="translate(192.23 28.2)"><tspan x="0" y="0">A</tspan></text>
  <text/>
  <text class="cls-7" transform="translate(165.85 230.49)"><tspan x="0" y="0">O</tspan></text>
  <text class="cls-7" transform="translate(319.34 21.45)"><tspan x="0" y="0">N</tspan></text>
  <text class="cls-7" transform="translate(272.39 129.15)"><tspan x="0" y="0">M</tspan></text>
  <text class="cls-7" transform="translate(373.31 216.96)"><tspan x="0" y="0">C</tspan></text>
  <text class="cls-9" transform="translate(180.19 403.55)"><tspan class="cls-6" x="0" y="0">A</tspan><tspan class="cls-11" x="16.67" y="0">1</tspan></text>
  <text class="cls-7" transform="translate(252.71 266.8)"><tspan x="0" y="0">B</tspan></text>
  <line class="cls-1" x1="301" y1="107.95" x2="298.04" y2="99.79"/>
  <line class="cls-1" x1="299.52" y1="109.49" x2="291.34" y2="109.83"/>
  <line class="cls-1" x1="327.88" y1="39.1" x2="315.5" y2="32.45"/>
  <line class="cls-1" x1="327.88" y1="40.1" x2="316.98" y2="45.99"/>
  <text class="cls-10" transform="translate(227.09 55.89)"><tspan x="0" y="0">x</tspan></text>
</svg>