<?xml version="1.0" encoding="UTF-8"?>
<svg id="Layer_1" data-name="Layer 1" xmlns="http://www.w3.org/2000/svg" viewBox="0 0 283 167">
  <defs>
    <style>
      .cls-1 {
        fill: #fff;
      }
    </style>
  </defs>
  <path class="cls-1" d="m0,167C0,111.33,0,55.67,0,0c94.33,0,188.67,0,283,0v167c-94.33,0-188.67,0-283,0Zm35.42-100.72v10.72c1.07,0,1.99-.04,2.9.01.9.06,1.15-.32,1.13-1.17-.06-2.41-.03-4.83-.05-7.25-.02-2.52-.02-2.49,2.57-2.88,2.45-.36,4.76-1.04,6.81-2.56,4.81-3.57,5.46-10.84,3.82-15.22-1.15-3.06-3.35-4.91-6.47-5.66-4.88-1.18-9.59,1.9-10.29,7.26-.56,4.26-.35,8.63-.47,12.95-.01.48,0,.96,0,1.43-3.6.3-6.92-1.88-7.81-5.34-1.44-5.59-.34-10.58,4.15-14.5.87-.76.41-1.16-.19-1.47-.31-.16-.92-.07-1.24.15-3.83,2.6-6.94,5.8-7.65,10.6-.71,4.81.66,9.5,6.47,11.46,1.95.66,4.03.95,6.32,1.47Zm205.41,71.72c.09-.15.17-.31.26-.46-.37-.27-.69-.64-1.1-.81-1.49-.62-2.47-1.65-2.84-3.24-.22-.93-.49-1.85-.66-2.79-.51-2.97-1.02-5.93-3.72-8.13,1.13-.49,2.08-.87,2.99-1.31,3.62-1.75,5.95-4.46,6.38-8.59.4-3.9-1.7-7.11-5.39-8.02-1.4-.35-2.87-.59-4.31-.63-3.79-.09-7.58-.03-11.37-.02-.25,0-.5.09-.69.12.79.85,1.86,1.53,2.19,2.47.34.98-.03,2.21-.11,3.33-.01.21-.08.41-.12.61-1,4.59-1.99,9.18-3.02,13.76-.75,3.37-1.51,6.73-2.32,10.08-.3,1.25-.93,2.3-2.34,2.66-.27.07-.46.49-.72.78h10.52c-.33-.36-.43-.55-.59-.64-2.38-1.27-2.51-1.28-2.11-3.85.45-2.87,1.11-5.71,1.74-8.55.47-2.12.07-1.78,2.19-1.79,4.38-.02,4.93.46,5.85,4.71.68,3.13,1.41,6.24,2.18,9.35.09.36.57.88.89.89,2.07.08,4.15.04,6.23.04Zm11.11-49.91h-102.88v2.84h102.88v-2.84Zm-22.28-39.49c0-.37.01-.75,0-1.12-.17-3.93-.5-7.82-2.66-11.28-1.86-2.98-5.99-4.67-9.43-4.03-4.48.83-6.96,3.75-8.2,7.82-1.98,6.5-1.9,13.06.21,19.53,1.32,4.05,4.29,6.24,8.46,6.43,4.04.18,7.25-1.5,9.22-5.22,2.02-3.81,2.31-7.94,2.39-12.12Zm-44.68-.54c.03-.58,0-.96.08-1.32,1.77-7.23,6.92-11.71,13.32-11.77.34,0,.85-.26.97-.54.41-.92-.9-2.46-1.91-2.3-3.25.51-6.34,1.51-8.97,3.52-6.94,5.34-9.39,12.54-8.04,20.99.96,6.06,3.65,8.42,9.57,9.28,5.67.82,11.01-2.64,12.07-8.16.39-2.02.27-4.26-.14-6.29-.68-3.38-2.89-5.52-6.37-6.22-3.4-.68-6.39.39-9.27,2.06-.38.22-.77.44-1.31.75Zm-22.55,85.95c.58-.88.94-1.58,1.44-2.16,2.79-3.2,5.65-6.33,8.41-9.56,1.62-1.89,3.32-3.77,4.58-5.9,2.69-4.5,1.47-11.14-5.7-12.18-3.35-.49-6.44.32-9.53,1.28-3.27,1.01-3.27,1.08-3.03,4.48,0,.04,0,.08,0,.12-.02.69.32.87.99.93,1.21.11,1.9-.33,2.42-1.43,1.2-2.56,3.34-3.61,6.1-3.42,3.52.24,5.47,2.76,5.28,6.67-.16,3.37-1.95,5.94-4.02,8.38-2.48,2.91-5.11,5.72-7.44,8.75-1.51,1.96-2.69,4.19-3.84,6.39-.63,1.21-.25,1.62,1.1,1.62,4.83,0,9.66,0,14.49,0,1.41,0,2.82,0,4.4,0,.12-2.07.25-4.06.32-6.04,0-.3-.28-.83-.5-.87-.4-.07-.9.06-1.27.26-.25.14-.42.52-.52.82-.44,1.38-1.45,1.84-2.78,1.84-2.21,0-4.41-.01-6.62-.01-1.32,0-2.63,0-4.27,0Zm49.7-20c-.5,0-.94,0-1.39,0-6,0-11.99.05-17.99-.02-3.34-.04-6.07,1.15-8.31,3.58-.99,1.07-.96,1.28.52,2.16,1.63-1.95,3.65-3.18,6.49-2.6-1.71,7.12-2.54,14.44-7,20.87,1.88,0,3.33.04,4.78-.03.27-.01.66-.43.75-.73.47-1.68.9-3.37,1.27-5.08,1.02-4.71,1.99-9.43,3.02-14.14.08-.38.52-.96.8-.97,2.28-.08,4.57-.04,6.98-.04-.09.47-.13.83-.22,1.17-.9,3.46-1.91,6.89-2.66,10.38-.44,2.05-.73,4.2-.63,6.28.12,2.31,2.12,3.44,4.41,2.98,1.93-.38,3.43-1.46,4.75-2.81.24-.24.24-.73.35-1.1-.47-.07-.97-.26-1.41-.18-.37.07-.64.58-1.02.68-.89.25-1.97.72-2.67.42-.5-.22-.81-1.63-.66-2.4.98-5.13,2.11-10.24,3.21-15.42,1.66,0,3.2-.05,4.73.02,1.12.05,1.6-.5,1.74-1.5.06-.45.09-.9.15-1.51Zm-59.72-54.9c-.03.48-.06.89-.07,1.3q-.05,3.82,3.66,4.74c3.82.95,7.63,1.32,11.37-.36,1.58-.71,2.98-1.65,3.95-3.13,3.34-5.09,1.06-11.08-4.92-12.87-.53-.16-1.07-.3-1.92-.54.77-.38,1.25-.55,1.64-.83,1.33-.92,2.8-1.71,3.91-2.85,4.1-4.24,2.21-10.48-3.46-12.02-4.61-1.25-8.79.16-12.95,1.82-.29.12-.65.51-.67.8-.07,1.26-.03,2.53-.03,3.7,1.74.38,2.7.14,3.36-1.55,1-2.58,3.71-3.59,6.95-3.05,2.41.41,3.91,2.09,4.29,4.84.44,3.16-1.33,6.32-4.47,7.6-1.52.62-3.18.95-4.8,1.28-.82.17-1,.58-.98,1.3.02.8.56.78,1.13.8,1.08.04,2.17.04,3.24.18,2.81.38,5.23,1.44,5.95,4.48.36,1.51.41,3.14.29,4.69-.14,1.78-1.27,3.07-2.89,3.79-2.2.97-4.48,1.09-6.62-.06-.9-.49-1.75-1.32-2.27-2.2-1.23-2.08-1.14-2.13-3.69-1.86Zm-108.85,42.97c-.05.11-.1.21-.16.32.23.19.42.46.68.56,2.27.9,2.49,1.15,1.98,3.53-1.61,7.65-3.34,15.27-4.9,22.93-.38,1.85-.52,3.8-.38,5.68.16,2.01,2.14,3.11,4.14,2.74,2.23-.41,3.79-1.81,5.27-3.36.4-.42,1.3-.74.48-1.56-.75-.75-1.11-.15-1.69.33-.86.71-1.86,1.33-2.9,1.74-.84.34-1.45-.14-1.4-1.14.06-1.2-.02-2.44.23-3.6,1.52-7.11,3.11-14.21,4.69-21.31.5-2.26,1.03-4.51,1.56-6.85h-7.62Zm28.38-13.99H20.07v2.84h51.88v-2.84Zm163-48.59c.05,4.32,3.23,7.55,7.36,7.48,4.17-.06,7.42-3.39,7.36-7.52-.06-4.27-3.27-7.47-7.43-7.42-4.09.06-7.34,3.38-7.28,7.46Zm-114.91,42.55h-30.33v2.89h30.33v-2.89Zm0,11h-30.31c-.05.24-.1.44-.12.64q-.16,2.3,2.08,2.3c8.95,0,17.9,0,26.86,0h1.48v-2.94ZM67.99,27.35c-.09-3.29-2.24-5.09-5.07-5.27-3.19-.2-5.6,2.26-5.58,5.42.01,3.01,2.34,5.48,5.18,5.49,3.03.02,5.46-2.48,5.47-5.64Z"/>
  <path d="m35.42,66.28c-2.29-.52-4.37-.81-6.32-1.47-5.81-1.96-7.18-6.65-6.47-11.46.71-4.8,3.81-8,7.65-10.6.32-.21.93-.31,1.24-.15.6.32,1.06.71.19,1.47-4.49,3.92-5.59,8.91-4.15,14.5.89,3.45,4.21,5.64,7.81,5.34,0-.46-.01-.95,0-1.43.13-4.32-.09-8.69.47-12.95.7-5.36,5.41-8.44,10.29-7.26,3.12.76,5.33,2.6,6.47,5.66,1.64,4.39.99,11.65-3.82,15.22-2.05,1.52-4.36,2.2-6.81,2.56-2.59.38-2.58.36-2.57,2.88.02,2.42,0,4.83.05,7.25.02.86-.23,1.23-1.13,1.17-.91-.06-1.83-.01-2.9-.01v-10.72Zm4.02-1.26c.39,0,.68.04.95,0,3.48-.53,6.24-2.09,7.45-5.58.53-1.51.87-3.12,1.04-4.72.3-2.79.1-5.57-1.15-8.16-.89-1.87-2.41-2.77-4.27-2.56-1.91.22-3.1,1.4-3.56,3.19-.33,1.27-.51,2.61-.52,3.93-.04,3.82.03,7.65.05,11.47,0,.78,0,1.56,0,2.43Z"/>
  <path d="m240.83,138c-2.08,0-4.15.04-6.23-.04-.32-.01-.8-.53-.89-.89-.77-3.1-1.5-6.22-2.18-9.35-.92-4.25-1.47-4.73-5.85-4.71-2.12,0-1.72-.33-2.19,1.79-.63,2.84-1.29,5.68-1.74,8.55-.4,2.57-.27,2.58,2.11,3.85.16.09.27.28.59.64h-10.52c.26-.29.45-.71.72-.78,1.41-.36,2.04-1.41,2.34-2.66.81-3.35,1.57-6.71,2.32-10.08,1.02-4.58,2.01-9.17,3.02-13.76.04-.2.11-.41.12-.61.07-1.12.45-2.35.11-3.33-.33-.94-1.4-1.62-2.19-2.47.19-.04.44-.12.69-.12,3.79,0,7.58-.06,11.37.02,1.44.03,2.9.28,4.31.63,3.68.91,5.79,4.12,5.39,8.02-.42,4.13-2.76,6.84-6.38,8.59-.91.44-1.86.82-2.99,1.31,2.7,2.2,3.2,5.16,3.72,8.13.16.94.44,1.86.66,2.79.37,1.59,1.35,2.61,2.84,3.24.41.17.74.53,1.1.81-.09.15-.17.31-.26.46Zm-13.32-31.8c-1.04,4.83-2.1,9.76-3.18,14.77,1.93,0,3.82.16,5.66-.03,4.04-.43,6.47-2.54,7.34-6.36.31-1.35.28-2.81.21-4.21-.11-2.2-1.43-3.85-3.61-4.12-2.08-.25-4.21-.05-6.42-.05Z"/>
  <path d="m251.94,88.09v2.84h-102.88v-2.84h102.88Z"/>
  <path d="m229.66,48.6c-.08,4.18-.37,8.31-2.39,12.12-1.97,3.72-5.18,5.4-9.22,5.22-4.17-.18-7.14-2.37-8.46-6.43-2.11-6.48-2.19-13.03-.21-19.53,1.24-4.06,3.72-6.98,8.2-7.82,3.44-.64,7.57,1.05,9.43,4.03,2.16,3.46,2.49,7.35,2.66,11.28.02.37,0,.75,0,1.12Zm-4.32.69c-.13-.01-.26-.03-.38-.04,0-1.21.07-2.42-.01-3.62-.2-3.04-.58-6.06-2-8.82-.83-1.62-2.15-2.73-4.05-2.68-1.91.05-3.51.87-4.3,2.7-.57,1.32-1.09,2.72-1.33,4.13-.8,4.75-.8,9.55-.18,14.32.25,1.91.74,3.87,1.52,5.62,1.35,3.04,4.78,4.02,7.1,2.01,1.06-.92,1.94-2.4,2.22-3.76.68-3.24.97-6.56,1.41-9.85Z"/>
  <path d="m184.98,48.05c.54-.31.93-.52,1.31-.75,2.87-1.66,5.87-2.73,9.27-2.06,3.48.69,5.69,2.84,6.37,6.22.41,2.03.53,4.27.14,6.29-1.06,5.52-6.4,8.99-12.07,8.16-5.92-.86-8.61-3.22-9.57-9.28-1.34-8.45,1.11-15.65,8.04-20.99,2.62-2.02,5.72-3.01,8.97-3.52,1-.16,2.31,1.38,1.91,2.3-.12.28-.64.54-.97.54-6.41.06-11.55,4.53-13.32,11.77-.09.35-.05.73-.08,1.32Zm13.16,7.49c-.23-1.4-.34-2.66-.66-3.85-.79-2.91-2.79-4.43-5.8-4.2-1.46.11-2.95.53-4.29,1.12-1.23.53-2.5,1.34-2.64,2.92-.26,2.88-.17,5.75.83,8.5.93,2.56,3.08,3.96,5.91,3.92,2.67-.04,4.93-1.55,5.71-4.04.46-1.45.66-2.99.95-4.37Z"/>
  <path d="m162.43,134c1.64,0,2.96,0,4.27,0,2.21,0,4.41.01,6.62.01,1.33,0,2.35-.47,2.78-1.84.1-.31.27-.69.52-.82.37-.2.87-.34,1.27-.26.22.04.51.57.5.87-.06,1.98-.2,3.97-.32,6.04-1.58,0-2.99,0-4.4,0-4.83,0-9.66,0-14.49,0-1.35,0-1.73-.42-1.1-1.62,1.15-2.2,2.33-4.43,3.84-6.39,2.33-3.03,4.95-5.84,7.44-8.75,2.08-2.44,3.86-5.01,4.02-8.38.19-3.91-1.75-6.43-5.28-6.67-2.76-.19-4.9.86-6.1,3.42-.52,1.1-1.21,1.54-2.42,1.43-.68-.06-1.01-.24-.99-.93,0-.04,0-.08,0-.12-.24-3.4-.24-3.47,3.03-4.48,3.1-.96,6.18-1.77,9.53-1.28,7.18,1.04,8.39,7.68,5.7,12.18-1.27,2.12-2.97,4-4.58,5.9-2.76,3.22-5.62,6.36-8.41,9.56-.5.58-.86,1.27-1.44,2.16Z"/>
  <path d="m212.13,114c-.06.6-.08,1.06-.15,1.51-.14,1.01-.62,1.55-1.74,1.5-1.53-.06-3.07-.02-4.73-.02-1.1,5.19-2.23,10.29-3.21,15.42-.15.77.16,2.18.66,2.4.7.31,1.78-.17,2.67-.42.37-.1.65-.61,1.02-.68.44-.08.94.11,1.41.18-.11.37-.11.85-.35,1.1-1.33,1.35-2.83,2.43-4.75,2.81-2.29.46-4.3-.68-4.41-2.98-.11-2.08.18-4.23.63-6.28.75-3.49,1.76-6.92,2.66-10.38.09-.35.13-.7.22-1.17-2.41,0-4.7-.04-6.98.04-.29.01-.72.59-.8.97-1.04,4.71-2,9.43-3.02,14.14-.37,1.7-.8,3.4-1.27,5.08-.08.3-.48.71-.75.73-1.45.07-2.9.03-4.78.03,4.45-6.43,5.29-13.75,7-20.87-2.84-.57-4.86.65-6.49,2.6-1.48-.88-1.51-1.09-.52-2.16,2.24-2.43,4.97-3.62,8.31-3.58,6,.07,11.99.02,17.99.02.45,0,.89,0,1.39,0Z"/>
  <path d="m152.41,59.11c2.55-.27,2.47-.22,3.69,1.86.52.88,1.37,1.72,2.27,2.2,2.14,1.16,4.43,1.04,6.62.06,1.63-.72,2.75-2.01,2.89-3.79.12-1.55.07-3.18-.29-4.69-.72-3.04-3.15-4.1-5.95-4.48-1.07-.14-2.16-.14-3.24-.18-.57-.02-1.11,0-1.13-.8-.02-.71.16-1.13.98-1.3,1.62-.33,3.27-.66,4.8-1.28,3.14-1.28,4.9-4.44,4.47-7.6-.38-2.75-1.87-4.44-4.29-4.84-3.24-.55-5.95.47-6.95,3.05-.66,1.69-1.62,1.93-3.36,1.55,0-1.17-.04-2.44.03-3.7.02-.28.38-.68.67-.8,4.16-1.66,8.34-3.07,12.95-1.82,5.67,1.54,7.56,7.78,3.46,12.02-1.1,1.14-2.58,1.93-3.91,2.85-.4.28-.87.44-1.64.83.85.24,1.39.38,1.92.54,5.97,1.79,8.26,7.78,4.92,12.87-.97,1.49-2.37,2.42-3.95,3.13-3.74,1.68-7.55,1.3-11.37.36q-3.71-.92-3.66-4.74c0-.41.04-.82.07-1.3Z"/>
  <path d="m43.56,102.08h7.62c-.53,2.34-1.06,4.59-1.56,6.85-1.58,7.1-3.17,14.2-4.69,21.31-.25,1.16-.17,2.4-.23,3.6-.05,1,.56,1.48,1.4,1.14,1.04-.42,2.03-1.03,2.9-1.74.58-.48.94-1.09,1.69-.33.82.82-.08,1.14-.48,1.56-1.48,1.55-3.04,2.95-5.27,3.36-2,.37-3.98-.73-4.14-2.74-.15-1.87,0-3.83.38-5.68,1.56-7.66,3.28-15.28,4.9-22.93.5-2.37.29-2.63-1.98-3.53-.26-.1-.46-.37-.68-.56.05-.11.1-.21.16-.32Z"/>
  <path d="m71.94,88.09v2.84H20.07v-2.84h51.88Z"/>
  <path d="m234.95,39.5c-.05-4.08,3.19-7.4,7.28-7.46,4.16-.06,7.37,3.15,7.43,7.42.06,4.14-3.19,7.46-7.36,7.52-4.13.06-7.31-3.16-7.36-7.48Zm12.08.06c-.03-3.15-1.84-4.97-4.92-4.93-2.8.04-4.8,2.11-4.79,4.97,0,2.71,2.12,4.77,4.86,4.75,2.57-.01,5.14-1.85,4.85-4.8Z"/>
  <path d="m120.04,82.05v2.89h-30.33v-2.89h30.33Z"/>
  <path d="m120.04,93.06v2.94h-1.48c-8.95,0-17.9,0-26.86,0q-2.24,0-2.08-2.3c.01-.2.07-.4.12-.64h30.31Z"/>
  <path d="m67.99,27.35c-.02,3.16-2.44,5.65-5.47,5.64-2.84-.02-5.16-2.48-5.18-5.49-.02-3.16,2.39-5.62,5.58-5.42,2.82.18,4.98,1.99,5.07,5.27Zm-5.38,3.68c2.18.02,3.62-1.36,3.67-3.53.05-1.87-1.47-3.48-3.29-3.5-2.53-.03-3.81,1.13-3.85,3.5-.03,2.12,1.33,3.51,3.47,3.53Z"/>
  <path class="cls-1" d="m39.44,65.02c0-.88,0-1.65,0-2.43-.02-3.82-.1-7.65-.05-11.47.01-1.31.19-2.66.52-3.93.46-1.79,1.65-2.97,3.56-3.19,1.86-.21,3.38.69,4.27,2.56,1.24,2.59,1.44,5.37,1.15,8.16-.17,1.59-.51,3.21-1.04,4.72-1.21,3.48-3.98,5.04-7.45,5.58-.27.04-.56,0-.95,0Z"/>
  <path class="cls-1" d="m227.51,106.19c2.21,0,4.35-.2,6.42.05,2.18.26,3.51,1.92,3.61,4.12.07,1.4.1,2.86-.21,4.21-.87,3.82-3.3,5.92-7.34,6.36-1.84.2-3.73.03-5.66.03,1.08-5.01,2.14-9.94,3.18-14.77Z"/>
  <path class="cls-1" d="m225.35,49.28c-.44,3.29-.73,6.61-1.41,9.85-.29,1.37-1.17,2.85-2.22,3.76-2.32,2.02-5.76,1.03-7.1-2.01-.78-1.76-1.27-3.71-1.52-5.62-.62-4.77-.61-9.56.18-14.32.24-1.41.76-2.8,1.33-4.13.79-1.83,2.4-2.65,4.3-2.7,1.9-.05,3.22,1.06,4.05,2.68,1.42,2.76,1.79,5.78,2,8.82.08,1.2.01,2.41.01,3.62.13.01.26.03.38.04Z"/>
  <path class="cls-1" d="m198.14,55.55c-.29,1.38-.49,2.91-.95,4.37-.78,2.49-3.04,4-5.71,4.04-2.83.04-4.98-1.36-5.91-3.92-1-2.76-1.09-5.63-.83-8.5.14-1.57,1.41-2.38,2.64-2.92,1.34-.58,2.84-1,4.29-1.12,3.01-.23,5.01,1.29,5.8,4.2.32,1.19.43,2.45.66,3.85Z"/>
  <path class="cls-1" d="m247.03,39.56c.29,2.95-2.28,4.78-4.85,4.8-2.74.01-4.85-2.04-4.86-4.75,0-2.86,1.99-4.93,4.79-4.97,3.08-.05,4.89,1.77,4.92,4.93Z"/>
  <path class="cls-1" d="m62.62,31.03c-2.14-.02-3.51-1.41-3.47-3.53.04-2.37,1.32-3.53,3.85-3.5,1.82.02,3.33,1.64,3.29,3.5-.05,2.17-1.49,3.55-3.67,3.53Z"/>
</svg>