<?xml version="1.0" encoding="UTF-8"?>
<svg id="Layer_1" data-name="Layer 1" xmlns="http://www.w3.org/2000/svg" viewBox="0 0 569.16 125.09">
  <path d="m45.49,79.83c0-1.08.36-1.59,1.21-1.65.51-.03.87-.25,1.21-.65.9-1.03,1.49-2.17,1.76-3.53.36-1.82.89-3.6,1.35-5.4.04-.17.14-.33.15-.5.13-1.52.48-2.97.94-4.43.35-1.11.51-2.27.74-3.42.38-1.86.75-3.73,1.12-5.59,0-.04,0-.09.01-.13.46-1.93.91-3.86,1.37-5.8.08-.34.15-.67.23-1.01.24-1.01.53-2.01.7-3.03.19-1.11.23-2.24.39-3.36.08-.54.31-1.06.4-1.6.06-.36.02-.74.02-1.11,0-.04-.05-.07-.06-.11-.31-1.64-1.56-2.33-3.06-2.86.03-.48.07-.94.11-1.5.68-.06,1.27-.17,1.87-.17,5.45,0,10.9-.03,16.35.02,1.16.01,2.32.3,3.48.48.43.07.85.22,1.28.27,1.88.18,3.5.98,4.94,2.13,1.48,1.18,2.47,2.66,2.57,4.62,0,.04,0,.09.01.13.51,1.34.24,2.66.05,4.03-.2,1.47-.7,2.77-1.41,4.01-1.05,1.83-2.45,3.34-4.33,4.39-.64.35-1.17.9-1.96.93-.37.88-1.29.69-1.98.97-.19.69.09,1.07.68,1.36,1.85.92,3.22,2.34,4.11,4.21.17.35.32.72.4,1.1.51,2.47.52,4.97-.18,7.37-.77,2.64-2.32,4.84-4.61,6.43-1.14.79-2.36,1.45-3.64,2.05-1.02.48-2.07.46-3.04.83-2.71,1.02-5.5.64-8.27.69-4.4.07-8.81.02-13.21,0-.54,0-1.09-.1-1.71-.16Zm10.1-2.83c.24.14.31.21.39.23.12.04.25.08.38.08,3.54-.11,7.11.55,10.59-.74.87-.32,1.76-.66,2.4-1.22,2.71-2.36,4.44-5.28,4.57-8.97.03-.87-.06-1.75.02-2.61.23-2.25-2.18-5.34-4.74-5.49-.37-.02-.73-.25-1.1-.37-.41-.13-.82-.35-1.24-.36-2.18-.05-4.36-.04-6.53-.06-.64,0-.95.31-1.03.93-.08.6-.16,1.21-.29,1.8-.49,2.24-1.03,4.47-1.51,6.71-.38,1.82-.69,3.66-1.05,5.49-.06.29-.22.57-.31.85-.39,1.2-.51,2.44-.55,3.71Zm4.73-22.38c.57.07,1.03.17,1.49.17,1.87,0,3.75-.08,5.62-.01,2.24.08,4.27-.5,6.12-1.7,2.77-1.8,4.44-4.34,4.75-7.66.09-.95.05-1.91,0-2.87-.09-2.52-2.06-4.69-4.54-5.07-.26-.04-.55-.04-.76-.16-1.1-.69-2.33-.64-3.55-.64-1,0-2.01,0-3.01,0-2.48,0-2.52.07-2.96,2.58-.3,1.75-.69,3.49-1.06,5.23-.51,2.37-1.03,4.73-1.55,7.1-.14.64-.27,1.27-.4,1.91-.06.33-.1.66-.17,1.13Z"/>
  <path d="m544.81,59.22c-.36,1.41-.72,2.7-1,4.01-.4,1.87-.51,3.83-1.16,5.6-.7,1.89-.63,3.85-.98,5.76-.14.76.1,1.66.4,2.4.29.71.87,1.27,1.82,1.21.41-.03.84.11,1.24.17.02,1.33-.18,1.59-1.36,1.62-1.44.04-2.88.01-4.32.01-2.31,0-4.62.02-6.93,0-.49,0-.98-.15-1.55-.24.24-.91.51-1.43,1.4-1.66.61-.16,1.26-.66,1.61-1.2.49-.74.73-1.65,1.05-2.5.17-.44.29-.9.44-1.35.07-.2.2-.39.25-.6.38-1.82.73-3.65,1.11-5.47.11-.55.27-1.09.42-1.63.05-.17.18-.32.18-.49-.02-1.89.82-3.61,1.11-5.44.32-2,.89-3.97,1.35-5.95.03-.13.1-.24.13-.37.37-1.86.73-3.72,1.12-5.58.15-.72.41-1.41.54-2.13.38-2.05.78-4.09,1.04-6.16.15-1.2-.31-2.2-1.54-2.72-.55-.23-1.03-.61-1.56-.94-.16-1.27.02-1.54,1.32-1.54,3.36-.02,6.72,0,10.07,0,1.53,0,3.05-.02,4.58-.03,1.57-.02,3.14-.02,4.64.56.28.11.59.13.9.18,2.74.44,5,1.66,6.53,4.03.42.65.82,1.36,1.02,2.1.72,2.7.7,5.41-.13,8.09-.84,2.73-2.67,4.77-4.86,6.44-1.21.92-2.47,1.9-4.08,2.14-.09.01-.21.01-.25.06-.5.78-1.39.73-2.36.98.37.54.63,1.02.98,1.42,1.22,1.35,2.02,2.88,2.51,4.65.69,2.47,1.04,5.01,1.6,7.5.26,1.14.58,2.3,1.1,3.33.8,1.61,2.06,2.76,3.98,2.83.24,1.55.13,1.71-1.27,1.71-2.35.01-4.71-.02-7.06,0-.75,0-1.12-.23-1.39-1.01-.33-.95-.7-1.86-.74-2.88,0-.17,0-.38-.09-.51-.78-1.15-.59-2.5-.85-3.76-.38-1.86-.88-3.7-1.31-5.55-.13-.55-.21-1.11-.29-1.67-.23-1.48-.82-2.8-1.75-3.97-.11-.13-.2-.35-.34-.38-1.11-.28-1.99-1.18-3.26-1.09-1.25.09-2.52.02-3.99.02Zm.61-2.69c.91,0,1.64.04,2.36,0,2.64-.18,5.33.44,7.92-.77.96-.45,1.86-.96,2.72-1.53,1.62-1.06,2.52-2.72,3.31-4.41.45-.97.77-2.04.9-3.1.16-1.33.16-2.7.04-4.03-.12-1.34-.57-2.63-1.57-3.6-.87-.84-1.82-1.59-3.14-1.63-.38-.01-.75-.21-1.12-.31-.62-.16-1.24-.4-1.88-.43-1.26-.07-2.53.02-3.79-.05-.89-.05-1.4.4-1.75,1.09-.19.38-.27.82-.36,1.24-.14.72-.2,1.47-.36,2.18-.46,2.02-.96,4.03-1.43,6.05-.53,2.32-1.06,4.64-1.56,6.97-.15.7-.19,1.43-.3,2.34Z"/>
  <path d="m39.8,78.5c-.48,1.48-.48,1.5-1.84,1.5-3.62,0-7.24,0-10.86,0-.17,0-.35,0-.52-.01-.43-.05-.98-.04-.99-.61,0-.53.29-.98.88-1.16.44-.14.93-.25,1.28-.52,1.24-.95,1.88-2.27,1.9-3.8.03-2.7-.02-5.39-.12-8.09-.04-1.27-.24-1.38-1.52-1.38-4.01,0-8.02,0-12.03-.03-.54,0-.92.11-1.21.57-.44.7-.97,1.34-1.33,2.08-.88,1.79-1.75,3.59-2.52,5.42-.5,1.19-.51,2.5-.22,3.73.24,1.01,1.03,1.67,2.05,1.98.32.1.66.16.99.24-.25,1.38-.4,1.58-1.47,1.58-3.84.02-7.67.01-11.51,0-.21,0-.41-.07-.75-.14.04-.5.07-.96.11-1.47,2.07-.39,3.2-1.93,4.18-3.48,1.89-2.99,3.61-6.1,5.4-9.15,1.35-2.31,2.73-4.61,4.06-6.93,1.25-2.18,2.44-4.38,3.68-6.56,1.37-2.4,2.79-4.78,4.16-7.19,1.26-2.22,2.49-4.46,3.74-6.68.87-1.55,1.74-3.09,2.65-4.61.15-.25.53-.49.82-.5,1.26-.06,2.53-.08,3.79-.04.67.02,1.13.65,1.21,1.61.08.91.13,1.82.15,2.74.09,3.17.16,6.35.25,9.52,0,.35-.03.73.11,1.03.77,1.65.5,3.42.59,5.14.08,1.65.04,3.31.12,4.96.05.86.33,1.7.38,2.56.19,3.6.4,7.21.47,10.82.03,1.57.53,3,.99,4.42.35,1.09,1.13,2.08,2.49,2.23.16.02.3.15.44.22Zm-23.12-16.97c1.66.35,11.14.29,12.14-.02.22-1.37-.22-18.9-.56-20.05-.4.33-.85.54-1.06.89-1.47,2.55-2.9,5.12-4.32,7.7-1.7,3.06-3.39,6.13-5.07,9.2-.39.71-.72,1.45-1.13,2.29Z"/>
  <path d="m518.24,55.8c.95-1.84,1.9-3.68,2.84-5.52.32-.61.59-1.26.97-1.83.16-.24.53-.48.82-.49,1.65-.05,3.3-.02,4.96-.02.41.76.26,1.39-.17,2-.84,1.21-1.68,2.42-2.52,3.63-2.12,3.02-4.25,6.03-6.35,9.06-.6.87-.99,1.81-1.01,2.91-.07,3.04-.19,6.08-.28,9.12,0,.3.04.61.09.91.28,1.66,1.93,2.36,3.32,1.37.63-.45,1.18-1.01,1.77-1.53.45-.39.89-.79,1.37-1.2.37.21.67.36.94.56.76.55.85,1.3.14,1.94-1.12,1.02-2.26,2.03-3.47,2.94-.65.49-1.43.99-2.2,1.08-1.46.17-2.96.14-4.43,0-.51-.05-1.13-.54-1.42-1-.49-.78-1.17-1.5-1.17-2.55,0-1.39-.07-2.78-.12-4.17-.01-.28-.09-.56-.17-1.02-.7.79-1.31,1.4-1.82,2.09-1.56,2.13-3.38,3.96-5.62,5.36-.36.22-.76.38-1.15.54-.2.08-.54.04-.61.16-.49.89-1.34.65-2.07.7-.78.05-1.57-.01-2.35.05-2.41.19-3.94-1.23-5.07-3-1.24-1.94-1.98-4.11-1.9-6.5.05-1.52.04-3.05.06-4.57,0-.09,0-.18.02-.26.46-1.75.88-3.51,1.39-5.25.26-.91.67-1.78,1-2.67,1.13-3.07,3-5.64,5.42-7.8,1.02-.91,2.2-1.61,3.42-2.25.99-.52,2.13-.51,3.03-.98,1.34-.69,2.7-.81,4.05-.62,3.29.48,6.02,1.91,7.02,5.64.29,1.07.66,2.12,1,3.17.09,0,.18,0,.27-.01Zm-4.7,1.97c-.04-.74-.17-2.04-.15-3.34.02-1.16-.39-2.15-1.1-2.97-1.06-1.21-2.35-2.12-4.08-1.69-.89.22-1.78.61-2.56,1.1-1.99,1.25-3.44,3.02-4.54,5.08-.79,1.49-1.36,3.06-1.94,4.65-.61,1.7-.99,3.44-1.23,5.16-.3,2.13-.2,4.34-.08,6.5.05.96.46,1.95.91,2.82.45.85,1.22,1.32,2.3,1.46,1.6.2,2.9-.5,4.08-1.24,1.11-.69,2.01-1.78,2.86-2.8,1.73-2.07,3.03-4.44,4.16-6.87.46-.98,1.14-1.93,1.13-3.14-.01-1.39.12-2.78.21-4.74Z"/>
  <path d="m305.84,62.24c0-.88,0-1.83,0-2.78,0-.71.38-1.02,1.06-1.03.31,0,.61-.02.92-.02,29.87,0,59.74,0,89.61,0,.39,0,.78,0,1.26,0,.41,1.34.36,2.64.14,3.9-.06.35-.73.68-1.18.86-.38.15-.86.08-1.29.08-29,0-57.99,0-86.99.01-1.21,0-2.34-.09-3.51-1.02Z"/>
  <path d="m189.6,35.55c-.02-1.37.03-1.48,1.29-1.53,1.22-.04,2.44.02,3.66.02,2.22-.01,4.45-.04,6.67-.06.39,0,.79,0,1.18.04.38.04.9.07.89.57-.01.38-.24.81-.5,1.1-.28.32-.67.58-1.07.73-1.7.65-2.17,2.19-2.59,3.68-.62,2.2-1.12,4.44-1.6,6.68-.45,2.07-.78,4.17-1.21,6.25-.34,1.65-.76,3.29-1.12,4.94-.5,2.33-.96,4.67-1.47,6.99-.39,1.82-.84,3.62-1.25,5.43-.41,1.77-.82,3.55-1.2,5.33-.1.45-.07.92-.11,1.46.47.07.8.16,1.14.16,2.83,0,5.67-.02,8.5-.01,1.58,0,2.83-.68,3.91-1.76,1.72-1.71,2.8-3.82,3.74-6.01.36-.83.76-1.64,1.16-2.5h3.2c-.04.53-.02.92-.11,1.28-.55,2.13-1.11,4.26-1.71,6.38-.44,1.53-.98,3.04-1.42,4.57-.15.52-.44.7-.93.71-.35,0-.7.02-1.05.02-8.24,0-16.48,0-24.72,0-.46,0-.93-.05-1.53-.09.08-.6.14-1.05.21-1.54,2.36-.32,3.07-2.05,3.58-3.94.49-1.83.97-3.66,1.46-5.5.02-.08.04-.17.06-.25.38-2,.69-4.01,1.18-5.99.35-1.44.41-2.98.91-4.3.68-1.78.65-3.65,1.28-5.42.66-1.85.81-3.89,1.17-5.85.04-.21,0-.47.1-.64.88-1.5.67-3.21.97-4.81.1-.51.24-1.01.37-1.51.32-1.17.16-2.33-.67-3.17-.6-.61-1.5-.92-2.37-1.43Z"/>
  <path d="m372.62,11.24c.05-.46.1-.88.16-1.38.49-.04.91-.11,1.34-.11,4.05,0,8.11,0,12.16.02.96,0,1.88.06,2.78.55.82.45,1.83.56,2.65,1.01,1.7.93,2.78,2.34,2.83,4.38.01.61.02,1.22.03,1.83.02,3.38-1.83,5.57-4.63,7.12-1.01.56-2.06,1.04-3.09,1.58-.14.07-.23.24-.4.41,1.11,1.13,1.83,2.45,2.35,3.88.1.29.22.57.3.86.38,1.38.74,2.76,1.11,4.14.36,1.36,1.45,1.99,2.56,2.6,1.05.58,1.06.57.76,1.78-.9.27-4.91.34-6.72.12-.74-.89-1.03-1.93-1.25-3.07-.29-1.52-.81-2.99-1.26-4.47-.36-1.2-.71-2.41-1.18-3.56-.43-1.06-1.29-1.72-2.47-1.79-.91-.06-1.83-.07-2.74,0-.33.02-.8.26-.92.52-.35.79-.61,1.62-.8,2.46-.35,1.52-.66,3.05-.94,4.59-.11.64-.12,1.3-.11,1.95,0,.77.35,1.3,1.12,1.58,1.1.4,1.09.43.65,1.9-1.06,0-2.17,0-3.29,0-1.09,0-2.18.03-3.27,0-1.1-.03-2.24.18-3.34-.22.07-.86.39-1.33,1.07-1.74,1.16-.69,1.88-1.76,2.03-3.17.06-.55.29-1.08.46-1.61.06-.21.17-.4.21-.62.35-1.74.64-3.49,1.05-5.22.44-1.89.98-3.76,1.47-5.63.09-.34.13-.68.2-1.02.19-.84.41-1.68.59-2.53.12-.59.19-1.2.3-1.79.1-.51.16-1.04.36-1.51.77-1.82.16-3.11-1.74-3.63-.08-.02-.15-.08-.36-.2Zm5.02,13.19c1.41,0,2.49-.04,3.57,0,2.06.08,3.85-.69,5.61-1.64,2.24-1.21,3.39-4.43,3.03-6.59-.19-1.13-.71-2.25-1.76-2.75-1.18-.56-2.36-1.26-3.81-1.05-.81.12-1.65.02-2.48.02-1.5,0-1.74.24-2.04,1.75-.39,1.95-.83,3.89-1.25,5.83-.06.25-.19.49-.24.74-.21,1.14-.39,2.28-.63,3.68Z"/>
  <path d="m329.61,22.04c.18-.23.34-.37.43-.55.67-1.36,1.31-2.73,2.01-4.07.16-.31.54-.67.86-.71,1.37-.18,2.75-.15,4.1-.01.26.81.14,1.4-.31,1.96-1.17,1.46-2.33,2.92-3.47,4.4-1.03,1.34-2.08,2.67-3.03,4.07-.38.55-.7,1.25-.75,1.91-.15,1.95-.18,3.91-.21,5.86,0,.55-.01,1.23.62,1.47.65.25,1.34.3,1.95-.27.54-.5,1.18-.89,1.74-1.36.94-.81,1.16-.81,1.99.12.14.15.28.31.5.54-1.36,1.56-2.53,3.23-4.55,3.97-.75.99-1.85.76-2.86.76-2.04,0-3.58-1.46-3.7-3.51-.04-.74-.02-1.48-.05-2.22,0-.2-.1-.39-.2-.79-.56.63-.99,1.15-1.46,1.62-1.14,1.13-2.27,2.26-3.46,3.32-.4.35-.97.51-1.47.74-.11.05-.3.01-.37.09-1.38,1.41-3.1.65-4.66.62-.67-.01-1.46-.59-1.96-1.12-1.11-1.17-2.06-2.49-2.07-4.22,0-1.95-.09-3.92.11-5.86.13-1.27.61-2.53,1.09-3.72.72-1.77,1.77-3.35,3.01-4.82.94-1.12,2.15-1.86,3.23-2.78,1.01-.86,2.42-.66,3.37-1.54,2.47-.18,4.99-.62,7,1.45.71.73,1.28,1.53,1.48,2.55.15.76.41,1.49,1.08,2.11Zm-3.87,1.94s-.01,0-.02,0c0-.91.05-1.83-.01-2.74-.07-1.14-1.28-2.59-2.26-2.75-1.76-.29-3.28.28-4.61,1.4-1.2,1.01-2.06,2.27-2.86,3.64-1.3,2.2-1.39,4.7-2.15,7.03-.04.12-.01.26-.01.39,0,1.3.03,2.56.6,3.81.71,1.57,2.42,2.43,3.94,1.58,1.46-.81,2.95-1.65,3.89-3.15.75-1.21,1.69-2.32,2.35-3.57.6-1.13,1.24-2.3,1.15-3.67-.04-.65,0-1.3,0-1.96Z"/>
  <path d="m325.89,124.99c-.31-.86-.1-1.55.19-2.24.17-.4.36-.8.42-1.22.17-1.2.39-2.37.75-3.54.54-1.73.72-3.56,1.08-5.34.13-.63.33-1.25.5-1.87.05-.17.13-.33.16-.49.24-1.49.46-2.97.94-4.44.51-1.55.58-3.24,1.06-4.81.63-2.02,1.54-3.92,2.81-5.67,1.23-1.69,2.87-2.84,4.61-3.9.04-.02.07-.07.11-.07,2.05-.44,4-1.54,6.2-1.04,2.1.48,4.11,1.19,5.55,2.88,1.03,1.2,1.71,2.62,1.73,4.25.02,1.3.11,2.62-.03,3.91-.52,4.9-2.63,8.9-6.83,11.69-.56.37-1.08.69-1.74.79-.13.02-.29.04-.37.13-.72.86-1.71.69-2.65.69-1.48,0-2.96.02-4.44-.05-.49-.02-.96-.3-1.44-.46-.36-.12-.73-.32-1.1-.32-.23,0-.57.24-.67.45-.26.59-.48,1.22-.61,1.85-.45,2.16-.86,4.33-1.28,6.5-.04.21-.05.43-.1.64-.37,1.56-.72,1.83-2.31,1.78-.86-.03-1.72-.07-2.57-.1Zm21.52-25.77c0-.49-.02-.84,0-1.18.07-1.12-.18-2.16-.86-3.06-.83-1.11-1.89-1.83-3.34-1.95-.9-.08-1.53.51-2.29.72-.95.27-1.59.83-2.21,1.49-1.78,1.85-2.52,4.23-3.25,6.57-.55,1.77-.77,3.64-1.14,5.46-.07.34-.13.69-.27,1-.29.65-.2,1.21.12,1.85.45.89,1.19,1.47,2.04,1.69,2.29.59,4.53.49,6.44-1.17,1.43-1.25,2.4-2.81,3.16-4.53.5-1.13.58-2.37,1.01-3.47.46-1.19.49-2.36.59-3.42Z"/>
  <path d="m367.82,100.18c-1.26-.11-2.33-.08-3.33-.33-1.77-.43-3.01-1.64-3.91-3.18-.66-1.12-1.05-2.34-1.17-3.66-.08-.98-.46-1.93-.59-2.92-.1-.77-.09-1.57.03-2.33.21-1.37.42-2.77.86-4.07.77-2.25,2.05-4.19,4.26-5.34.26-.13.59-.13.88-.2.59-.15,1.17-.32,1.75-.46.38-.09.77-.27,1.13-.23,2.03.23,4.1.53,5.69,1.9,1.62,1.4,2.57,3.25,2.76,5.43.02.26.02.53.09.78.66,2.61.21,5.21-.21,7.76-.48,2.89-2.18,5.12-4.87,6.34-1.06.48-2.38.38-3.38.51Zm-4.49-11.46c-.22,2.3.31,4.51.83,6.7.28,1.2,1.04,2.34,2.3,2.6,2.37.48,3.7.38,4.79-2.08.31-.69.4-1.49.54-2.24.15-.76.1-1.59.38-2.29.42-1.07.5-2.22.18-3.19-.47-1.45-.48-2.9-.63-4.35-.13-1.33-.67-2.56-1.67-3.41-.61-.52-1.54-.9-2.34-.91-1.72-.02-3.31,1.43-3.69,3.14-.43,1.99-.92,3.98-.71,6.05Z"/>
  <path d="m360.46,10.89c0,1.09.15,2.2-.03,3.25-.42,2.41-1.11,4.73-3.12,6.38-.9.74-1.79,1.5-3.08,1.49-.29,0-.62.09-.86.25-1.06.72-2.14.53-3.24.17-.49-.16-.98-.35-1.48-.46-1.72-.36-2.89-1.42-3.8-2.86-1.75-2.75-1.76-5.81-1.77-8.91,0-1.78.38-3.48,1.01-5.07.69-1.74,1.74-3.28,3.55-4.27,1.73-.95,3.5-.89,5.3-.85,1.24.03,2.47.09,3.62.87,1.63,1.1,2.73,2.49,3.28,4.36.19.67.53,1.32.58,1.99.1,1.21.03,2.43.03,3.65,0,0,0,0,.01,0Zm-13.01-.53c.1,2.7-.01,5,.79,7.23.67,1.85,1.7,2.78,3.66,2.95,1.13.1,2.87-.89,3.28-1.93.61-1.54,1.07-3.11,1-4.8-.04-1.04,0-2.08,0-3.13,0-2.13-.05-4.22-.84-6.27-.63-1.61-1.51-2.44-3.21-2.49-.39-.01-.78.02-1.17.04-.69.03-1.21.33-1.67.87-1.03,1.21-1.48,2.64-1.66,4.16-.14,1.25-.14,2.51-.18,3.37Z"/>
  <path d="m240.92,50.61h41.14c.43,1,.51,2.25.23,4.09-.45.06-.95.18-1.45.18-12.81,0-25.61,0-38.42,0-.47,0-.95-.05-1.52-.08-.3-1.38-.22-2.7.02-4.19Z"/>
  <path d="m282.1,65.2c.47,1.3.3,2.48.29,3.64,0,.57-.41.72-.89.73-1,.03-2,.07-3,.07-12.02,0-24.04-.02-36.06-.04-.47,0-.94-.05-1.49-.08-.39-1.38-.25-2.69-.02-4.19.68-.04,1.36-.11,2.03-.11,9.19,0,18.38,0,27.57,0,3.35,0,6.71-.02,10.06-.03.51,0,1.02,0,1.51,0Z"/>
  <path d="m155.62,65.29c0,1.21.03,2.24,0,3.28-.03.85-.17.99-1,1.03-1.04.05-2.09.06-3.13.06-11.85,0-23.69-.02-35.54-.03-.17,0-.35,0-.52,0-1.38-.03-1.45-.1-1.48-1.51-.01-.56-.02-1.13.02-1.69.06-.95.22-1.1,1.2-1.17.48-.03.96-.01,1.44-.01,11.19,0,22.39,0,33.58,0,1.31,0,2.61-.03,3.92-.02.43,0,.85.04,1.53.08Z"/>
  <path d="m113.96,54.49c0-1.02,0-2.01,0-3.01,0-.58.31-.88.88-.92.39-.02.78-.04,1.18-.04,12.68,0,25.36-.01,38.04-.01.43,0,.86.04,1.34.07.38,1.25.23,2.46.18,3.65,0,.21-.33.5-.57.58-.36.11-.77.08-1.17.08-12.25,0-24.49,0-36.74-.01-.99,0-2.01.18-3.14-.39Z"/>
  <path d="m423.03,54.79v-4.19c.58-.03,1.05-.08,1.52-.08,12.72,0,25.45,0,38.17,0,.3,0,.61-.01.91.03.53.08.88.39.89.95.02.83.06,1.66-.01,2.47-.02.26-.34.62-.6.7-.49.15-1.03.17-1.54.18-8.45.02-16.91.02-25.36.03-4.05,0-8.1,0-12.16,0-.6,0-1.19-.06-1.82-.1Z"/>
  <path d="m423.01,69.65v-4.33c.64-.05,1.19-.12,1.74-.12,11.55,0,23.1.02,34.64.03,1.22,0,2.44-.04,3.66-.02,1.19.02,1.45.3,1.49,1.46.02.48.02.96,0,1.43-.03,1.16-.28,1.42-1.49,1.47-1,.05-2,.07-3.01.07-11.59,0-23.18,0-34.78,0-.69,0-1.38,0-2.27,0Z"/>
</svg>