<?xml version="1.0" encoding="UTF-8"?>
<svg id="Layer_1" data-name="Layer 1" xmlns="http://www.w3.org/2000/svg" viewBox="0 0 1163.67 59.17">
  <path d="m766.38,24.34c-.15.46.07.84.2,1.22.85,2.54,1.73,5.07,2.59,7.61.46,1.37.84,2.76,1.35,4.11.53,1.38,1.07,2.78,1.79,4.07.88,1.59,2.27,2.6,4.15,2.85.45.06.9.16,1.35.26.25.06.46.19.48.59-.13.07-.29.2-.47.23-.41.06-.83.09-1.24.09-2.58,0-5.16,0-7.74,0-.37,0-.74-.04-1.17-.06-.14-.38-.27-.72-.39-1.06-.68-2.03-1.35-4.07-2.03-6.1-.82-2.46-1.64-4.93-2.47-7.39-.47-1.41-.98-2.8-1.45-4.21-.13-.39-.23-.79-.33-1.19-.1-.4-.31-.69-.74-.71-1.29-.08-2.57-.17-3.86-.21-.62-.02-.8.16-.96.75-1,3.53-1.98,7.06-3,10.58-.39,1.34-.98,2.63-1.15,4.04-.09.73-.17,1.48-.16,2.21.01,1.21.32,1.62,1.51,1.94.8.22,1.63.3,2.45.43.37.06.63.2.65.69-.19.09-.4.23-.62.27-.37.05-.75.04-1.12.04-4.54,0-9.07,0-13.61.01-.25,0-.51.02-.75-.03-.19-.04-.35-.17-.62-.31.22-.22.35-.48.54-.52.44-.11.91-.11,1.36-.17,1.24-.15,2.37-.61,3.16-1.57.54-.66,1.03-1.43,1.29-2.23.87-2.58,1.63-5.19,2.41-7.79.81-2.68,1.59-5.38,2.38-8.07,1.36-4.63,2.71-9.25,4.06-13.88.37-1.27.67-2.54.81-3.87.12-1.08-.2-1.93-.93-2.69-.62-.65-1.35-1.08-2.2-1.36-.27-.09-.58-.15-.81-.3-.17-.12-.25-.38-.36-.55.29-.35.64-.34.96-.34,2.33-.01,4.66-.04,6.99-.02,2,.02,3.99.1,5.99.12,2.13.02,4.22.35,6.3.79,2.02.43,3.69,1.44,5.08,2.95.87.94,1.44,2.02,1.78,3.22,1.06,3.82.24,7.26-2.28,10.31-1.42,1.72-3.14,3.07-5.22,3.91-.88.36-1.82.58-2.73.86-.32.1-.64.19-.95.3-.11.04-.19.14-.27.21Zm-10-2.14c.36.09.62.2.9.23,1.82.22,3.65.22,5.47-.04,3.35-.48,5.86-2.23,7.6-5.04,1.55-2.51,1.84-5.26,1.28-8.11-.45-2.26-1.75-3.87-3.95-4.73-1.57-.62-3.2-.84-4.89-.7-.76.06-1.2.4-1.39,1.16-.47,1.79-.99,3.57-1.5,5.36-.4,1.39-.81,2.77-1.22,4.15-.74,2.52-1.33,5.09-2.3,7.73Z"/>
  <path d="m105.57,45.02c-.43.38-.97.34-1.51.34-1.41,0-2.83,0-4.24,0-3.25,0-6.49,0-9.74,0-.29,0-.58,0-.86-.06-.1-.02-.22-.15-.24-.25-.02-.1.02-.28.1-.33.2-.13.42-.27.65-.31.41-.08.83-.07,1.24-.13,1.62-.23,2.87-.95,3.64-2.46.71-1.41,1.21-2.89,1.66-4.39.78-2.56,1.53-5.13,2.28-7.7.6-2.06,1.19-4.12,1.79-6.17,1.06-3.6,2.14-7.19,3.19-10.79.41-1.38.8-2.77,1.14-4.18.17-.72.25-1.46.29-2.2.06-.88-.41-1.58-.99-2.19-.61-.64-1.38-1.05-2.24-1.29-.28-.08-.56-.15-.82-.28-.28-.14-.43-.38-.25-.79.28-.03.61-.08.93-.09,4.7-.1,9.4-.02,14.1.1,1.4.04,2.8.35,4.19.62.93.18,1.88.41,2.75.79,2.85,1.24,4.65,3.37,5.27,6.43.56,2.75.1,5.35-1.33,7.74-1.74,2.91-4.29,4.89-7.54,5.96-.59.2-1.2.33-1.8.51-.35.11-.69.25-1.05.39.01.22,0,.39.04.54.33,1.06.68,2.12,1.03,3.18.61,1.84,1.17,3.69,1.84,5.51.79,2.12,1.33,4.34,2.35,6.38.28.55.53,1.12.85,1.65.9,1.52,2.25,2.38,4,2.67.45.07.9.15,1.35.26.29.07.53.25.57.63-.22.08-.44.19-.68.22-.29.04-.58.03-.87.03-2.62,0-5.24,0-7.86.01-.21,0-.42,0-.62,0-.42-.02-.69-.22-.82-.63-.19-.59-.41-1.16-.61-1.75-.82-2.46-1.64-4.93-2.46-7.39-.81-2.42-1.64-4.84-2.46-7.26-.33-.98-.65-1.95-.96-2.94-.14-.45-.42-.7-.88-.75-1.4-.13-2.8-.34-4.28-.23-.1.22-.22.43-.28.65-.15.51-.27,1.03-.42,1.54-1.15,3.83-2.32,7.65-3.47,11.48-.37,1.23-.61,2.48-.62,3.77,0,.95.44,1.58,1.24,1.96.4.2.86.29,1.31.37.53.1,1.07.12,1.61.19.33.05.53.22.49.62Zm.84-22.72c.2.05.4.11.6.14,1.78.23,3.56.22,5.35,0,4.37-.54,7.87-3.54,8.98-7.66.17-.63.22-1.3.32-1.95.27-1.84-.02-3.6-.76-5.3-.67-1.54-1.83-2.53-3.38-3.08-1.34-.48-2.74-.69-4.17-.64-1.65.06-1.87.23-2.32,1.82-.65,2.3-1.3,4.6-1.95,6.9-.89,3.09-1.78,6.18-2.67,9.27-.04.15,0,.32,0,.52Z"/>
  <path d="m1137.19,46.65c-.47-.39-.99-.38-1.47-.44-1.46-.19-2.84-.62-4.19-1.18-1.54-.64-2.81-1.63-3.68-3.03-.69-1.13-1.16-2.37-1.37-3.69-.47-3.03-.24-5.99.89-8.87.51-1.31,1.01-2.63,1.77-3.81,1-1.56,2.07-3.08,3.34-4.45,1.94-2.1,4.27-3.65,6.82-4.91.82-.41,1.67-.73,2.58-.9.9-.17,1.79-.36,2.69-.53.36-.07.73-.18,1.18.06-.07.16-.09.4-.21.48-.31.19-.66.34-1.01.46-2.33.82-4.27,2.2-5.92,4-.99,1.07-1.75,2.31-2.45,3.57-1.17,2.1-2.03,4.33-2.81,6.59-.48,1.4-.87,2.85-1.11,4.31-.22,1.37-.41,2.78-.13,4.18.04.2.07.41.07.61-.03,1.24.44,2.35.97,3.41.71,1.41,1.94,2.23,3.47,2.6.3.07.64.01,1.01.01.37-1.06.71-2.07,1.06-3.07,1.34-3.9,2.69-7.8,4.03-11.69.71-2.06,1.39-4.14,2.15-6.19.58-1.54,1.16-3.08,2.06-4.49,1.82-2.88,4.42-4.51,7.8-4.96,1.64-.22,3.12.33,4.55,1.04.98.48,1.77,1.17,2.42,2.07,1.64,2.27,2.16,4.79,1.92,7.5-.16,1.9-.67,3.72-1.4,5.49-1.04,2.5-2.44,4.77-4.26,6.79-.55.61-1.02,1.3-1.6,1.9-2.36,2.45-5.09,4.39-8.37,5.43-1.85.59-3.74,1.11-5.7,1.3-.53.05-1.07.14-1.65.21-.45,1.34-.9,2.66-1.35,3.98-.75,2.18-1.51,4.36-2.27,6.54-.19.55-.36,1.1-.55,1.64-.1.3-.32.5-.64.51-.87.02-1.74.01-2.61,0-.07,0-.13-.09-.27-.18.02-1.06.69-1.96.97-2.97.29-1.07.69-2.12,1.05-3.17.34-1.02.67-2.04,1.04-3.04.36-1.01.76-2,1.18-3.09Zm3.86-1.52c.19.08.33.21.48.2.58-.01,1.17,0,1.73-.12,1.55-.34,3-.95,4.36-1.78,3.05-1.86,5.35-4.39,7.04-7.5,1.61-2.97,2.79-6.07,3.01-9.46.13-1.95,0-3.85-.95-5.65-.59-1.12-1.49-1.73-2.66-2.05-.58-.16-1.14-.11-1.71.1-1.23.47-2.09,1.33-2.7,2.45-.7,1.27-1.26,2.59-1.71,3.97-.41,1.25-.83,2.5-1.25,3.75-.86,2.49-1.71,4.99-2.58,7.47-.99,2.83-2.01,5.66-3.06,8.62Z"/>
  <path d="m897.87,46.44c-.76,2.15-1.5,4.2-2.21,6.26-.59,1.71-1.15,3.44-1.73,5.16-.09.27-.18.55-.28.82-.1.25-.3.42-.56.43-.87.02-1.74.03-2.61.02-.1,0-.2-.13-.33-.23.14-1.07.73-2,1.02-3.02.3-1.07.69-2.11,1.05-3.17.34-1.02.68-2.04,1.04-3.04.36-1,.75-1.99,1.16-3.05-.22-.09-.39-.2-.58-.24-.77-.16-1.56-.25-2.32-.45-.92-.24-1.84-.53-2.72-.88-2.48-1-4.05-2.86-4.75-5.37-.91-3.22-.78-6.45.33-9.61.46-1.32.96-2.63,1.68-3.85,1.05-1.78,2.24-3.46,3.63-5,1.89-2.08,4.19-3.62,6.69-4.87.9-.45,1.82-.8,2.81-.99.9-.17,1.79-.36,2.69-.52.28-.05.58-.04.86-.03.06,0,.16.09.17.14.02.11.02.26-.05.33-.1.12-.25.21-.4.28-.34.15-.69.28-1.04.41-2.32.86-4.24,2.28-5.82,4.13-.85,1-1.57,2.13-2.22,3.28-1.2,2.13-2.07,4.41-2.86,6.71-.47,1.36-.84,2.77-1.07,4.19-.23,1.37-.4,2.78-.14,4.18.04.2.08.41.07.61-.05,1.24.43,2.35.96,3.42.73,1.46,1.99,2.3,3.57,2.65.27.06.57,0,.82,0,.11-.16.21-.25.24-.36,1.1-3.19,2.2-6.39,3.3-9.59,1.27-3.7,2.51-7.42,3.83-11.11.54-1.51,1.13-3,2-4.38,1.81-2.88,4.4-4.53,7.78-4.99,1.73-.23,3.28.34,4.77,1.13.89.47,1.61,1.12,2.21,1.94,1.68,2.3,2.2,4.86,1.94,7.62-.18,1.85-.67,3.64-1.38,5.37-1.03,2.5-2.44,4.77-4.25,6.79-.55.62-1.02,1.3-1.59,1.9-2.41,2.53-5.22,4.49-8.59,5.53-1.82.56-3.67,1.08-5.59,1.24-.49.04-.99.13-1.54.2Zm.38-1.33c.19.08.37.23.55.23.58-.01,1.17,0,1.73-.14,1.55-.35,3-.97,4.35-1.8,3-1.84,5.28-4.35,6.96-7.42,1.64-3,2.84-6.14,3.05-9.58.11-1.9-.01-3.77-.93-5.53-.63-1.21-1.6-1.85-2.87-2.15-.5-.12-.98-.05-1.47.13-1.19.44-2.08,1.23-2.66,2.31-.55,1.01-1.06,2.06-1.47,3.13-.74,1.97-1.39,3.96-2.07,5.95-1.01,2.96-2.01,5.93-3.03,8.89-.69,1.98-1.41,3.94-2.14,5.97Z"/>
  <path d="m260.11,58.89c.37-1.06.72-2.07,1.07-3.08.78-2.26,1.56-4.52,2.36-6.78.22-.62.52-1.21.78-1.82.18-.44.05-.72-.41-.83-.32-.08-.65-.15-.98-.19-1.5-.18-2.92-.65-4.3-1.24-2.06-.87-3.45-2.38-4.29-4.43-.55-1.36-.77-2.77-.84-4.22-.14-3.12.59-6.03,1.93-8.85,1.74-3.66,4.29-6.66,7.5-9.09,2.73-2.07,5.86-3.26,9.3-3.58.12-.01.26-.04.37,0,.14.05.33.16.34.27.01.12-.11.29-.23.39-.12.1-.29.15-.45.21-.61.25-1.22.53-1.85.74-.84.29-1.54.79-2.24,1.32-2.47,1.87-4.22,4.29-5.51,7.07-1.29,2.78-2.35,5.63-3.01,8.63-.47,2.16-.62,4.33-.17,6.51.11.56.28,1.12.45,1.67.51,1.66,1.71,2.69,3.27,3.34.27.11.55.2.83.24.65.1.91-.09,1.11-.71.59-1.8,1.17-3.61,1.78-5.4.97-2.89,1.9-5.8,2.96-8.66,1.12-3.01,1.97-6.13,3.34-9.05.98-2.1,2.35-3.89,4.33-5.16,1.45-.94,3.07-1.58,4.8-1.53,3.28.09,5.83,1.53,7.35,4.5.71,1.37,1.03,2.82,1.08,4.39.09,2.8-.53,5.42-1.66,7.92-.92,2.03-2.09,3.93-3.54,5.65-1.5,1.77-3.07,3.47-4.92,4.9-1.89,1.47-3.99,2.52-6.3,3.17-.92.26-1.85.47-2.78.7-.85.21-1.71.34-2.59.34-1.03,0-1.13.08-1.44.99-.56,1.64-1.1,3.28-1.66,4.92-.54,1.6-1.1,3.2-1.62,4.81-.2.62-.64,1.14-.69,1.84-.02.31-.39.4-.7.38-.87-.04-1.74-.09-2.61-.15-.04,0-.07-.04-.2-.13Zm8.29-13.86c.13.06.27.15.42.19.79.22,1.57.06,2.33-.17,1.28-.38,2.47-.94,3.64-1.59,2.3-1.28,4.1-3.09,5.62-5.16,1.39-1.9,2.48-3.99,3.25-6.22.66-1.91,1.19-3.85,1.31-5.89.09-1.62-.1-3.2-.69-4.73-.42-1.09-1.13-1.9-2.18-2.43-1.09-.55-2.17-.51-3.2.13-.85.53-1.58,1.23-2.03,2.13-.41.81-.8,1.63-1.1,2.48-1.37,3.88-2.69,7.78-4.05,11.66-.98,2.8-2.02,5.58-3.02,8.36-.14.38-.38.74-.29,1.22Z"/>
  <path d="m361.55,19.35c-1.81-2.06-3.44-3.98-4.74-6.15-.05-.09,0-.23,0-.41.91-.11,1.81-.17,2.72-.1.44.03.78.24,1.07.57,4.71,5.46,10.28,9.96,16.08,14.2.43.32.93.54,1.38.85.72.51.79,1.92.14,2.52-.12.11-.26.2-.41.29-4.27,2.54-8.04,5.7-11.64,9.09-1.84,1.74-3.6,3.54-5.24,5.46-.41.48-.87.73-1.51.71-.67-.02-1.33,0-2-.02-.18,0-.36-.12-.58-.2,1.21-2.46,3.18-4.26,4.89-6.38-.25-.11-.42-.23-.6-.24-.66-.05-1.33-.09-1.99-.09-12.32,0-24.64,0-36.97,0-.96,0-1.91.04-2.87.03-.62,0-.83-.21-.81-.84.02-.69-.07-1.4.15-2.15.28-.04.55-.13.83-.13,11.53,0,23.06,0,34.59.01,3.08,0,6.16.06,9.24.07,2.28.01,2.27-.01,4.05-1.45,1.51-1.23,3.04-2.44,4.58-3.63.46-.35.98-.63,1.47-.94.2-.13.4-.28.66-.46-.2-.27-.32-.53-.53-.7-.83-.68-1.7-1.33-2.54-2-1.55-1.25-3.12-2.47-4.63-3.77-.67-.58-1.37-.89-2.25-.87-1.17.02-2.33,0-3.5,0-12.99,0-25.98,0-38.97,0-.75,0-1.5.04-2.25.03-.72,0-.94-.19-.92-.86.02-.69-.08-1.39.15-2.14.29-.04.57-.12.84-.12,12.2,0,24.39,0,36.59,0,1.5,0,3,0,4.49,0,.28,0,.56-.08,1.02-.14Z"/>
  <path d="m521.09,24.21c.33.17.52.06.68-.18.54-.83,1.1-1.65,1.63-2.49,1.07-1.71,2.13-3.44,3.19-5.16.25-.42.58-.71,1.09-.71,1.37,0,2.73,0,4.1,0,.03,0,.06.05.13.1.05.68-.32,1.24-.67,1.79-1.92,2.99-3.86,5.96-5.78,8.95-1.45,2.26-2.87,4.54-4.3,6.81-.69.61-.74,1.45-.79,2.27-.08,1.23-.16,2.47-.16,3.71,0,.61.13,1.22.26,1.83.14.68.63,1.05,1.3,1.18,1.02.19,2,.09,2.87-.5,1.18-.8,2.21-1.76,2.86-3.05.25-.5.57-.91,1.02-1.22.11-.07.34-.07.45,0,.1.07.17.27.16.41-.01.2-.08.41-.18.59-.65,1.2-1.25,2.43-2,3.56-1.03,1.56-2.25,2.97-4.02,3.79-.61.28-1.24.46-1.92.49-1.96.09-2.97-1.02-3.26-2.57-.25-1.35-.3-2.7-.11-4.06.07-.48.09-.97.14-1.51-.21.03-.37,0-.43.06-.67.67-1.33,1.36-1.99,2.05-2.62,2.69-5.63,4.79-9.34,5.69-1.61.39-3.3.37-4.97.23-1.39-.12-2.69-.5-3.95-1.08-1.39-.63-2.36-1.64-2.91-3.07-.57-1.48-.87-2.98-.92-4.58-.1-2.92.67-5.63,1.72-8.3,1.35-3.43,3.41-6.41,6.13-8.92,1.8-1.66,3.85-3.03,6.08-4.08,1.97-.93,4.06-1.53,6.25-1.52,1.93,0,3.67.66,5.12,1.97,1.12,1.02,1.69,2.34,2,3.77.22,1.05.44,2.1.42,3.18,0,.2.08.39.11.55Zm-2.29,1.76s0,0-.01,0c0-.54.02-1.07,0-1.61-.09-2.27-.54-4.4-2.31-6.07-1.38-1.3-3.48-2.11-5.73-1.18-2.19.9-3.88,2.38-5.31,4.18-1.79,2.25-2.99,4.84-4.08,7.48-.55,1.33-1.03,2.7-1.46,4.07-.58,1.85-1.05,3.73-1.23,5.67-.11,1.21.06,2.4.64,3.48.79,1.48,1.96,2.41,3.76,2.42,1.28,0,2.47-.26,3.58-.88,1.5-.84,2.78-1.94,3.9-3.23,1.11-1.28,2.15-2.61,3.16-3.97,1.01-1.36,1.91-2.78,2.86-4.18.63-.92,1.2-1.88,1.82-2.8.29-.43.42-.88.41-1.4-.01-.66,0-1.32,0-1.98Z"/>
  <path d="m691.25,24.44c.65-.47.92-.98,1.23-1.45.55-.82,1.07-1.67,1.6-2.51.55-.87,1.11-1.74,1.66-2.61.24-.39.5-.77.66-1.19.29-.78.85-1.06,1.65-1.04.79.02,1.58,0,2.37,0,.49,0,.99.01,1.51.02.17.56-.08.94-.31,1.32-.61.98-1.23,1.96-1.85,2.93-.89,1.39-1.79,2.78-2.68,4.17-1.45,2.26-2.9,4.52-4.36,6.77-.6.94-1.22,1.86-1.84,2.79-.28.42-.45.88-.48,1.39-.08,1.4-.16,2.8-.24,4.2-.04.71.12,1.39.36,2.05.22.6.65.94,1.28,1.04,1.11.18,2.15.04,3.08-.66,1.06-.81,2.04-1.68,2.66-2.9.18-.36.47-.68.73-1,.1-.12.26-.19.41-.26.2-.09.46.1.42.3-.05.24-.1.49-.21.7-.61,1.17-1.17,2.37-1.87,3.49-.83,1.35-1.92,2.49-3.21,3.42-.9.64-1.92.97-3.04.97-1.47,0-2.56-.8-2.94-2.2-.31-1.16-.31-2.36-.29-3.56.01-.73,0-1.47,0-2.21-.23-.14-.4,0-.53.16-.62.67-1.18,1.39-1.84,2.01-1.44,1.37-2.95,2.67-4.7,3.65-1.05.59-2.12,1.13-3.29,1.46-3.44.96-6.8.9-10.1-.57-1.42-.63-2.35-1.68-2.91-3.07-.52-1.27-.83-2.59-.8-3.97.01-.58.02-1.15.01-1.73-.03-1.58.27-3.12.73-4.62.68-2.21,1.62-4.31,2.83-6.3,2.59-4.27,6.24-7.34,10.77-9.41,1.82-.83,3.77-1.39,5.79-1.31,1.9.07,3.68.64,5.09,2.02,1.1,1.08,1.73,2.41,2.01,3.89.18.97.29,1.96.43,2.93.04.23.11.46.21.87Zm-2.5,1.5h.06c0-.54.02-1.07,0-1.6-.1-1.91-.37-3.73-1.65-5.32-1.84-2.29-4.14-2.9-6.85-1.69-1.99.89-3.57,2.28-4.85,3.97-1.79,2.35-3.07,4.98-4.14,7.71-.45,1.15-.88,2.31-1.25,3.49-.63,1.96-1.16,3.96-1.36,6.02-.13,1.35.15,2.64.84,3.81.63,1.07,1.56,1.85,2.84,2.02,1.47.19,2.9.05,4.22-.72.97-.57,1.85-1.25,2.68-2.01,2-1.83,3.6-3.98,5.14-6.17,1.33-1.89,2.53-3.86,3.8-5.79.4-.6.62-1.24.55-1.98-.05-.57-.01-1.15-.01-1.73Z"/>
  <path d="m1021.78,33.54c-.22,1.45-.83,2.68-1.25,3.96-.42,1.29-.95,2.55-1.42,3.82-.46,1.28-.91,2.56-1.37,3.85-.26.27-.6.19-.93.19-2.08-.01-4.16-.05-6.24-.05-3.87,0-7.74.03-11.61.04-4,0-7.99.02-11.99.01-.48,0-1.01.11-1.42-.28.03-.44.36-.55.68-.6.45-.07.91-.08,1.37-.13.71-.06,1.39-.2,2.04-.51,1.3-.62,1.97-1.74,2.47-2.98.81-1.99,1.34-4.07,1.95-6.12,1.13-3.79,2.22-7.6,3.33-11.4.66-2.26,1.3-4.52,1.97-6.77.66-2.21,1.34-4.42,2-6.63.41-1.39.68-2.8.81-4.25.1-1.09-.35-1.8-1.3-2.3-.87-.46-1.78-.67-2.76-.63-.28.01-.62.06-.73-.31-.08-.28.2-.59.61-.64.62-.07,1.24-.13,1.86-.13,3.37.02,6.74.07,10.11.1,1.25.01,2.5-.01,3.75-.01.37,0,.75.02,1.12.06.22.02.39.13.43.37.03.23-.15.43-.46.48-.29.05-.58.06-.87.1-.49.07-.99.13-1.48.21-2.25.35-3.64,1.68-4.32,3.79-.22.67-.4,1.34-.6,2.01-.57,1.89-1.14,3.79-1.71,5.68-.81,2.73-1.62,5.45-2.44,8.18-.83,2.76-1.67,5.53-2.49,8.29-.85,2.89-1.7,5.77-2.52,8.67-.17.59-.24,1.21-.3,1.83-.07.8.24,1.43,1.29,1.71.6.16,1.23.22,1.85.23,2.12.03,4.25.04,6.37,0,1.84-.03,3.64-.32,5.35-1.05,2.18-.93,3.84-2.42,5.07-4.41.74-1.19,1.48-2.39,2.25-3.55.22-.33.56-.6.89-.84.12-.09.36,0,.61.01Z"/>
  <path d="m215.29,30.06c-.04,3.23-.86,6.25-2.39,9.11-1.1,2.05-2.62,3.73-4.52,5.03-1.58,1.08-3.36,1.8-5.31,2-1.41.14-2.82.2-4.23,0-3.55-.49-6.44-2.03-8.56-4.97-1.08-1.49-1.93-3.09-2.54-4.79-.49-1.36-.82-2.77-.76-4.24.02-.54.04-1.07,0-1.61-.15-2.5.5-4.81,1.53-7.06.34-.75.68-1.49,1.11-2.21,1.32-2.23,3.11-3.96,5.48-5.05,2.05-.94,4.19-1.72,6.48-1.56,3.16.23,6.16,1.07,8.54,3.31,1.86,1.75,3.28,3.81,4.2,6.21.72,1.88.98,3.82.98,5.82Zm-6.14,2.53c0-1.13.14-2.69-.14-4.25-.32-1.82-.52-3.67-1.41-5.35-.39-.73-.74-1.47-1.11-2.21-.83-1.66-2.15-2.81-3.84-3.55-2.49-1.1-4.71-.47-6.74,1.12-.35.28-.69.62-.92,1-1.33,2.16-2.02,4.51-2.06,7.03-.02,1.32.03,2.64.05,3.96.06,3.58,1.02,6.91,2.79,10.02.81,1.42,1.92,2.6,3.4,3.36,1.76.92,3.6.89,5.44.25.38-.13.75-.37,1.07-.62,1.73-1.35,2.82-3.09,3.2-5.27.29-1.68.28-3.36.28-5.49Z"/>
  <path d="m1063.07,30.92c-.13-2.14.28-4.24,1.04-6.26,1.01-2.7,2.45-5.12,4.79-6.95,1.16-.91,2.43-1.58,3.82-2.06,1.73-.6,3.5-1.16,5.36-.93,3.29.4,6.31,1.37,8.7,3.84,1.95,2.01,3.33,4.31,4.06,6.98.22.79.37,1.61.44,2.43.33,3.95-.31,7.71-2.28,11.22-1.01,1.79-2.28,3.35-3.9,4.61-1.85,1.43-3.96,2.21-6.3,2.43-1.21.11-2.4.1-3.61.01-1.01-.08-1.97-.32-2.91-.65-1.87-.66-3.55-1.6-4.88-3.1-.99-1.12-1.86-2.33-2.54-3.66-.57-1.1-1.02-2.25-1.34-3.45-.39-1.45-.54-2.92-.43-4.45Zm22.24,1.91c0-.47,0-1.04,0-1.62-.06-3.72-.75-7.27-2.73-10.5-.93-1.52-2.14-2.7-3.79-3.44-2.55-1.14-4.77-.49-6.83,1.14-.56.44-.97,1.01-1.26,1.66-.17.38-.38.73-.54,1.11-.46,1.1-.83,2.22-.97,3.43-.19,1.65-.16,3.29-.14,4.93.04,3.72.88,7.25,2.67,10.54.74,1.36,1.73,2.51,3.04,3.36,2.03,1.32,4.16,1.2,6.32.4.34-.13.64-.38.93-.61,1.71-1.4,2.6-3.26,3.03-5.38.33-1.63.31-3.27.28-5.03Z"/>
  <path d="m820.2,30.87c-.05-2.14.36-4.2,1.1-6.18,1.02-2.75,2.48-5.22,4.88-7.03.53-.4,1.08-.78,1.67-1.08,2.2-1.13,4.52-2.01,7.03-1.86,3.45.22,6.58,1.26,9.08,3.82,1.99,2.03,3.37,4.38,4.11,7.09.19.71.33,1.45.4,2.19.29,3.25-.04,6.41-1.34,9.45-.78,1.84-1.79,3.52-3.17,5-1.38,1.48-2.98,2.62-4.92,3.27-3.94,1.32-7.78,1.03-11.51-.75-1.29-.62-2.35-1.57-3.26-2.65-2.07-2.45-3.43-5.25-3.9-8.43-.14-.93-.12-1.89-.17-2.83Zm22.31,1.95c0-.45,0-1.03,0-1.61-.06-3.72-.76-7.27-2.73-10.5-.95-1.56-2.21-2.75-3.91-3.49-2.46-1.06-4.62-.43-6.63,1.1-.6.46-1.05,1.05-1.35,1.75-.16.38-.4.73-.54,1.11-.31.89-.7,1.78-.85,2.7-.41,2.41-.33,4.84-.19,7.27.06.94.17,1.89.37,2.81.49,2.17,1.18,4.28,2.27,6.25.79,1.44,1.88,2.62,3.32,3.43,1.95,1.1,3.98.98,6,.2.34-.13.65-.37.93-.61,1.72-1.4,2.6-3.26,3.03-5.38.33-1.63.31-3.27.28-5.04Z"/>
  <path d="m795.97,26.93c-.03,2.7.3,4.97,1.26,7.12.73,1.63,1.59,3.17,2.96,4.38,1.22,1.08,2.6,1.79,4.26,1.83,1.08.03,2.16.05,3.24-.02.65-.04,1.31-.23,1.94-.43,1.41-.44,2.48-1.33,3.21-2.59.43-.75.82-1.52,1.24-2.28.18-.32.36-.65.58-.94.19-.24.65-.32.78-.14.14.18.18.43.25.65.02.07-.02.16-.05.24-.47,1.41-.83,2.86-1.42,4.22-1.38,3.11-3.63,5.4-6.89,6.61-2.8,1.04-5.59,1.11-8.37-.15-1.3-.59-2.52-1.28-3.58-2.22-1.33-1.17-2.3-2.61-3.02-4.2-1.7-3.76-2-7.71-1.44-11.75.24-1.72.78-3.39,1.61-4.92,1.27-2.32,3.03-4.21,5.34-5.59,2.31-1.39,4.83-2.12,7.48-2,2.99.13,5.69,1.18,7.76,3.45,1.03,1.13,1.71,2.43,1.66,4.02-.03.84-.77,1.91-1.57,2.18-.81.28-1.63.27-2.46.09-.51-.11-.93-.36-1.26-.75-.65-.77-1.21-1.58-1.24-2.64,0-.24-.1-.49-.12-.73-.08-1-.51-1.82-1.27-2.46-.85-.71-1.81-1.2-2.94-1.21-2.31-.01-4.23.83-5.62,2.68-1.27,1.69-2.05,3.58-2.21,5.69-.06.74-.08,1.48-.1,1.86Z"/>
  <path d="m1058.35,33.77c.27.44.24.83.14,1.18-.63,2.22-1.2,4.49-2.63,6.36-3,3.91-6.96,5.6-11.91,4.82-2.88-.8-5.38-2.2-7.15-4.66-1.86-2.58-2.86-5.46-3.01-8.63-.05-1.07-.08-2.14-.09-3.21-.02-2.35.48-4.61,1.52-6.7,2.04-4.1,5.26-6.83,9.85-7.83.81-.18,1.64-.37,2.46-.37,3.2,0,6.03,1,8.37,3.23.74.7,1.21,1.59,1.6,2.48.31.71.35,1.55.13,2.31-.25.86-.78,1.54-1.76,1.71-.04,0-.08.02-.12.03-2.38.45-3.78-.36-4.5-3.07-.15-.56-.21-1.13-.3-1.7-.11-.68-.46-1.22-.98-1.68-1.58-1.38-3.36-1.72-5.34-1.01-1.31.47-2.53,1.12-3.32,2.29-.6.88-1.13,1.83-1.55,2.81-.93,2.14-.96,4.41-.78,6.68.13,1.73.48,3.42,1.14,5.04.66,1.62,1.54,3.1,2.81,4.33,1.29,1.26,2.8,2.02,4.65,2.12,1.54.08,3.07.09,4.58-.32,1.74-.47,3.03-1.49,3.87-3.07.4-.76.92-1.47,1.17-2.31.16-.53.57-.77,1.18-.82Z"/>
  <path d="m182.08,33.76c.29.52.21.97.08,1.4-.43,1.51-.9,3-1.57,4.42-1.09,2.33-2.83,4.05-5.06,5.29-2.24,1.25-4.66,1.67-7.23,1.35-1.65-.21-3.1-.93-4.5-1.74-2.07-1.21-3.5-2.99-4.57-5.1-1.18-2.33-1.75-4.79-1.78-7.38,0-.58-.03-1.15-.05-1.73-.09-2.48.38-4.86,1.41-7.09.92-2,2.2-3.76,3.94-5.18,2.29-1.87,4.91-2.92,7.83-3.24,2.39-.26,4.62.37,6.71,1.49,1.57.84,2.8,2.02,3.63,3.62.49.94.6,1.91.39,2.87-.19.86-.74,1.56-1.73,1.73-.37.06-.74.09-1.11.13-1.32.13-2.23-.47-2.89-1.55-.35-.57-.61-1.16-.68-1.84-.06-.53-.18-1.05-.28-1.58-.11-.59-.41-1.07-.85-1.48-1.58-1.46-3.4-1.83-5.42-1.12-1.27.44-2.44,1.08-3.26,2.18-.7.92-1.25,1.94-1.68,3.02-.85,2.12-.91,4.34-.74,6.57.13,1.73.47,3.42,1.14,5.04.68,1.66,1.58,3.17,2.89,4.42,1.27,1.21,2.75,1.95,4.55,2.05,1.54.08,3.07.1,4.58-.31,1.74-.47,3.04-1.47,3.88-3.06.4-.76.93-1.46,1.18-2.31.15-.53.56-.78,1.2-.85Z"/>
  <path d="m221.24,46.29c-.22-1.29-.32-5.5-.24-9.01,0-.24.07-.48.11-.71.76-.13.93-.08,1.12.42.31.81.53,1.66.91,2.42,1.62,3.19,4.23,4.87,7.85,4.98.17,0,.33-.02.5,0,1.65.14,2.88-.63,3.93-1.78.82-.89.92-2,.87-3.13-.08-1.68-.93-2.95-2.23-3.97-1.31-1.03-2.73-1.88-4.2-2.66-1.28-.68-2.57-1.36-3.85-2.04-1.03-.54-2.01-1.18-2.84-1.99-1.36-1.33-2.1-2.94-2.14-4.85,0-.25.01-.5,0-.74-.19-3.19,1.86-6.35,5.09-7.64,1.47-.59,3-1.02,4.62-.85.7.07,1.39.22,2.09.35.94.17,1.88.37,2.82.52.81.13,1.57.02,2.23-.54.12-.11.27-.19.42-.26.29-.14.61.02.66.33.02.12.03.25.03.37.01,2.72.02,5.44.03,8.16,0,.24-.04.48-.06.77-.18.06-.33.14-.48.14-.48,0-.67-.09-.75-.48-.24-1.14-.76-2.17-1.21-3.23-.86-2-2.39-3.21-4.43-3.87-1.53-.49-3.02-.44-4.5.19-1.31.56-2.14,1.53-2.61,2.83-.09.26-.12.57-.1.85.17,1.73.85,3.2,2.37,4.15,1.2.74,2.45,1.4,3.7,2.05,1.29.67,2.62,1.25,3.91,1.92,1.44.75,2.81,1.62,3.94,2.79,1.28,1.32,2.08,2.88,2.22,4.72.09,1.16.07,2.31-.26,3.43-.35,1.22-1,2.25-1.87,3.17-1.35,1.41-2.94,2.46-4.83,2.93-1.41.35-2.88.37-4.34.27-1.71-.11-3.39-.32-5.05-.75-.24-.06-.49-.1-.73-.14-.52-.08-1,0-1.39.37-.34.33-.73.51-1.29.51Z"/>
  <path d="m854.55,46.36c-.06-.24-.14-.39-.14-.55-.03-2.97-.05-5.93-.06-8.9,0-.11.09-.22.13-.32.85-.09,1.02,0,1.22.65.19.59.34,1.19.57,1.76,1.03,2.53,2.93,4.17,5.48,5.06,1.48.52,3.07.53,4.56.14,2.21-.57,3.69-2.63,3.25-5.13-.25-1.43-.95-2.6-2.15-3.5-2.07-1.55-4.31-2.8-6.62-3.95-1.41-.71-2.8-1.45-4-2.5-1.05-.92-1.84-2.01-2.22-3.37-.03-.12-.09-.23-.11-.36-.22-2.54-.25-5.05,1.47-7.19.38-.48.81-.95,1.29-1.33,1.9-1.48,4.09-2.18,6.49-2.17.78,0,1.56.2,2.34.35.73.14,1.45.36,2.19.5.45.09.91.12,1.36.15.57.04,1.06-.15,1.49-.51.16-.13.31-.28.47-.39.22-.15.54,0,.54.28.03,1.03.06,2.06.06,3.09,0,1.77-.02,3.55-.04,5.32,0,.29-.03.58-.1.85-.04.13-.21.33-.32.32-.17,0-.41-.11-.5-.25-.15-.24-.21-.53-.3-.81-.46-1.41-.99-2.8-1.84-4.04-1.66-2.42-5.11-3.54-7.86-2.54-.58.21-1.13.53-1.62.91-1.01.79-1.46,1.84-1.4,3.15.08,1.72,1,2.94,2.31,3.91.56.42,1.19.76,1.82,1.08,2,1.02,4.02,1.99,6.01,3.02,1.29.67,2.54,1.45,3.55,2.49,1.58,1.63,2.57,3.52,2.46,5.87-.05,1.08-.13,2.13-.54,3.15-.86,2.09-2.44,3.49-4.36,4.59-1.97,1.12-4.11,1.21-6.3,1.11-1.79-.08-3.56-.36-5.3-.77-.16-.04-.33-.07-.49-.11-.61-.15-1.15-.07-1.6.41-.29.3-.64.51-1.21.52Z"/>
  <path d="m1097.43,46.33c-.07-.09-.14-.15-.16-.22-.04-.12-.06-.24-.06-.36-.03-2.93-.05-5.85-.06-8.78,0-.12.07-.23.1-.34.83-.16,1.04-.06,1.24.57.2.63.36,1.27.61,1.88,1.05,2.52,2.96,4.15,5.52,5.02,1.45.49,2.98.49,4.44.14,2.21-.53,3.78-2.65,3.3-5.21-.27-1.43-.99-2.58-2.19-3.48-2.04-1.52-4.26-2.73-6.51-3.89-1.07-.55-2.13-1.12-3.13-1.8-1.47-.99-2.62-2.28-3.12-4.04-.03-.12-.1-.23-.11-.35-.3-2.77-.21-5.46,1.8-7.69.44-.49.95-.94,1.5-1.29,2.33-1.44,4.83-2.2,7.6-1.56.93.21,1.86.44,2.8.64.36.08.74.12,1.11.15.74.07,1.4-.08,1.94-.64.11-.12.26-.2.4-.29.16-.1.45.06.48.25.01.08.02.16.02.25,0,2.72,0,5.44,0,8.16,0,.29,0,.59-.09.85-.05.17-.25.39-.39.39-.15,0-.38-.17-.47-.33-.14-.25-.19-.54-.28-.81-.49-1.4-.99-2.8-1.86-4.03-1.64-2.35-5.06-3.46-7.77-2.5-.61.22-1.21.57-1.72.98-.96.77-1.4,1.79-1.35,3.05.07,1.87,1.08,3.19,2.57,4.14,1.15.74,2.4,1.32,3.62,1.94,1.26.64,2.53,1.24,3.79,1.89,1.3.67,2.55,1.43,3.58,2.45,1.68,1.66,2.68,3.61,2.6,6.06-.06,1.61-.33,3.13-1.28,4.45-1.73,2.38-4,3.92-7.01,4.24-2.34.26-4.65.02-6.95-.42-.61-.12-1.22-.26-1.83-.39-.56-.12-1.06-.05-1.49.38-.32.32-.68.6-1.17.53Z"/>
  <path d="m424.95.12c.02.09.07.18.05.24-.91,2.13-1.4,4.39-2.09,6.59-.93,2.99-1.89,5.97-2.82,8.96-.56,1.81-1.07,3.63-1.63,5.45-1.16,3.82-2.34,7.65-3.51,11.47-.6,1.97-1.24,3.93-1.83,5.9-.27.91-.47,1.83-.68,2.76-.11.49.03.9.47,1.18.4.24.81.22,1.17-.05.46-.35.94-.7,1.31-1.13.61-.72,1.14-1.52,1.72-2.27.2-.25.42-.5.68-.69.24-.18.65.09.59.38-.07.32-.15.64-.29.93-.18.37-.38.75-.65,1.05-1.05,1.16-1.94,2.47-3.11,3.53-.78.71-1.65,1.25-2.62,1.65-.7.29-1.44.4-2.2.3-1.2-.16-2.08-.98-2.22-2.16-.07-.6-.08-1.24.04-1.84.22-1.13.52-2.25.85-3.35.97-3.19,1.97-6.38,2.96-9.57,1.14-3.66,2.29-7.32,3.42-10.98.77-2.48,1.51-4.97,2.26-7.45.44-1.46.89-2.92,1.29-4.38.19-.67.32-1.37.42-2.06.14-.97-.21-1.46-1.16-1.74-.78-.23-1.57-.15-2.36-.15-.29,0-.58.07-.87.05-.13-.01-.33-.15-.35-.26-.02-.12.09-.33.2-.4.2-.13.45-.22.68-.26,2.42-.41,4.84-.8,7.26-1.21.69-.12,1.38-.31,2.07-.44.31-.06.63-.27.95-.02Z"/>
  <path d="m0,18.43c.36-.38.49-.6.68-.7.36-.2.75-.36,1.14-.49,2.32-.78,4.65-1.55,6.97-2.34.44-.15.87-.27,1.3-.13.35.38.26.78.24,1.2-.06,1.11-.08,2.22-.11,3.33,0,.24.02.48.17.78.18-.12.35-.18.42-.29.75-1.16,1.73-2.1,2.72-3.04,1.01-.96,2.24-1.57,3.59-1.9,1.72-.42,3.12.23,4.27,1.43.81.84.73,1.9.31,2.91-.37.88-1.14,1.29-2.06,1.39-1.01.11-1.99-.08-2.95-.39-.47-.15-.94-.32-1.42-.46-.64-.19-1.23-.09-1.78.29-1.06.75-1.99,1.63-2.68,2.72-.41.64-.63,1.32-.63,2.1.03,4.04.03,8.08.04,12.12,0,.91.02,1.81.06,2.72.02.49.08.99.18,1.47.34,1.68,1.45,2.63,3.07,3.06.4.11.82.14,1.23.21.32.05.53.22.61.63-.15.08-.3.2-.48.24-.24.05-.5.05-.74.05-4.16.01-8.32.02-12.48.02-.45,0-.92.08-1.38-.28.03-.12.02-.3.1-.41.09-.12.24-.24.39-.26.37-.05.75-.06,1.12-.07.98-.03,1.75-.48,2.38-1.19.28-.32.48-.67.52-1.1.05-.62.14-1.23.14-1.85,0-5.57,0-11.13,0-16.7,0-.9-.09-1.81-.15-2.71-.01-.21-.04-.41-.08-.61-.28-1.31-.78-1.73-2.15-1.75-.74-.01-1.49,0-2.54,0Z"/>
  <path d="m582.7,15.86c-.31,1.05-.55,1.92-.82,2.78-.39,1.22-.82,2.42-1.19,3.64-.45,1.5-.85,3.01-1.28,4.51-.23.79-.48,1.58-.69,2.37-.08.31-.09.63-.13.92.26.17.37.02.44-.12.72-1.39,1.62-2.68,2.49-3.99.98-1.48,1.94-2.98,3.02-4.38,1.24-1.6,2.71-3.01,4.33-4.25.83-.63,1.73-1.13,2.72-1.48.91-.32,1.63,0,2.3.54.3.24.42.59.48.98.26,1.83-.15,3.52-1.12,5.08-.62,1-1.85,1.36-2.96.92-.38-.15-.61-.45-.75-.79-.17-.41-.26-.86-.38-1.3-.13-.49-.42-.72-.91-.62-.39.09-.82.24-1.11.49-.81.7-1.63,1.39-2.25,2.3-.6.89-1.27,1.73-1.94,2.57-1.46,1.86-2.65,3.88-3.84,5.91-1.55,2.66-2.53,5.54-3.46,8.45-.36,1.14-.72,2.28-1.07,3.42-.09.31-.12.64-.19.97-.09.42-.25.57-.67.58-.71.01-1.41,0-2.12,0-.54,0-1.08.02-1.62,0-.16,0-.31-.08-.53-.14.02-.26,0-.51.07-.73.58-1.98,1.18-3.95,1.77-5.92.44-1.46.88-2.92,1.32-4.38.55-1.81,1.11-3.62,1.64-5.44.7-2.41,1.4-4.83,2.06-7.25.14-.51.16-1.06.14-1.59-.03-.88-.42-1.29-1.29-1.38-.74-.07-1.5-.03-2.24-.06-.36-.01-.74.11-1.15-.19.14-.19.24-.42.42-.54.16-.11.39-.11.59-.15,2.42-.41,4.83-.81,7.25-1.24.57-.1,1.13-.27,1.7-.39.27-.06.55-.08.97-.14Z"/>
  <path d="m646.36,21.66v2.64c-.34.36-.73.28-1.09.28-1.58,0-3.16-.01-4.74-.01-8.69,0-17.38,0-26.06,0-.53,0-1.08.09-1.64-.16-.14-.94-.16-1.86.01-2.77.17-.07.28-.16.39-.16,10.81,0,21.61.03,32.42.05.2,0,.4.07.71.12Z"/>
  <path d="m936.53,24.42c-.11-.99-.09-1.88-.02-2.7.47-.36.9-.26,1.31-.26,1.95,0,3.91.03,5.86.03,7.81,0,15.63-.02,23.44-.01.95,0,1.9-.04,2.91.17.02.46.05.9.06,1.33.01.45,0,.9,0,1.3-.28.35-.63.3-.96.3-1.45,0-2.91-.02-4.36-.02-8.85,0-17.71,0-26.56,0-.53,0-1.07.08-1.68-.16Z"/>
  <path d="m936.55,36.28c-.15-.9-.11-1.79-.02-2.74.24-.07.46-.17.69-.18.41-.03.83-.01,1.25-.01,9.44,0,18.87,0,28.31.02.83,0,1.66.02,2.49.05.24,0,.48.07.79.12v2.68c-.33.33-.71.25-1.08.25-1.62,0-3.24-.01-4.86-.01-8.65,0-17.29,0-25.94,0-.53,0-1.08.11-1.62-.18Z"/>
  <path d="m612.8,36.3c-.12-.99-.08-1.88-.03-2.7.47-.37.9-.26,1.3-.26,1.95,0,3.91.03,5.86.03,7.81,0,15.63-.02,23.44-.01.95,0,1.9-.04,2.91.17.02.46.05.89.06,1.33.01.45,0,.9,0,1.3-.28.35-.63.31-.95.31-1.5,0-2.99-.02-4.49-.02-8.81,0-17.63,0-26.44,0-.53,0-1.07.08-1.68-.15Z"/>
  <path d="m39.66,33.59c.23-.12.3-.18.37-.19.16-.03.33-.05.49-.05,10.69.03,21.37.05,32.06.08.16,0,.32.04.55.08.14.94.25,1.85.06,2.83-.35.05-.63.11-.91.12-.96.01-1.91,0-2.87,0-9.15,0-18.3,0-27.44,0-.58,0-1.16.02-1.75,0-.4-.02-.6-.23-.61-.64,0-.74.03-1.47.05-2.22Z"/>
  <path d="m39.66,21.71c.23-.12.3-.17.37-.19.12-.03.25-.05.37-.05,10.73.02,21.45.05,32.18.08.16,0,.32.04.55.08.12.94.3,1.85.01,2.83-.31.04-.58.11-.86.11-1,.01-2,0-2.99,0-9.11,0-18.21,0-27.32,0-.58,0-1.16.02-1.75,0-.4-.02-.61-.23-.61-.64,0-.74.03-1.47.05-2.22Z"/>
  <path d="m476.07,33.48c.28,1.02.23,1.9.11,2.73-.33.35-.68.25-1,.25-8.2,0-16.39,0-24.59,0-2.33,0-4.66.02-6.99.03-.17,0-.33.01-.5,0-.32-.03-.55-.23-.56-.55-.02-.74,0-1.48,0-2.29.33-.07.6-.18.87-.18,2.29-.03,4.58-.07,6.86-.07,8.03,0,16.06.03,24.09.05.54,0,1.07.03,1.71.05Z"/>
  <path d="m442.62,21.74c.19-.08.3-.16.42-.16,10.86,0,21.72,0,32.58,0,.15,0,.31.08.49.14.25.91.2,1.79.08,2.62-.33.35-.68.25-1,.25-8.16,0-16.31,0-24.47,0-2.37,0-4.74.02-7.12.03-.17,0-.33.01-.5,0-.32-.03-.54-.23-.56-.55-.05-.77-.03-1.55.07-2.3Z"/>
  <path d="m550.96,32.51c-2.67.06-4.32-2.45-3.47-4.67.24-.62.71-1.01,1.16-1.41.53-.47,1.19-.74,1.9-.87.24-.04.5-.04.73,0,1.15.24,2.1.85,2.72,1.81.64.98.72,2.13.16,3.17-.68,1.28-1.76,2.06-3.2,1.97Z"/>
  <path d="m721.48,32.5c-.26,0-.38,0-.51,0-1.41-.06-2.49-.67-3.05-1.98-.63-1.48-.33-2.73.82-3.83.69-.66,1.53-.99,2.46-1.07.32-.03.67.03.97.13,1.17.39,2.03,1.19,2.48,2.29.33.8.31,1.71-.12,2.52-.68,1.26-1.66,2.05-3.06,1.94Z"/>
</svg>