<?xml version="1.0" encoding="UTF-8"?>
<svg id="Layer_1" data-name="Layer 1" xmlns="http://www.w3.org/2000/svg" viewBox="0 0 386 35">
  <defs>
    <style>
      .cls-1 {
        fill: #fff;
      }
    </style>
  </defs>
  <path class="cls-1" d="m0,35C0,23.33,0,11.67,0,0c128.67,0,257.33,0,386,0,0,11.67,0,23.33,0,35-128.67,0-257.33,0-386,0ZM155.16,13.91c-.92-.42-1.83-1.08-2.86-.35-1.31.92-2.67,1.94-2.87,3.6-.25,2.03-.28,4.11-.14,6.15.12,1.86,1.41,3.19,2.87,4.19.6.41,1.52.36,2.39.53-.93-1.19-1.95-2.04-2.39-3.13-1.26-3.13-1.13-6.33.24-9.42.51-1.15,1.42-1.8,2.77-1.56.3.31.55.79.92.91.91.3,1.04.88,1.05,1.72,0,1.87.05,3.75.2,5.62.09,1.12-.11,1.86-1.35,2.06-.21.03-.39.32-.72.61h4.6l.26-.3c-.2-.07-.4-.13-.59-.21-1.23-.5-1.54-1.5-1.55-2.73-.02-1.46-.14-2.91-.16-4.37,0-.51.14-1.03.21-1.54,1.38,2.82,2.42,5.63,3.5,8.41.12.3.44.53.67.79.22-.27.54-.5.65-.8.93-2.4,1.81-4.82,2.73-7.22.1-.27.4-.46.61-.69.12.27.35.53.35.8.03,1.62-.02,3.25.03,4.87.04,1.19,0,2.26-1.45,2.61-.09.02-.14.24-.21.38h6.13c-.28-.26-.39-.45-.52-.47-1.31-.19-1.5-1.04-1.45-2.18.08-1.7.15-3.42.05-5.12-.07-1.26.1-2.21,1.53-2.47.04,0,.05-.14.07-.22-3.56-1.14-4.88-.49-5.96,2.93-.11.36-.19.73-.34,1.07-.35.81-.73,1.6-1.24,2.7-.32-.66-.49-.93-.6-1.23-.61-1.55-1.28-3.07-1.78-4.65-.26-.82-.7-.98-1.45-1-1.4-.05-2.8-.19-4.2-.29Zm202.96.4c.12.15.2.35.33.38,1.3.35,1.39,1.33,1.36,2.44-.04,1.7-.04,3.41-.01,5.12.04,2.26.06,1.58-1.8,2.3-.9.35-2.85-.57-2.89-1.34-.09-1.72-.03-3.45-.03-5.17.77-.09,1.45-.17,2.13-.25,0-.16,0-.31,0-.47-.76-.15-1.53-.29-2.3-.44v-1.64c-.77-.04-1.48-.08-2.4-.13.53,1.44-.15,2.04-1.04,2.26.41.55,1.06,1.04,1.12,1.58.15,1.27,0,2.57,0,3.86,0,1.33.73,2.11,2.06,2.12,3.24.03,6.49.09,9.73,0,1.93-.05,3.69-.88,4.91-2.32,2.3-2.73.47-7.71-3.14-8.23-2.59-.37-5.27-.07-8.02-.07Zm-321.12,1.4c.08-.05.16-.1.25-.15.21.62.4,1.24.63,1.84.83,2.26,1.66,4.53,2.53,6.77.11.29.45.5.69.75.19-.24.46-.46.57-.74.73-1.85,1.42-3.72,2.14-5.57.37-.97.76-1.94,1.15-2.91.11.02.23.04.34.07.02.39.05.77.06,1.16.01,1.5-.11,3.01.06,4.49.17,1.47.11,2.64-1.57,3.11-.06.02-.07.2-.1.27h5.88c.1-.1.2-.21.3-.31-2.15-.16-2.02-1.52-1.97-2.89.06-1.5.09-3,.02-4.5-.06-1.19-.09-2.25,1.45-2.46.09-.01.15-.23.34-.55-1.13,0-2.07-.01-3.01,0-2.04.03-2.07.08-2.72,1.99-.54,1.6-1.16,3.17-1.74,4.76-.12,0-.25.01-.37.02-.24-.5-.51-.98-.71-1.5-.57-1.47-1.11-2.95-1.69-4.42-.11-.27-.38-.68-.59-.68-1.53-.06-3.07-.03-4.8-.03.34.29.52.59.75.63,1.08.21,1.21.91,1.17,1.84-.05,1.58-.1,3.17.02,4.74.11,1.42.13,2.64-1.63,3-.1.02-.17.23-.27.37h4.54c-.58-.73-1.58-1.41-1.65-2.17-.22-2.3-.08-4.63-.08-6.96Zm220.92,4.78c0-2.28.03-4.32-.03-6.35,0-.35-.34-.95-.57-.98-1.09-.1-2.2-.05-3.53-.05.3.34.4.54.56.62.88.4,1.1,1.05,1.06,2.01-.1,2.12-.08,4.25-.04,6.37.02,1.03.09,2.01-1.29,2.35.05.09.1.18.15.27h4.69c-1.15-.78-1.88-1.63-.57-3.18.6.74,1.15,1.38,1.65,2.06,1.02,1.39,2.57,1.79,4.01,1.13-1.33-1.71-2.69-3.46-4.06-5.23-.6.29-1.23.59-2.03.98Zm-183.71-7.37l-.27.27c1.68.55,1.72,1.78,1.67,3.12-.07,1.83-.02,3.66-.06,5.49-.02,1.02.18,2.16-1.16,2.77h4.98c-1.41-.9-2.03-1.79-.85-3.25.38.46.7.84,1.02,1.23.6.72,1.06,1.77,1.83,2.08.91.36,2.07.09,2.92.09-1.37-1.76-2.72-3.49-4.14-5.32-.51.23-1.2.54-2.04.92v-7.4h-3.9Zm168.6,3.73c.12-.03.24-.07.35-.1,0-.65.04-1.31-.02-1.96-.02-.22-.31-.58-.47-.58-1.7,0-3.42-.08-5.1.14-1.51.2-2.64,1.45-2.71,2.55-.1,1.64.42,2.36,2.31,3.06.96.36,1.92.7,2.9,1.01.91.29,1.37,1,1.16,1.8-.14.53-.82,1.17-1.37,1.29-1.48.32-2.89-.03-4.05-1.1-.26-.24-.55-.45-.86-.7-.72,2.05-.34,2.61,1.51,2.51.45-.03.91.09,1.36.12,1.86.13,3.67.11,5.12-1.34,1.18-1.18,1.05-3.45-.35-4.09-1.23-.56-2.6-.82-3.8-1.43-.66-.34-1.2-1.06-1.54-1.74-.11-.22.51-1.09.95-1.23,1.18-.4,2.39-.35,3.37.62.41.4.83.79,1.25,1.19Zm107.09.16c.06-.68.06-1.1.14-1.5.22-1.04-.24-1.33-1.21-1.29-.83.04-1.66-.06-2.49-.07-1.31-.02-2.51.26-3.65,1.02-1.32.88-1.27,3.63.27,4.37,1.15.55,2.36,1.01,3.58,1.37.84.25,1.48.55,1.52,1.52.04.96-.56,1.62-1.36,1.66-1.02.05-2.09-.18-3.07-.51-.7-.24-1.27-.83-1.94-1.3-.52,2.25-.27,2.58,1.7,2.54.37,0,.74.09,1.12.1,1.85.1,3.66.09,5.17-1.26,1.43-1.27,1.06-3.73-.7-4.38-1.19-.44-2.47-.71-3.56-1.32-.64-.35-1.33-1.19-1.38-1.86-.06-.87.9-1.13,1.75-1.19,1.19-.09,2.22.13,3,1.14.24.31.61.53,1.11.95Zm-229.38.14c0-1.01.05-1.67-.02-2.32-.03-.24-.34-.65-.52-.65-1.7.01-3.45-.13-5.07.25-.93.22-1.94,1.21-2.37,2.11-.41.86-.22,2.18.82,2.77,1.17.67,2.44,1.25,3.74,1.56,1.06.25,1.59.77,1.59,1.73,0,1.04-.75,1.69-1.7,1.59-1.08-.12-2.14-.52-3.16-.94-.58-.23-1.06-.73-1.9-1.33.14,1.03.17,1.72.34,2.37.06.24.44.58.66.58,1.86-.02,3.74.01,5.58-.21,1.48-.18,2.57-1.49,2.67-2.75.12-1.52-.28-2.11-2.14-2.9-.91-.39-1.86-.65-2.81-.94-.76-.23-1.97-1.66-1.61-2.09.45-.53,1.23-1,1.91-1.08,1.28-.15,2.47.27,3.2,1.5.11.19.34.32.79.74Zm-65.26,5.02c-.1.06-.2.12-.3.18.1.65.14,1.31.31,1.93.07.25.43.61.65.6,1.9-.02,3.82.01,5.71-.23,1.4-.18,2.59-1.64,2.67-2.8.09-1.23-.62-2.19-2.19-2.82-.95-.38-2.04-.5-2.9-1.02-.67-.41-1.16-1.2-1.56-1.92-.07-.13.57-.86,1-1.05,1.31-.58,3.17.03,4,1.2.18.25.38.47.77.94v-2.79c-1.9,0-3.83-.24-5.65.1-.89.17-1.89,1.27-2.27,2.19-.37.87-.11,2.16.96,2.73,1.16.61,2.39,1.12,3.65,1.49,1.03.3,1.76.89,1.63,1.81-.15,1.02-.89,1.61-1.84,1.49-1.04-.13-2.06-.52-3.04-.93-.58-.24-1.07-.73-1.59-1.11Zm-36.19-5.24c.12-.03.25-.05.37-.08,0-.69.05-1.39-.03-2.07-.03-.24-.38-.63-.59-.63-1.66,0-3.38-.18-4.94.23-1,.27-2.02,1.31-2.54,2.27-.48.89-.08,2.15.95,2.71,1.18.64,2.45,1.21,3.75,1.52,1.11.26,1.45.94,1.51,1.83.07.92-.65,1.31-1.44,1.42-1.32.18-2.56-.07-3.64-.93-.42-.34-.88-.63-1.54-1.1.09.96.08,1.59.23,2.18.06.23.48.5.75.53.95.09,1.9.09,2.85.11,1.56.03,3.03-.16,4.32-1.22,1.3-1.07,1.4-3.2-.02-4.06-1.12-.67-2.38-1.15-3.64-1.53-1.05-.32-2-1.1-1.96-1.95.04-.73,1.19-1.53,2.26-1.28.92.21,1.76.78,2.61,1.25.3.17.49.53.73.8Zm167.65-2.58c-2.36-.32-5.49,1.53-6.52,4.07-.7,1.71-.84,3.47.49,5.03,1.4,1.63,3.18,1.82,5.1,1.26,1.8-.53,2.94-2.29,2.66-3.96-.29-1.72-1.59-2.67-3.63-2.67-.64,0-1.27-.05-2.04-.09.16-.51.16-.95.37-1.1,1.15-.88,2.36-1.68,3.56-2.52Zm122.21,1.72c-3.13.05-5.04,1.75-5,4.44.05,2.8,1.94,4.52,4.88,4.43,2.56-.08,4.66-2.1,4.61-4.45-.05-2.45-2.09-4.46-4.48-4.42Zm-19.49-1.54c-.02-.13-.05-.26-.07-.38-.74.16-1.49.28-2.21.49-.54.16-1.05.44-1.57.68-1.79.82-2.87,2.26-3.27,4.14-.41,1.91.15,3.5,1.81,4.68,1.57,1.12,3.97.99,5.77-.41,1.12-.87,1.48-2.03,1.05-3.42-.42-1.35-1.43-2.15-2.82-2.19-.93-.03-1.86,0-2.89,0,.41-2.35,2.4-2.87,4.21-3.59Zm8.21,1.62c-2.72-.1-4.65,1.62-4.91,3.99-.31,2.8,1.98,4.8,4.73,4.82,2.52.02,4.72-1.98,4.78-4.43.05-1.87-1.65-4.52-4.6-4.38Zm-102.38-.04c-3.19.02-4.99,1.63-4.97,4.43.02,2.68,2.01,4.47,4.92,4.41,2.57-.05,4.48-1.98,4.48-4.55,0-2.34-2.03-4.31-4.43-4.29Zm78.8,10.69c.49-1.41.45-1.55-.45-1.57-.33,0-.67,0-.99.08-.82.19-.9.65-.41,1.32,1.69,2.28,6.47,1.25,7.73-.64,1.22-1.83.48-3.54-1.67-3.94-.22-.04-.42-.18-.65-.28.77-.85,1.52-1.58,2.16-2.41.59-.77.48-1.44-.35-2.13-2.21-1.81-5.48-1.55-7.31.68.63.99,1.03,1.1,2.52.67.25-.54-.63-1.6.6-1.65.6-.02,1.5.28,1.77.74.94,1.56.15,3.16-1.59,3.6-.2.05-.39.18-.77.37,1.01.54,2.61-.32,2.7,1.33.06,1.09.05,2.25-.27,3.27-.37,1.16-1.84,1.34-3.02.57Zm-72.81-13.89c4.21,5.21,4.37,10.1-.04,15.15.94-.23,1.89-.49,2.65-1.03,1.94-1.36,2.7-3.45,2.94-5.69.33-3.05-.62-5.69-3.15-7.55-.66-.49-1.6-.6-2.41-.89Zm112.95,14.66l.43.55c.82-.28,1.73-.4,2.43-.86,4.12-2.71,4.14-9.94.84-12.89-.97-.87-1.99-1.37-3.77-1.05,3.3,1.62,3.56,4.45,3.58,7.23.03,2.81-.24,5.64-3.52,7.03Zm-80.13.22c-3.11-1.7-3.49-4.33-3.52-7.17-.03-2.86.4-5.48,3.26-7.29-1.92-.08-2.31.05-3.3.94-2.94,2.64-3.4,8.27-.95,11.53,1,1.34,2.18,2.35,4.51,1.99Zm19.36-4.27c-1.4.23-2.57.6-3.74.56-1.06-.04-1.93-1.57-2.04-3.07,1.28-.08,2.56-.14,3.83-.24.54-.04,1.07-.17,1.61-.26-.17-.63-.17-1.41-.56-1.85-.55-.61-1.33-1.21-2.11-1.37-1.62-.34-3.13-.12-4.35,1.36-.95,1.16-1.03,2.34-.71,3.59.35,1.32,1.3,2.24,2.68,2.49,1.83.34,3.63.27,5.38-1.19Zm-179.93.22c-.04-.11-.08-.21-.11-.32-.3.12-.6.21-.89.35-1.99,1-3.52.42-4.28-1.6-.3-.8-.24-1.27.79-1.24,1.44.04,2.88.01,4.34.01.05-1.59-.35-2.82-1.67-3.37-.8-.33-1.78-.34-2.68-.32-1.54.04-2.95,1.25-3.36,2.72-.46,1.68,0,3.02,1.39,4.06,1.78,1.32,4.4,1.2,6.46-.3Zm-46.51,1.18c.04-.14.07-.28.11-.42-.44-.15-.93-.22-1.32-.46-.38-.23-.92-.6-.94-.94-.1-1.69-.04-3.39-.04-5.06.91-.14,1.65-.25,2.38-.37-.01-.11-.02-.22-.03-.32-.4-.05-.81-.11-1.21-.15-.78-.07-1.61-.06-1.11-1.28.05-.13-.28-.56-.5-.62-.54-.15-1.11-.16-1.68-.23.08.09.15.19.23.28-.52.8-1.03,1.6-1.58,2.44.19.05.63.18,1.16.33,0,1.68-.03,3.33,0,4.98.02,1.01.63,1.67,1.59,1.78.97.12,1.96.03,2.94.03Zm96.31-9.88c.99,1.62-.12,2.06-1.17,2.61,1.54.11,1.56.95,1.44,2.02-.11,1.07,0,2.16-.02,3.24-.01,1.02.5,1.76,1.44,1.91,1.06.17,2.17.04,3.26.04.02-.1.04-.21.06-.31-.4-.12-.85-.15-1.17-.38-.43-.31-1.05-.74-1.08-1.15-.13-1.64-.05-3.29-.05-4.97.8-.08,1.51-.14,2.21-.21.01-.12.02-.24.03-.37-.79-.2-1.59-.4-2.37-.6v-1.59c-.75-.07-1.44-.13-2.58-.23Zm54.87-1.78c-.79-.27-1.13.1-1.39.86-.75,2.19-1.57,4.36-2.38,6.53-.89,2.37-1.82,4.73-2.73,7.1,1.06.27,1.16.24,1.47-.63,1.67-4.58,3.32-9.16,5.02-13.86Zm-40.07,2.84c-.17.05-.34.09-.5.14,0,.69,0,1.39,0,2.08,0,1.84-.09,1.92-1.96,1.92-.37,0-.75-.06-1.12-.02-.16.02-.3.22-.45.33l.08.28h3.45c0,1.12-.05,2.07.02,3.01.03.36.33.7.5,1.05.25-.35.68-.69.73-1.07.11-.93.03-1.87.03-2.84,1.3-.08,2.41-.15,3.52-.22,0-.13,0-.27.01-.4-1.14-.12-2.28-.23-3.31-.34-.78-1.27.68-3.07-1.01-3.93Zm83.56,4.69c0-.14,0-.27,0-.41-.95-.1-1.9-.22-2.86-.28-.65-.04-.87-.33-.81-.96.07-.75.13-1.5.09-2.24-.02-.28-.35-.53-.54-.8-.24.24-.64.47-.68.74-.09.65-.11,1.35.04,1.99.27,1.13-.27,1.41-1.22,1.41-.78,0-1.57,0-2.35,0l-.02.52c.85.05,1.7.13,2.55.13.84,0,1.23.24,1.04,1.19-.14.68-.13,1.42-.04,2.11.04.28.47.5.72.75.18-.27.49-.53.5-.82.06-.99.02-1.98.02-3.1,1.12-.07,2.33-.14,3.53-.22Zm42.72,7.06c.77.35,1.03-.15,1.26-.8.77-2.19,1.56-4.37,2.36-6.54.87-2.37,1.77-4.73,2.66-7.1-.07-.1-.15-.19-.22-.29-.36.24-.9.4-1.05.73-.54,1.21-.96,2.47-1.4,3.71-1.19,3.38-2.38,6.77-3.61,10.29Zm109.94-13.63c-1.61-.05-2.71.84-2.74,2.22-.03,1.31.97,2.35,2.33,2.4,1.66.07,2.76-.85,2.78-2.32.02-1.37-.91-2.27-2.37-2.31Zm-343.83,0c-1.33-.03-2.59.86-2.57,1.81.03,1.77.96,2.86,2.45,2.87,1.29.01,2.59-1.1,2.59-2.23,0-1.3-1.13-2.42-2.46-2.45Zm55.48,4.64c.17.02.35.03.52.05.3-1.42.62-2.83.88-4.26.17-.94-.21-1.54-1.24-1.54-.99,0-1.19.69-1.06,1.44.24,1.45.6,2.88.9,4.31Zm3.78.07h.39c.34-1.57.73-3.14,1.02-4.73.17-.92-.48-1.07-1.24-1.1-.84-.03-1.19.36-1.06,1.12.26,1.58.59,3.14.89,4.72Zm-37.45-.27c.14.02.28.03.42.05.33-1.38.68-2.75.96-4.13.18-.89-.26-1.31-1.17-1.3-.92.01-1.34.51-1.18,1.35.26,1.36.64,2.69.97,4.03Zm45.41,2.6c1.3.9,7.47.84,8.5,0h-8.5Zm237.31.5c0-.16,0-.32.01-.48h-8c0,.15,0,.3,0,.45,2.66.3,5.32.26,7.99.02Zm-237.34-3.5c1.35.99,7.41.89,8.45,0h-8.45Zm237.58.07h-8.53c1.26.86,7.03.82,8.53,0Zm-255.45-1.02c1.52,1.61,2.66,1.57,3.92,0h-3.92Zm179.88.03c1.45,1.73,2.14,1.71,3.86,0h-3.86Z"/>
  <path d="m358.12,14.31c2.75,0,5.43-.3,8.02.07,3.61.52,5.44,5.5,3.14,8.23-1.22,1.45-2.98,2.28-4.91,2.32-3.24.08-6.49.02-9.73,0-1.33-.01-2.06-.79-2.06-2.12,0-1.29.15-2.59,0-3.86-.06-.55-.71-1.03-1.12-1.58.88-.23,1.57-.83,1.04-2.26.92.05,1.63.09,2.4.13v1.64c.77.15,1.54.3,2.3.44,0,.16,0,.31,0,.47-.68.08-1.36.16-2.13.25,0,1.72-.06,3.45.03,5.17.04.77,1.99,1.69,2.89,1.34,1.86-.72,1.84-.04,1.8-2.3-.03-1.7-.03-3.41.01-5.12.03-1.11-.06-2.09-1.36-2.44-.13-.03-.21-.23-.33-.38Zm4.3,5.08s.02,0,.03,0c0,1.24-.05,2.49.03,3.73.02.37.34.99.62,1.05,1.59.34,3.45.03,3.86-2.08.23-1.17.33-2.39.24-3.57-.15-2.24-1.5-3.56-3.47-3.7-.9-.06-1.42.14-1.33,1.21.09,1.11.02,2.24.02,3.36Z"/>
  <path d="m37,15.71c0,2.32-.14,4.66.08,6.96.07.77,1.07,1.44,1.65,2.17h-4.54c.1-.15.17-.35.27-.37,1.75-.36,1.74-1.58,1.63-3-.12-1.57-.08-3.16-.02-4.74.03-.93-.1-1.64-1.17-1.84-.23-.04-.42-.34-.75-.63,1.72,0,3.26-.03,4.8.03.21,0,.48.41.59.68.59,1.46,1.12,2.95,1.69,4.42.2.51.47,1,.71,1.5.12,0,.25-.01.37-.02.58-1.59,1.19-3.16,1.74-4.76.65-1.91.68-1.96,2.72-1.99.94-.01,1.88,0,3.01,0-.19.32-.25.54-.34.55-1.54.21-1.51,1.27-1.45,2.46.07,1.5.04,3-.02,4.5-.05,1.37-.18,2.73,1.97,2.89-.1.1-.2.21-.3.31h-5.88c.02-.07.04-.25.1-.27,1.68-.46,1.73-1.64,1.57-3.11-.17-1.48-.04-2.99-.06-4.49,0-.39-.04-.77-.06-1.16-.11-.02-.23-.04-.34-.07-.38.97-.77,1.93-1.15,2.91-.71,1.86-1.41,3.72-2.14,5.57-.11.28-.38.49-.57.74-.24-.25-.58-.45-.69-.75-.87-2.25-1.7-4.51-2.53-6.77-.22-.61-.42-1.23-.63-1.84-.08.05-.16.1-.25.15Z"/>
  <path d="m155.16,13.91c1.4.1,2.8.24,4.2.29.75.02,1.19.18,1.45,1,.5,1.58,1.17,3.11,1.78,4.65.12.3.28.58.6,1.23.51-1.1.89-1.89,1.24-2.7.15-.34.23-.71.34-1.07,1.08-3.42,2.4-4.07,5.96-2.93-.02.08-.04.21-.07.22-1.43.26-1.6,1.2-1.53,2.47.09,1.7.03,3.42-.05,5.12-.05,1.13.14,1.99,1.45,2.18.13.02.24.21.52.47h-6.13c.07-.13.12-.35.21-.38,1.45-.34,1.49-1.42,1.45-2.61-.05-1.62,0-3.25-.03-4.87,0-.27-.23-.54-.35-.8-.21.23-.5.42-.61.69-.93,2.4-1.81,4.82-2.73,7.22-.12.31-.43.54-.65.8-.23-.26-.55-.48-.67-.79-1.08-2.79-2.12-5.59-3.5-8.41-.08.51-.22,1.03-.21,1.54.02,1.46.15,2.91.16,4.37.01,1.22.31,2.22,1.55,2.73.19.08.39.14.59.21l-.26.3h-4.6c.33-.29.51-.58.72-.61,1.24-.2,1.44-.94,1.35-2.06-.15-1.87-.19-3.74-.2-5.62,0-.84-.14-1.43-1.05-1.72-.37-.12-.61-.59-.92-.91,0,0,0,0,0,0Z"/>
  <path d="m257.91,20.49c.8-.39,1.43-.69,2.03-.98,1.37,1.77,2.73,3.52,4.06,5.23-1.45.66-2.99.26-4.01-1.13-.5-.68-1.05-1.31-1.65-2.06-1.32,1.55-.59,2.4.57,3.18h-4.69c-.05-.09-.1-.18-.15-.27,1.38-.34,1.31-1.32,1.29-2.35-.04-2.12-.05-4.25.04-6.37.04-.95-.17-1.61-1.06-2.01-.16-.07-.26-.28-.56-.62,1.33,0,2.44-.06,3.53.05.23.02.56.63.57.98.05,2.03.03,4.07.03,6.35Z"/>
  <path d="m74.2,13.11h3.9v7.4c.84-.38,1.54-.69,2.04-.92,1.42,1.82,2.77,3.56,4.14,5.32-.85,0-2.01.28-2.92-.09-.76-.31-1.23-1.36-1.83-2.08-.32-.39-.64-.77-1.02-1.23-1.18,1.46-.56,2.35.85,3.25h-4.98c1.34-.61,1.14-1.75,1.16-2.77.03-1.83-.02-3.66.06-5.49.05-1.34,0-2.58-1.67-3.12l.27-.27Z"/>
  <path d="m242.8,16.84c-.42-.4-.84-.78-1.25-1.19-.98-.97-2.19-1.02-3.37-.62-.43.15-1.05,1.02-.95,1.23.34.68.89,1.4,1.54,1.74,1.2.61,2.57.87,3.8,1.43,1.4.64,1.53,2.91.35,4.09-1.45,1.45-3.26,1.47-5.12,1.34-.46-.03-.91-.15-1.36-.12-1.86.11-2.23-.45-1.51-2.51.31.25.6.47.86.7,1.16,1.07,2.58,1.41,4.05,1.1.54-.12,1.22-.76,1.37-1.29.21-.8-.25-1.51-1.16-1.8-.98-.31-1.94-.65-2.9-1.01-1.88-.7-2.41-1.41-2.31-3.06.07-1.1,1.2-2.35,2.71-2.55,1.68-.22,3.4-.14,5.1-.14.17,0,.45.36.47.58.06.65.02,1.3.02,1.96-.12.03-.24.07-.35.1Z"/>
  <path d="m349.89,17c-.51-.42-.87-.64-1.11-.95-.77-1.01-1.81-1.23-3-1.14-.86.06-1.81.33-1.75,1.19.05.66.74,1.5,1.38,1.86,1.09.61,2.37.88,3.56,1.32,1.76.65,2.13,3.11.7,4.38-1.51,1.35-3.32,1.35-5.17,1.26-.37-.02-.75-.11-1.12-.1-1.97.04-2.22-.29-1.7-2.54.67.47,1.25,1.06,1.94,1.3.98.33,2.05.56,3.07.51.81-.04,1.41-.7,1.36-1.66-.04-.97-.68-1.27-1.52-1.52-1.22-.36-2.43-.82-3.58-1.37-1.54-.74-1.59-3.49-.27-4.37,1.14-.76,2.34-1.04,3.65-1.02.83.01,1.67.11,2.49.07.97-.05,1.43.25,1.21,1.29-.08.4-.08.81-.14,1.5Z"/>
  <path d="m120.52,17.15c-.45-.42-.67-.54-.79-.74-.73-1.23-1.91-1.64-3.2-1.5-.68.08-1.46.54-1.91,1.08-.36.43.85,1.85,1.61,2.09.95.29,1.9.55,2.81.94,1.86.79,2.27,1.39,2.14,2.9-.1,1.26-1.2,2.57-2.67,2.75-1.84.22-3.72.19-5.58.21-.23,0-.6-.34-.66-.58-.17-.65-.21-1.34-.34-2.37.84.6,1.32,1.09,1.9,1.33,1.02.41,2.08.82,3.16.94.96.1,1.71-.55,1.7-1.59,0-.96-.53-1.47-1.59-1.73-1.3-.31-2.57-.89-3.74-1.56-1.04-.59-1.23-1.92-.82-2.77.43-.9,1.44-1.89,2.37-2.11,1.62-.39,3.37-.24,5.07-.25.18,0,.49.41.52.65.07.65.02,1.31.02,2.32Z"/>
  <path d="m55.26,22.16c.53.38,1.01.87,1.59,1.11.98.41,2,.8,3.04.93.95.12,1.69-.46,1.84-1.49.13-.92-.6-1.51-1.63-1.81-1.26-.37-2.49-.88-3.65-1.49-1.07-.57-1.32-1.86-.96-2.73.39-.92,1.38-2.03,2.27-2.19,1.82-.34,3.76-.1,5.65-.1v2.79c-.39-.47-.6-.69-.77-.94-.84-1.17-2.69-1.78-4-1.2-.43.19-1.07.92-1,1.05.4.72.89,1.51,1.56,1.92.86.52,1.95.64,2.9,1.02,1.57.62,2.28,1.59,2.19,2.82-.09,1.17-1.27,2.62-2.67,2.8-1.88.24-3.8.21-5.71.23-.22,0-.58-.35-.65-.6-.17-.62-.22-1.28-.31-1.93.1-.06.2-.12.3-.18Z"/>
  <path d="m19.06,16.93c-.24-.27-.43-.63-.73-.8-.84-.47-1.69-1.04-2.61-1.25-1.07-.25-2.22.55-2.26,1.28-.04.85.9,1.63,1.96,1.95,1.25.38,2.52.86,3.64,1.53,1.43.86,1.32,2.99.02,4.06-1.28,1.06-2.76,1.25-4.32,1.22-.95-.02-1.91-.02-2.85-.11-.28-.03-.69-.3-.75-.53-.16-.59-.15-1.22-.23-2.18.67.47,1.12.76,1.54,1.1,1.08.86,2.32,1.11,3.64.93.79-.11,1.51-.5,1.44-1.42-.07-.89-.4-1.57-1.51-1.83-1.3-.31-2.57-.88-3.75-1.52-1.03-.56-1.43-1.81-.95-2.71.52-.96,1.54-2,2.54-2.27,1.56-.42,3.29-.23,4.94-.23.21,0,.56.39.59.63.08.68.03,1.38.03,2.07-.12.03-.25.05-.37.08Z"/>
  <path d="m186.72,14.35c-1.2.84-2.41,1.65-3.56,2.52-.21.16-.21.59-.37,1.1.77.04,1.41.09,2.04.09,2.04,0,3.34.96,3.63,2.67.28,1.67-.86,3.44-2.66,3.96-1.92.56-3.7.37-5.1-1.26-1.34-1.56-1.19-3.32-.49-5.03,1.03-2.54,4.16-4.39,6.52-4.07Zm-.81,7.07s-.08-.02-.12-.02c0-.25,0-.5,0-.74-.05-1.02-.6-1.62-1.6-1.71-1.1-.09-1.68.64-1.67,1.57,0,1,.16,2.08.58,2.97.52,1.11,1.88.98,2.36-.17.25-.59.31-1.27.46-1.9Z"/>
  <path d="m308.93,16.07c2.39-.04,4.43,1.97,4.48,4.42.05,2.35-2.04,4.38-4.61,4.45-2.94.09-4.83-1.63-4.88-4.43-.04-2.69,1.87-4.39,5-4.44Zm1.69,4.38c-.1-.69-.05-1.62-.39-2.38-.23-.51-.99-1.01-1.55-1.06-.48-.04-1.42.52-1.46.89-.17,1.69-.19,3.42-.07,5.12.06.87.78,1.34,1.71,1.25.92-.09,1.4-.68,1.53-1.54.11-.69.14-1.4.23-2.28Z"/>
  <path d="m289.44,14.53c-1.81.72-3.8,1.24-4.21,3.59,1.03,0,1.96-.02,2.89,0,1.39.04,2.4.84,2.82,2.19.43,1.39.08,2.55-1.05,3.42-1.8,1.39-4.2,1.52-5.77.41-1.66-1.18-2.22-2.77-1.81-4.68.4-1.88,1.48-3.31,3.27-4.14.52-.24,1.03-.52,1.57-.68.72-.22,1.47-.33,2.21-.49.02.13.05.26.07.38Zm-1.17,6.69s0-.42-.05-.79c-.13-1.04-.72-1.52-1.77-1.5-1.04.02-1.33.69-1.41,1.55-.04.45-.04.92.02,1.37.23,1.75.82,2.5,1.81,2.39.96-.11,1.43-1.01,1.4-3.02Z"/>
  <path d="m297.65,16.15c2.95-.14,4.65,2.51,4.6,4.38-.07,2.45-2.26,4.45-4.78,4.43-2.75-.03-5.05-2.03-4.73-4.82.26-2.37,2.2-4.09,4.91-3.99Zm1.83,4.75c-.14-1.07-.11-2.03-.42-2.85-.18-.47-.88-.95-1.41-1.03-.47-.07-1.32.27-1.49.66-.85,1.89-.9,3.88,0,5.77.59,1.24,2.19,1.21,2.74-.04.36-.81.42-1.74.59-2.5Z"/>
  <path d="m195.27,16.11c2.4-.02,4.43,1.95,4.43,4.29,0,2.56-1.9,4.5-4.48,4.55-2.92.05-4.9-1.73-4.92-4.41-.02-2.8,1.78-4.4,4.97-4.43Zm1.82,4.53c-.18-.94-.23-1.89-.57-2.7-.2-.48-.89-1.06-1.35-1.06-.55,0-1.37.47-1.58.95-.76,1.77-.8,3.66-.02,5.44.2.45.94.9,1.44.9.49,0,1.21-.46,1.42-.91.38-.8.45-1.74.66-2.63Z"/>
  <path d="m274.07,26.8c1.18.77,2.64.59,3.02-.57.33-1.02.33-2.18.27-3.27-.09-1.65-1.69-.79-2.7-1.33.38-.19.56-.32.77-.37,1.74-.44,2.53-2.04,1.59-3.6-.27-.45-1.17-.75-1.77-.74-1.23.04-.35,1.1-.6,1.65-1.49.43-1.89.33-2.52-.67,1.83-2.23,5.09-2.49,7.31-.68.83.68.95,1.36.35,2.13-.64.83-1.39,1.57-2.16,2.41.23.1.43.24.65.28,2.15.41,2.89,2.11,1.67,3.94-1.26,1.89-6.04,2.92-7.73.64-.5-.67-.41-1.13.41-1.32.32-.07.66-.09.99-.08.9.02.94.16.45,1.57Z"/>
  <path d="m201.26,12.91c.81.29,1.75.4,2.41.89,2.54,1.86,3.48,4.5,3.15,7.55-.24,2.24-1,4.33-2.94,5.69-.76.53-1.71.79-2.65,1.03,4.41-5.05,4.25-9.94.04-15.15Z"/>
  <path d="m314.2,27.56c3.28-1.39,3.55-4.22,3.52-7.03-.03-2.79-.29-5.61-3.58-7.23,1.78-.31,2.8.19,3.77,1.05,3.3,2.95,3.28,10.19-.84,12.89-.7.46-1.62.58-2.43.86l-.43-.55Z"/>
  <path d="m234.08,27.79c-2.33.35-3.5-.66-4.51-1.99-2.46-3.27-1.99-8.89.95-11.53.99-.89,1.39-1.02,3.3-.94-2.86,1.82-3.29,4.43-3.26,7.29.03,2.85.41,5.47,3.52,7.17Z"/>
  <path d="m155.17,13.92c-1.35-.25-2.26.41-2.77,1.56-1.37,3.09-1.5,6.29-.24,9.42.44,1.09,1.45,1.94,2.39,3.13-.86-.17-1.79-.12-2.39-.53-1.46-1-2.75-2.32-2.87-4.19-.14-2.04-.11-4.13.14-6.15.2-1.66,1.57-2.68,2.87-3.6,1.03-.72,1.94-.07,2.86.35,0,0,0,0,0,0Z"/>
  <path d="m253.44,23.52c-1.75,1.46-3.55,1.53-5.38,1.19-1.38-.25-2.33-1.17-2.68-2.49-.33-1.25-.25-2.43.71-3.59,1.23-1.48,2.73-1.7,4.35-1.36.78.16,1.56.76,2.11,1.37.39.44.39,1.22.56,1.85-.54.09-1.07.22-1.61.26-1.28.1-2.56.16-3.83.24.11,1.5.98,3.04,2.04,3.07,1.16.04,2.34-.33,3.74-.56Zm-4.04-2.89c.49-.63,1.01-1,1.05-1.4.06-.77-.39-1.4-1.28-1.3-.75.08-1.66.36-1.47,1.27.1.49.94.82,1.7,1.43Z"/>
  <path d="m73.51,23.74c-2.05,1.49-4.68,1.61-6.46.3-1.4-1.04-1.86-2.38-1.39-4.06.4-1.47,1.81-2.68,3.36-2.72.89-.02,1.87-.01,2.68.32,1.32.55,1.73,1.78,1.67,3.37-1.46,0-2.9.03-4.34-.01-1.04-.03-1.1.44-.79,1.24.77,2.02,2.29,2.6,4.28,1.6.28-.14.59-.24.89-.35.04.11.08.21.11.32Zm-3.86-3.22c.63-.62,1.06-1.05,1.49-1.47-.54-.36-1.09-1.03-1.6-1-.61.04-1.18.69-1.77,1.07.54.4,1.08.81,1.88,1.4Z"/>
  <path d="m27,24.92c-.98,0-1.97.09-2.94-.03-.96-.12-1.57-.77-1.59-1.78-.04-1.65,0-3.31,0-4.98-.52-.15-.96-.27-1.16-.33.55-.85,1.07-1.64,1.58-2.44-.08-.09-.15-.19-.23-.28.56.07,1.14.08,1.68.23.22.06.56.5.5.62-.5,1.22.34,1.21,1.11,1.28.4.04.81.1,1.21.15.01.11.02.22.03.32-.74.11-1.47.23-2.38.37,0,1.67-.05,3.37.04,5.06.02.34.56.71.94.94.39.24.87.31,1.32.46-.04.14-.07.28-.11.42Z"/>
  <path d="m123.31,15.03c1.13.1,1.82.16,2.58.23v1.59c.79.2,1.58.4,2.37.6-.01.12-.02.24-.03.37-.71.07-1.41.13-2.21.21,0,1.68-.07,3.33.05,4.97.03.42.65.85,1.08,1.15.32.23.78.26,1.17.38-.02.1-.04.21-.06.31-1.09,0-2.2.13-3.26-.04-.94-.15-1.45-.89-1.44-1.91.01-1.08-.1-2.17.02-3.24.11-1.06.1-1.9-1.44-2.02,1.05-.55,2.16-.98,1.17-2.61Z"/>
  <path d="m178.18,13.25c-1.7,4.71-3.36,9.28-5.02,13.86-.32.87-.42.9-1.47.63.91-2.37,1.83-4.73,2.73-7.1.82-2.17,1.63-4.34,2.38-6.53.26-.76.59-1.13,1.39-.86Z"/>
  <path d="m138.11,16.09c1.68.86.23,2.67,1.01,3.93,1.03.11,2.17.22,3.31.34,0,.13,0,.27-.01.4-1.11.07-2.23.14-3.52.22,0,.97.07,1.91-.03,2.84-.04.38-.47.71-.73,1.07-.18-.35-.48-.69-.5-1.05-.07-.94-.02-1.89-.02-3.01h-3.45l-.08-.28c.15-.12.29-.32.45-.33.37-.04.74.02,1.12.02,1.87,0,1.96-.09,1.96-1.92,0-.69,0-1.39,0-2.08.17-.05.34-.09.5-.14Z"/>
  <path d="m221.67,20.78c-1.21.07-2.41.15-3.53.22,0,1.12.04,2.11-.02,3.1-.02.28-.33.54-.5.82-.25-.25-.69-.47-.72-.75-.09-.69-.09-1.43.04-2.11.19-.95-.2-1.19-1.04-1.19-.85,0-1.7-.08-2.55-.13l.02-.52c.78,0,1.57,0,2.35,0,.96,0,1.49-.27,1.22-1.41-.15-.63-.13-1.34-.04-1.99.04-.27.44-.49.68-.74.19.27.52.52.54.8.05.74-.01,1.5-.09,2.24-.06.63.16.92.81.96.95.06,1.91.19,2.86.28,0,.14,0,.27,0,.41Z"/>
  <path d="m264.39,27.84c1.24-3.52,2.42-6.91,3.61-10.29.44-1.25.86-2.51,1.4-3.71.15-.33.69-.49,1.05-.73.07.1.15.19.22.29-.89,2.37-1.78,4.73-2.66,7.1-.8,2.18-1.59,4.36-2.36,6.54-.23.65-.49,1.15-1.26.8Z"/>
  <path d="m374.33,14.21c1.47.04,2.39.94,2.37,2.31-.02,1.47-1.12,2.39-2.78,2.32-1.36-.06-2.36-1.09-2.33-2.4.03-1.38,1.13-2.27,2.74-2.22Zm1.29,2.27c.17-1.06-.31-1.61-1.4-1.64-1.71-.05-1.23,1.26-1.34,2.18-.1.86.48,1.16,1.2,1.22.97.08,1.52-.55,1.54-1.76Z"/>
  <path d="m30.5,14.21c1.34.03,2.47,1.15,2.46,2.45,0,1.13-1.3,2.24-2.59,2.23-1.48-.01-2.41-1.1-2.45-2.87-.02-.96,1.24-1.85,2.57-1.81Zm1.31,2.34c-.02-1.2-.53-1.74-1.62-1.69-1.39.06-1.18,1.13-1.21,2-.03.88.43,1.4,1.33,1.42.92.03,1.51-.68,1.49-1.73Z"/>
  <path d="m85.97,18.85c-.31-1.44-.66-2.87-.9-4.31-.12-.75.07-1.44,1.06-1.44,1.03,0,1.41.6,1.24,1.54-.26,1.43-.58,2.84-.88,4.26-.17-.02-.35-.03-.52-.05Z"/>
  <path d="m89.75,18.92c-.3-1.57-.63-3.14-.89-4.72-.13-.76.22-1.15,1.06-1.12.76.03,1.4.18,1.24,1.1-.29,1.59-.67,3.16-1.02,4.74h-.39Z"/>
  <path d="m52.3,18.65c-.33-1.34-.71-2.67-.97-4.03-.16-.84.26-1.34,1.18-1.35.91-.01,1.36.4,1.17,1.3-.28,1.39-.64,2.76-.96,4.13-.14-.02-.28-.03-.42-.05Z"/>
  <path d="m97.71,21.25h8.5c-1.03.84-7.2.9-8.5,0Z"/>
  <path d="m335.02,21.75c-2.67.24-5.33.28-7.99-.02,0-.15,0-.3,0-.45h8c0,.16,0,.32-.01.48Z"/>
  <path d="m97.68,18.25h8.45c-1.04.89-7.1.99-8.45,0Z"/>
  <path d="m335.26,18.32c-1.5.82-7.28.86-8.53,0h8.53Z"/>
  <path d="m79.82,17.3h3.92c-1.26,1.57-2.4,1.61-3.92,0Z"/>
  <path d="m259.93,17.27c1.4,0,2.6,0,1.76,1.29-.32-.04-1.64,1.02-1.75.96-.56-.31.15-1.99,0-2.24Z"/>
  <path class="cls-1" d="m362.42,19.39c0-1.12.07-2.25-.02-3.36-.09-1.08.43-1.28,1.33-1.21,1.97.14,3.31,1.46,3.47,3.7.08,1.18-.02,2.41-.24,3.57-.41,2.11-2.27,2.42-3.86,2.08-.28-.06-.6-.67-.62-1.05-.08-1.24-.03-2.49-.03-3.73,0,0-.02,0-.03,0Z"/>
  <path class="cls-1" d="m185.91,21.42c-.15.64-.21,1.31-.46,1.9-.48,1.15-1.84,1.28-2.36.17-.42-.89-.58-1.97-.58-2.97,0-.94.58-1.67,1.67-1.57,1.01.08,1.56.68,1.6,1.71.01.25,0,.5,0,.74.04,0,.08.02.12.02Z"/>
  <path class="cls-1" d="m310.62,20.45c-.08.88-.12,1.59-.23,2.28-.14.86-.62,1.45-1.53,1.54-.93.09-1.66-.37-1.71-1.25-.11-1.7-.1-3.42.07-5.12.04-.37.98-.93,1.46-.89.56.05,1.32.55,1.55,1.06.34.76.3,1.69.39,2.38Z"/>
  <path class="cls-1" d="m288.27,21.22c.03,2.01-.44,2.91-1.4,3.02-.99.11-1.58-.64-1.81-2.39-.06-.45-.06-.91-.02-1.37.07-.86.36-1.53,1.41-1.55,1.06-.02,1.65.46,1.77,1.5.05.37.05.75.05.79Z"/>
  <path class="cls-1" d="m299.48,20.89c-.17.76-.23,1.69-.59,2.5-.55,1.25-2.16,1.28-2.74.04-.9-1.89-.85-3.88,0-5.77.17-.39,1.02-.73,1.49-.66.53.08,1.23.56,1.41,1.03.31.83.29,1.78.42,2.85Z"/>
  <path class="cls-1" d="m197.09,20.64c-.2.89-.28,1.83-.66,2.63-.21.45-.93.91-1.42.91-.49,0-1.24-.46-1.44-.9-.78-1.78-.74-3.67.02-5.44.21-.48,1.03-.95,1.58-.95.46,0,1.14.58,1.35,1.06.35.82.39,1.76.57,2.7Z"/>
  <path class="cls-1" d="m249.4,20.62c-.76-.61-1.6-.94-1.7-1.43-.19-.92.72-1.19,1.47-1.27.89-.1,1.34.52,1.28,1.3-.03.41-.55.77-1.05,1.4Z"/>
  <path class="cls-1" d="m69.65,20.51c-.79-.59-1.34-1-1.88-1.4.59-.38,1.16-1.03,1.77-1.07.51-.03,1.07.64,1.6,1-.43.43-.86.85-1.49,1.47Z"/>
  <path class="cls-1" d="m375.61,16.49c-.03,1.2-.57,1.84-1.54,1.76-.72-.06-1.3-.36-1.2-1.22.11-.92-.37-2.24,1.34-2.18,1.09.03,1.57.59,1.4,1.64Z"/>
  <path class="cls-1" d="m31.81,16.55c.02,1.06-.57,1.76-1.49,1.73-.9-.03-1.36-.54-1.33-1.42.03-.87-.18-1.93,1.21-2,1.08-.05,1.6.49,1.62,1.69Z"/>
</svg>