<?xml version="1.0" encoding="utf-8"?>
<!-- Generator: Adobe Illustrator 27.3.1, SVG Export Plug-In . SVG Version: 6.00 Build 0)  -->
<svg version="1.1" id="Layer_1" xmlns="http://www.w3.org/2000/svg" xmlns:xlink="http://www.w3.org/1999/xlink" x="0px" y="0px"
	 viewBox="0 0 302.4 315.5" style="enable-background:new 0 0 302.4 315.5;" xml:space="preserve">
<style type="text/css">
	.st0{fill:none;stroke:#000000;stroke-width:2;stroke-miterlimit:10;}
	.st1{fill:none;stroke:#000000;stroke-miterlimit:10;}
	.st2{fill:none;stroke:#000000;stroke-miterlimit:10;stroke-dasharray:6.0745,6.0745;}
	.st3{fill:none;stroke:#000000;stroke-miterlimit:10;stroke-dasharray:6;}
	.st4{stroke:#000000;stroke-miterlimit:10;}
	.st5{font-family:'MyriadPro-Regular';}
	.st6{font-size:12px;}
</style>
<ellipse class="st0" cx="150.8" cy="172.5" rx="133.1" ry="115.2"/>
<path class="st1" d="M147.3,287.8c38.6,0,69.8-51.6,69.8-115.2S185.9,57.3,147.3,57.3"/>
<path class="st1" d="M151.8,287.8c-25.1,0-45.4-51.4-45.4-114.7s20.3-114.7,45.4-114.7"/>
<path class="st1" d="M282.2,175c0,15.6-59.2,28.2-132.3,28.2S17.7,190.5,17.7,175"/>
<g>
	<g>
		<path class="st1" d="M17.7,175c0-1,0.2-1.9,0.7-2.9"/>
		<path class="st2" d="M22.3,167.5c15.3-12,66.6-20.8,127.6-20.8c64.4,0,118.1,9.8,129.9,22.8"/>
		<path class="st1" d="M281.5,172.1c0.5,1,0.7,1.9,0.7,2.9"/>
	</g>
</g>
<line class="st3" x1="150.8" y1="58.3" x2="150.8" y2="287.8"/>
<line class="st3" x1="150.8" y1="175" x2="215.2" y2="199.5"/>
<path class="st3" d="M107.8,201.7c10.8-6.2,20.3-13.9,31.1-20c3.9-2.2,7.9-4.5,11.8-6.7"/>
<path class="st1" d="M138.8,182.2c1.2,1,5.3,4.4,11.5,4.5c8.2,0.2,13.3-5.3,14.1-6.2"/>
<path class="st1" d="M169,180.6c0.6-1.1,3.3-6.1,1.7-12.2c-1.5-5.7-6.3-10.1-12.4-11.6"/>
<line class="st4" x1="150.8" y1="173" x2="217.1" y2="14.2"/>
<circle class="st4" cx="107.8" cy="201.7" r="1.9"/>
<circle class="st4" cx="214.5" cy="199.2" r="1.9"/>
<circle class="st4" cx="189.4" cy="80.5" r="1.9"/>
<line class="st1" x1="158.3" y1="156.8" x2="164.8" y2="161.8"/>
<line class="st1" x1="166.5" y1="157.9" x2="158.3" y2="156.8"/>
<g>
	<path d="M200.7,48.8l-9.3-3.9l0.4-1l0.9,0.4c-0.2-0.4-0.4-0.8-0.4-1.1s0-0.8,0.2-1.2c0.2-0.6,0.6-1,1.1-1.3s1-0.5,1.7-0.5
		s1.3,0.1,1.9,0.4c0.7,0.3,1.3,0.7,1.7,1.1s0.7,1,0.8,1.6c0.1,0.6,0,1.1-0.2,1.7c-0.2,0.4-0.4,0.7-0.7,0.9c-0.3,0.2-0.6,0.4-0.9,0.5
		l3.3,1.4L200.7,48.8z M195.2,45.4c0.9,0.4,1.6,0.5,2.1,0.3c0.6-0.2,0.9-0.5,1.1-1c0.2-0.5,0.2-1-0.1-1.6c-0.3-0.5-0.9-1-1.8-1.4
		c-0.9-0.4-1.6-0.4-2.1-0.3c-0.6,0.2-1,0.5-1.2,1c-0.2,0.5-0.2,1,0.1,1.6S194.4,45,195.2,45.4z"/>
	<path d="M193.2,37.3l-1.3-0.5l0.5-1.1l1.3,0.5L193.2,37.3z M201.1,40.6l-6.7-2.8l0.5-1.1l6.7,2.8L201.1,40.6z"/>
	<path d="M198.8,36.7c-1.2-0.5-2-1.2-2.3-2.2c-0.3-0.8-0.2-1.6,0.1-2.4c0.4-0.9,1-1.5,1.8-1.9c0.8-0.3,1.8-0.3,2.9,0.2
		c0.9,0.4,1.5,0.8,1.9,1.2c0.4,0.5,0.6,1,0.7,1.6c0.1,0.6,0,1.2-0.3,1.8c-0.4,0.9-1,1.6-1.9,1.9C200.9,37.3,199.9,37.2,198.8,36.7z
		 M199.3,35.6c0.9,0.4,1.6,0.4,2.2,0.2c0.6-0.2,1-0.6,1.2-1.1c0.2-0.6,0.2-1.1-0.1-1.7c-0.3-0.6-0.8-1-1.7-1.4
		c-0.8-0.3-1.5-0.4-2.1-0.2c-0.6,0.2-1,0.6-1.2,1.1c-0.2,0.6-0.2,1.1,0,1.7C197.8,34.8,198.4,35.2,199.3,35.6z"/>
	<path d="M205.3,30.5l-6.7-2.8l0.4-1l1,0.4c-0.5-0.8-0.6-1.7-0.2-2.6c0.2-0.4,0.4-0.7,0.7-1c0.3-0.3,0.6-0.5,0.9-0.5s0.6-0.1,1,0
		c0.2,0,0.6,0.2,1.1,0.4l4.1,1.7l-0.5,1.1l-4.1-1.7c-0.5-0.2-0.8-0.3-1.1-0.3s-0.5,0.1-0.7,0.2c-0.2,0.2-0.4,0.4-0.5,0.7
		c-0.2,0.5-0.2,1-0.1,1.4c0.2,0.5,0.7,0.9,1.5,1.3l3.7,1.5L205.3,30.5z"/>
</g>
<g>
	<path d="M36,201.4l1.7-7l1.1,0.3l-0.3,1.1c0.4-0.4,0.7-0.7,1-0.8c0.3-0.1,0.5-0.1,0.8,0c0.4,0.1,0.8,0.3,1.1,0.7l-0.7,1
		c-0.2-0.2-0.5-0.4-0.8-0.5c-0.3-0.1-0.5,0-0.8,0.1c-0.2,0.1-0.4,0.3-0.6,0.5c-0.2,0.4-0.4,0.8-0.5,1.3l-0.9,3.7L36,201.4z"/>
	<path d="M40.9,198.9c0.3-1.3,0.9-2.2,1.8-2.6c0.7-0.4,1.5-0.4,2.4-0.2c1,0.2,1.7,0.8,2.1,1.5c0.5,0.8,0.5,1.7,0.3,2.9
		c-0.2,0.9-0.5,1.6-0.9,2c-0.4,0.5-0.9,0.8-1.5,0.9c-0.6,0.2-1.2,0.2-1.8,0c-1-0.2-1.7-0.8-2.2-1.5C40.7,201,40.6,200.1,40.9,198.9z
		 M42.2,199.2c-0.2,0.9-0.2,1.6,0.1,2.2c0.3,0.5,0.7,0.9,1.3,1c0.6,0.1,1.1,0,1.6-0.3s0.9-1,1.1-1.9c0.2-0.9,0.2-1.6-0.1-2.1
		c-0.3-0.5-0.7-0.9-1.3-1c-0.6-0.1-1.1,0-1.7,0.3C42.7,197.6,42.4,198.3,42.2,199.2z M44.7,195.1l1.3-1.6l1.6,0.4l-1.9,1.5
		L44.7,195.1z"/>
	<path d="M49.4,204.7l-0.4-7.6l1.2,0.3l0.1,4.3l0,1.6c0-0.1,0.3-0.5,0.7-1.4l2.1-3.8l1.2,0.3l0,4.3l0,1.4l0.7-1.3l2.2-3.8l1.2,0.3
		l-4,6.5l-1.2-0.3l-0.1-4.5l0-1.3l-2.8,5.1L49.4,204.7z"/>
	<path d="M57.9,206.8l1.7-7l1.1,0.3l-0.2,1c0.7-0.6,1.6-0.8,2.5-0.6c0.4,0.1,0.8,0.3,1.1,0.5c0.3,0.2,0.5,0.5,0.7,0.8
		c0.1,0.3,0.2,0.6,0.2,1c0,0.2-0.1,0.6-0.2,1.2l-1.1,4.3l-1.2-0.3l1.1-4.3c0.1-0.5,0.2-0.9,0.1-1.1c0-0.3-0.2-0.5-0.4-0.7
		c-0.2-0.2-0.5-0.3-0.8-0.4c-0.5-0.1-1-0.1-1.4,0.2s-0.8,0.8-1,1.7l-1,3.8L57.9,206.8z"/>
	<path d="M67.5,200.3l0.3-1.4l1.2,0.3l-0.3,1.4L67.5,200.3z M65.4,208.7l1.7-7l1.2,0.3l-1.7,7L65.4,208.7z"/>
	<path d="M68.4,209.4l2.4-9.7l1.2,0.3l-1.4,5.5l3.5-2.2l1.5,0.4l-3.3,1.9l1.9,5.2l-1.5-0.4l-1.4-4.2l-1,0.6l-0.7,2.8L68.4,209.4z"/>
</g>
<g>
	<path d="M116.9,184.1l-7.8-0.7l0.3-3c0-0.5,0.1-0.9,0.2-1.2c0.1-0.4,0.2-0.7,0.4-0.9c0.2-0.2,0.5-0.4,0.8-0.6
		c0.3-0.1,0.7-0.2,1.1-0.1c0.7,0.1,1.2,0.3,1.6,0.8c0.4,0.5,0.6,1.3,0.5,2.4l-0.2,2l3.2,0.3L116.9,184.1z M112.8,182.7l0.2-2
		c0.1-0.7,0-1.2-0.3-1.5c-0.2-0.3-0.6-0.5-1-0.5c-0.3,0-0.6,0-0.9,0.2c-0.2,0.1-0.4,0.4-0.5,0.6c-0.1,0.2-0.1,0.5-0.2,1l-0.2,2
		L112.8,182.7z"/>
	<path d="M114.6,177c-1.1-0.1-1.8-0.4-2.3-1.1c-0.4-0.5-0.5-1.1-0.5-1.8c0.1-0.8,0.4-1.4,0.9-1.9c0.6-0.5,1.3-0.6,2.2-0.6
		c0.7,0.1,1.3,0.2,1.7,0.5c0.4,0.3,0.7,0.6,0.9,1c0.2,0.4,0.3,0.9,0.2,1.4c-0.1,0.8-0.4,1.4-0.9,1.9
		C116.3,176.9,115.6,177.1,114.6,177z M114.7,176c0.7,0.1,1.3-0.1,1.7-0.3c0.4-0.3,0.6-0.7,0.6-1.2c0-0.5-0.1-0.9-0.4-1.2
		c-0.3-0.3-0.9-0.6-1.6-0.6c-0.7-0.1-1.2,0.1-1.6,0.3c-0.4,0.3-0.6,0.7-0.6,1.1c0,0.5,0.1,0.9,0.4,1.2
		C113.4,175.8,114,176,114.7,176z"/>
	<path d="M114.9,170.6l0.5,0.7l-0.8-0.1l-0.5-0.7l-3.9-0.3l0.1-1l3.1,0.3l-0.6-0.8l0.8,0.1l0.6,0.8l3.9,0.3l-0.1,1L114.9,170.6z"/>
	<path d="M118.5,164.7l-0.8-0.1c0.6,0.5,0.9,1.1,0.8,1.9c0,0.3-0.1,0.6-0.3,0.9c-0.2,0.3-0.3,0.5-0.5,0.6c-0.2,0.1-0.5,0.2-0.7,0.2
		c-0.2,0-0.5,0-0.9,0l-3.5-0.3l0.1-1l3.2,0.3c0.5,0,0.8,0.1,1,0c0.3,0,0.5-0.2,0.6-0.3c0.2-0.2,0.3-0.4,0.3-0.7c0-0.3,0-0.6-0.2-0.8
		s-0.3-0.5-0.6-0.6c-0.2-0.1-0.6-0.2-1.1-0.3l-3-0.3l0.1-1l5.7,0.5L118.5,164.7z"/>
	<path d="M119,158.6l-0.7-0.1c0.5,0.4,0.8,1,0.7,1.7c0,0.5-0.2,0.9-0.5,1.2c-0.3,0.4-0.7,0.6-1.1,0.8c-0.5,0.2-1,0.2-1.6,0.2
		c-0.6,0-1.1-0.2-1.5-0.4c-0.4-0.2-0.8-0.5-1-0.9c-0.2-0.4-0.3-0.8-0.3-1.3c0-0.3,0.1-0.6,0.3-0.9c0.2-0.3,0.4-0.5,0.6-0.6l-2.8-0.2
		l0.1-1l7.8,0.7L119,158.6z M115.9,161.4c0.7,0.1,1.3,0,1.7-0.3c0.4-0.3,0.6-0.6,0.6-1c0-0.4-0.1-0.8-0.4-1.1
		c-0.3-0.3-0.8-0.5-1.5-0.6c-0.8-0.1-1.4,0-1.8,0.3c-0.4,0.3-0.6,0.6-0.6,1.1c0,0.4,0.1,0.8,0.4,1.1
		C114.6,161.2,115.2,161.3,115.9,161.4z"/>
	<path d="M119.2,156.2l-5.7-0.5l0.1-0.9l0.8,0.1c-0.6-0.5-0.9-1.1-0.8-1.9c0-0.3,0.1-0.7,0.3-0.9c0.1-0.3,0.3-0.5,0.5-0.6
		c0.2-0.1,0.5-0.2,0.7-0.2c0.2,0,0.5,0,0.9,0l3.5,0.3l-0.1,1l-3.5-0.3c-0.4,0-0.7,0-0.9,0s-0.4,0.2-0.5,0.4
		c-0.1,0.2-0.2,0.4-0.2,0.7c0,0.4,0.1,0.8,0.3,1.1c0.2,0.3,0.7,0.5,1.4,0.6l3.1,0.3L119.2,156.2z"/>
	<path d="M113,149.5l-1.1-0.1l0.1-1l1.1,0.1L113,149.5z M119.8,150.1l-5.7-0.5l0.1-1l5.7,0.5L119.8,150.1z"/>
	<path d="M120,147.7l-7.8-0.7l0.1-1l4.5,0.4l-2.1-2.5l0.1-1.2l1.9,2.4l3.8-2.1l-0.1,1.2l-3.1,1.6l0.6,0.7l2.3,0.2L120,147.7z"/>
	<path d="M120.6,139.6l-0.8-0.1l-3.8-4c0,0.4,0,0.8-0.1,1.1l-0.2,2.3L115,139l0.4-4.6l0.6,0.1l3.3,3.4l0.6,0.6c0-0.4,0-0.8,0.1-1.2
		l0.2-2.6l0.8,0.1L120.6,139.6z"/>
	<path d="M119.6,129.6l0.2-1c0.6,0.2,1,0.5,1.3,1c0.3,0.5,0.4,1,0.3,1.7c-0.1,0.8-0.4,1.5-0.9,1.9c-0.6,0.4-1.3,0.6-2.2,0.5
		c-1-0.1-1.7-0.4-2.2-0.9c-0.5-0.5-0.7-1.2-0.6-2c0.1-0.8,0.4-1.4,0.9-1.8c0.6-0.4,1.3-0.6,2.2-0.5c0.1,0,0.1,0,0.3,0l-0.4,4.2
		c0.6,0,1.1-0.1,1.5-0.4c0.4-0.3,0.6-0.7,0.6-1.1c0-0.4,0-0.7-0.2-0.9C120.3,130,120,129.8,119.6,129.6z M117.8,132.6l0.3-3.2
		c-0.5,0-0.8,0.1-1.1,0.3c-0.4,0.3-0.6,0.7-0.7,1.1c0,0.4,0.1,0.8,0.4,1.2C116.9,132.4,117.3,132.6,117.8,132.6z"/>
	<path d="M121.7,127.6l-5.7-0.5l0.1-0.9l0.9,0.1c-0.4-0.3-0.6-0.5-0.7-0.7c-0.1-0.2-0.2-0.4-0.1-0.6c0-0.3,0.2-0.6,0.4-1l0.9,0.4
		c-0.2,0.2-0.2,0.5-0.3,0.7c0,0.2,0,0.4,0.1,0.6c0.1,0.2,0.3,0.3,0.5,0.4c0.3,0.1,0.7,0.2,1.1,0.3l3,0.3L121.7,127.6z"/>
	<path d="M119.1,124c-1.1-0.1-1.8-0.4-2.3-1.1c-0.4-0.5-0.5-1.1-0.5-1.8c0.1-0.8,0.4-1.4,0.9-1.9c0.6-0.5,1.3-0.6,2.2-0.6
		c0.7,0.1,1.3,0.2,1.7,0.5c0.4,0.3,0.7,0.6,0.9,1c0.2,0.4,0.3,0.9,0.2,1.4c-0.1,0.8-0.4,1.4-0.9,1.9
		C120.8,123.9,120.1,124.1,119.1,124z M119.2,123c0.7,0.1,1.3-0.1,1.7-0.3c0.4-0.3,0.6-0.7,0.6-1.2c0-0.5-0.1-0.9-0.4-1.2
		c-0.3-0.3-0.9-0.6-1.6-0.6c-0.7-0.1-1.2,0.1-1.6,0.3c-0.4,0.3-0.6,0.7-0.6,1.1c0,0.5,0.1,0.9,0.4,1.2S118.5,123,119.2,123z"/>
	<path d="M122.6,116.8l-5.8,1.3l0.1-1l3.4-0.6l1.2-0.2c-0.1,0-0.4-0.2-1.1-0.4l-3.3-1.2l0.1-1l3.4-0.6l1.1-0.2l-1.1-0.4l-3.2-1.3
		l0.1-0.9l5.5,2.3l-0.1,1l-3.5,0.6l-1,0.1l4.3,1.5L122.6,116.8z"/>
	<path d="M125.3,110.1l-0.9,0c0.1-0.2,0.1-0.4,0.1-0.5c0-0.2,0-0.4-0.1-0.5c-0.1-0.1-0.2-0.2-0.3-0.3c-0.1-0.1-0.3-0.2-0.7-0.4
		c-0.1,0-0.1-0.1-0.2-0.1l-5.9,1.7l0.1-1l3.4-0.9c0.4-0.1,0.9-0.2,1.4-0.3c-0.4-0.1-0.9-0.3-1.3-0.5l-3.2-1.5l0.1-1l5.6,2.7
		c0.6,0.3,1,0.5,1.2,0.6c0.3,0.2,0.5,0.4,0.6,0.6c0.1,0.2,0.2,0.5,0.2,0.8C125.5,109.7,125.4,109.9,125.3,110.1z"/>
</g>
<g>
	<path d="M231,193l-7.8,0.9l-0.3-3c-0.1-0.5-0.1-0.9-0.1-1.2c0-0.4,0.1-0.7,0.3-1c0.2-0.3,0.4-0.5,0.7-0.7s0.7-0.3,1-0.4
		c0.7-0.1,1.3,0.1,1.8,0.4c0.5,0.4,0.8,1.1,1,2.2l0.2,2l3.2-0.4L231,193z M226.8,192.4l-0.2-2c-0.1-0.7-0.3-1.1-0.5-1.4
		c-0.3-0.3-0.6-0.4-1.1-0.3c-0.3,0-0.6,0.2-0.8,0.3c-0.2,0.2-0.3,0.4-0.4,0.7c0,0.2,0,0.5,0,1l0.2,2L226.8,192.4z"/>
	<path d="M227.4,186.5c-1,0.1-1.9-0.1-2.4-0.6c-0.5-0.4-0.8-1-0.8-1.7c-0.1-0.8,0.1-1.4,0.5-2c0.5-0.6,1.1-0.9,2-1
		c0.7-0.1,1.3,0,1.8,0.1c0.4,0.2,0.8,0.5,1.1,0.8c0.3,0.4,0.4,0.8,0.5,1.3c0.1,0.8-0.1,1.5-0.5,2C229.1,186,228.4,186.4,227.4,186.5
		z M227.3,185.5c0.7-0.1,1.3-0.3,1.6-0.7c0.3-0.4,0.5-0.8,0.4-1.3c-0.1-0.5-0.3-0.9-0.7-1.1c-0.4-0.3-1-0.4-1.7-0.3
		c-0.7,0.1-1.2,0.3-1.5,0.7s-0.5,0.8-0.4,1.2c0.1,0.5,0.3,0.9,0.7,1.1C226,185.5,226.6,185.6,227.3,185.5z"/>
	<path d="M226.5,180.1l0.7,0.6l-0.8,0.1l-0.7-0.6l-3.9,0.4l-0.1-1l3.1-0.4l-0.7-0.7l0.8-0.1l0.7,0.7l3.9-0.4l0.1,1L226.5,180.1z"/>
	<path d="M228.8,173.6l-0.8,0.1c0.7,0.4,1.1,0.9,1.2,1.7c0,0.3,0,0.7-0.1,1c-0.1,0.3-0.2,0.5-0.4,0.7c-0.2,0.2-0.4,0.3-0.7,0.4
		c-0.2,0.1-0.5,0.1-0.9,0.2l-3.5,0.4l-0.1-1l3.1-0.4c0.5-0.1,0.8-0.1,1-0.2c0.2-0.1,0.4-0.2,0.6-0.5c0.1-0.2,0.2-0.5,0.1-0.8
		c0-0.3-0.1-0.6-0.3-0.8c-0.2-0.2-0.4-0.4-0.7-0.5s-0.6-0.1-1.1,0l-3,0.3l-0.1-1l5.7-0.6L228.8,173.6z"/>
	<path d="M228.2,167.5l-0.7,0.1c0.6,0.3,0.9,0.8,1,1.5c0.1,0.5,0,0.9-0.2,1.3c-0.2,0.4-0.5,0.7-0.9,1c-0.4,0.3-0.9,0.4-1.5,0.5
		c-0.6,0.1-1.1,0-1.6-0.1c-0.5-0.1-0.9-0.4-1.2-0.7c-0.3-0.3-0.5-0.8-0.5-1.2c0-0.3,0-0.7,0.1-0.9c0.1-0.3,0.3-0.5,0.5-0.7l-2.8,0.3
		l-0.1-1l7.8-0.9L228.2,167.5z M225.7,170.9c0.7-0.1,1.3-0.3,1.6-0.6c0.3-0.3,0.5-0.7,0.4-1.1c0-0.4-0.3-0.8-0.6-1
		c-0.4-0.3-0.9-0.3-1.6-0.3c-0.8,0.1-1.3,0.3-1.7,0.6c-0.3,0.3-0.5,0.7-0.4,1.2c0,0.4,0.3,0.8,0.6,1
		C224.4,170.9,224.9,171,225.7,170.9z"/>
	<path d="M227.9,165.1l-5.7,0.6l-0.1-0.9l0.8-0.1c-0.7-0.3-1-0.9-1.1-1.7c0-0.3,0-0.7,0.1-1c0.1-0.3,0.2-0.5,0.4-0.7
		c0.2-0.2,0.4-0.3,0.7-0.4c0.2-0.1,0.5-0.1,0.9-0.2l3.5-0.4l0.1,1l-3.4,0.4c-0.4,0-0.7,0.1-0.9,0.2c-0.2,0.1-0.3,0.2-0.4,0.5
		c-0.1,0.2-0.1,0.4-0.1,0.7c0,0.4,0.2,0.7,0.5,1c0.3,0.3,0.8,0.4,1.5,0.3l3.1-0.3L227.9,165.1z"/>
	<path d="M220.5,159.8l-1.1,0.1l-0.1-1l1.1-0.1L220.5,159.8z M227.2,159l-5.7,0.6l-0.1-1l5.7-0.6L227.2,159z"/>
	<path d="M226.9,156.6l-7.8,0.9l-0.1-1l4.5-0.5l-2.6-2l-0.1-1.2l2.3,1.9l3.3-2.8l0.1,1.2l-2.7,2.2l0.7,0.6l2.2-0.3L226.9,156.6z"/>
	<path d="M228.1,147.9l-7.8,0.9l-0.1-0.9l0.7-0.1c-0.3-0.2-0.6-0.4-0.7-0.6c-0.2-0.2-0.3-0.6-0.3-0.9c-0.1-0.5,0-0.9,0.2-1.3
		c0.2-0.4,0.5-0.7,1-1c0.4-0.2,0.9-0.4,1.5-0.5c0.6-0.1,1.1,0,1.6,0.1c0.5,0.2,0.9,0.4,1.2,0.8c0.3,0.4,0.5,0.8,0.5,1.2
		c0,0.3,0,0.6-0.1,0.9c-0.1,0.3-0.3,0.5-0.4,0.7l2.8-0.3L228.1,147.9z M223.1,147.6c0.7-0.1,1.3-0.3,1.6-0.6
		c0.3-0.3,0.4-0.7,0.4-1.1c0-0.4-0.3-0.8-0.7-1c-0.4-0.3-1-0.4-1.7-0.3c-0.7,0.1-1.2,0.3-1.6,0.6c-0.3,0.3-0.5,0.7-0.4,1.1
		c0,0.4,0.3,0.7,0.7,1C221.8,147.5,222.3,147.6,223.1,147.6z"/>
	<path d="M224.9,138.3l-0.8,0.1c0.7,0.4,1.1,0.9,1.2,1.7c0,0.3,0,0.7-0.1,1c-0.1,0.3-0.2,0.5-0.4,0.7c-0.2,0.2-0.4,0.3-0.7,0.4
		c-0.2,0.1-0.5,0.1-0.9,0.2l-3.5,0.4l-0.1-1l3.1-0.4c0.5-0.1,0.8-0.1,1-0.2c0.2-0.1,0.4-0.2,0.6-0.5c0.1-0.2,0.2-0.5,0.1-0.8
		c0-0.3-0.1-0.6-0.3-0.8c-0.2-0.2-0.4-0.4-0.7-0.5s-0.6-0.1-1.1,0l-3,0.3l-0.1-1l5.7-0.6L224.9,138.3z"/>
	<path d="M224.6,136l-5.7,0.6l-0.1-0.9l0.8-0.1c-0.7-0.3-1-0.9-1.1-1.7c0-0.3,0-0.7,0.1-1c0.1-0.3,0.2-0.5,0.4-0.7
		c0.2-0.2,0.4-0.3,0.7-0.4c0.2-0.1,0.5-0.1,0.9-0.2l3.5-0.4l0.1,1l-3.4,0.4c-0.4,0-0.7,0.1-0.9,0.2c-0.2,0.1-0.3,0.2-0.4,0.5
		c-0.1,0.2-0.1,0.4-0.1,0.7c0,0.4,0.2,0.7,0.5,1c0.3,0.3,0.8,0.4,1.5,0.3l3.1-0.3L224.6,136z"/>
	<path d="M223.9,129.9l-7.8,0.9l-0.1-1l4.5-0.5l-2.6-2l-0.1-1.2l2.3,1.9l3.3-2.8l0.1,1.2l-2.7,2.2l0.7,0.6l2.2-0.3L223.9,129.9z"/>
	<path d="M222.2,122.4l0.8-0.2c0.1,0.3,0.1,0.5,0.2,0.7c0,0.3,0,0.6-0.1,0.8c-0.1,0.2-0.2,0.4-0.4,0.5c-0.2,0.1-0.5,0.2-1.1,0.2
		l-3.3,0.4l0.1,0.7l-0.7,0.1l-0.1-0.7l-1.4,0.2l-0.7-0.9l2-0.2l-0.1-1l0.7-0.1l0.1,1l3.3-0.4c0.3,0,0.4-0.1,0.5-0.1
		c0.1,0,0.1-0.1,0.2-0.2c0-0.1,0-0.2,0-0.3C222.3,122.7,222.2,122.6,222.2,122.4z"/>
	<path d="M222.5,117.7l-0.8,0.1c0.7,0.4,1.1,0.9,1.2,1.7c0,0.3,0,0.7-0.1,1c-0.1,0.3-0.2,0.5-0.4,0.7c-0.2,0.2-0.4,0.3-0.7,0.4
		c-0.2,0.1-0.5,0.1-0.9,0.2l-3.5,0.4l-0.1-1l3.1-0.4c0.5-0.1,0.8-0.1,1-0.2c0.2-0.1,0.4-0.2,0.6-0.5c0.1-0.2,0.2-0.5,0.1-0.8
		c0-0.3-0.1-0.6-0.3-0.8c-0.2-0.2-0.4-0.4-0.7-0.5s-0.6-0.1-1.1,0l-3,0.3l-0.1-1l5.7-0.6L222.5,117.7z"/>
	<path d="M221.9,112.2l-7.8,0.9l-0.2-1.6l5.3-2.5c0.5-0.2,0.9-0.4,1.1-0.5c-0.3-0.1-0.7-0.1-1.3-0.3l-5.7-1.3l-0.2-1.4l7.8-0.9
		l0.1,1l-6.5,0.7l6.8,1.5l0.1,0.9l-6.4,3l6.7-0.8L221.9,112.2z"/>
</g>
<g>
	<path d="M149.8,53.6v-7.9h3c0.5,0,0.9,0,1.2,0.1c0.4,0.1,0.7,0.2,1,0.4c0.3,0.2,0.5,0.4,0.6,0.8s0.2,0.7,0.2,1.1
		c0,0.7-0.2,1.2-0.6,1.7c-0.4,0.5-1.2,0.7-2.3,0.7h-2v3.2H149.8z M150.8,49.5h2c0.7,0,1.2-0.1,1.4-0.4c0.3-0.3,0.4-0.6,0.4-1.1
		c0-0.3-0.1-0.6-0.2-0.8c-0.2-0.2-0.4-0.4-0.7-0.5c-0.2,0-0.5-0.1-1-0.1h-2V49.5z"/>
</g>
<g>
	<path d="M149.6,299.1v-7.9h3c0.5,0,0.9,0,1.2,0.1c0.4,0.1,0.7,0.2,1,0.4c0.3,0.2,0.5,0.4,0.6,0.8c0.2,0.3,0.2,0.7,0.2,1.1
		c0,0.7-0.2,1.2-0.6,1.7c-0.4,0.5-1.2,0.7-2.3,0.7h-2v3.2H149.6z M150.7,294.9h2c0.7,0,1.2-0.1,1.4-0.4c0.3-0.3,0.4-0.6,0.4-1.1
		c0-0.3-0.1-0.6-0.2-0.8c-0.2-0.2-0.4-0.4-0.7-0.5c-0.2,0-0.5-0.1-1-0.1h-2V294.9z"/>
	<path d="M157.9,295.1v-3c-0.4,0.3-0.8,0.5-1.2,0.6v-0.7c0.2-0.1,0.5-0.2,0.7-0.4c0.3-0.2,0.5-0.4,0.7-0.6h0.6v4H157.9z"/>
</g>
<g>
	<path d="M184.2,72.9V65h1.6l1.9,5.6c0.2,0.5,0.3,0.9,0.4,1.2c0.1-0.3,0.2-0.7,0.4-1.3l1.9-5.5h1.4v7.9h-1v-6.6l-2.3,6.6h-0.9
		l-2.3-6.7v6.7H184.2z"/>
</g>
<g>
	<path d="M146.6,172.5l1,0.3c-0.2,0.9-0.6,1.5-1.2,2c-0.6,0.4-1.3,0.7-2.1,0.7c-0.8,0-1.5-0.2-2.1-0.5c-0.5-0.3-0.9-0.8-1.2-1.5
		c-0.3-0.7-0.4-1.4-0.4-2.1c0-0.8,0.2-1.5,0.5-2.1c0.3-0.6,0.8-1.1,1.3-1.4c0.6-0.3,1.2-0.5,1.9-0.5c0.8,0,1.5,0.2,2,0.6
		s0.9,1,1.1,1.7l-1,0.2c-0.2-0.6-0.4-1-0.8-1.3s-0.8-0.4-1.3-0.4c-0.6,0-1.1,0.1-1.5,0.4c-0.4,0.3-0.7,0.7-0.9,1.2
		c-0.2,0.5-0.2,1-0.2,1.5c0,0.7,0.1,1.3,0.3,1.8c0.2,0.5,0.5,0.9,0.9,1.1s0.9,0.4,1.3,0.4c0.6,0,1.1-0.2,1.5-0.5
		C146.2,173.7,146.5,173.2,146.6,172.5z"/>
</g>
<g>
	<path d="M96.2,194.7c0-1.3,0.4-2.3,1.1-3.1s1.6-1.1,2.7-1.1c0.7,0,1.4,0.2,2,0.5c0.6,0.3,1,0.8,1.3,1.5c0.3,0.6,0.5,1.3,0.5,2.1
		c0,0.8-0.2,1.5-0.5,2.1c-0.3,0.6-0.8,1.1-1.4,1.4s-1.2,0.5-1.9,0.5c-0.7,0-1.4-0.2-2-0.5c-0.6-0.4-1-0.8-1.3-1.5
		C96.4,196,96.2,195.4,96.2,194.7z M97.3,194.7c0,0.9,0.3,1.7,0.8,2.2c0.5,0.5,1.2,0.8,1.9,0.8c0.8,0,1.4-0.3,1.9-0.8
		c0.5-0.6,0.8-1.3,0.8-2.3c0-0.6-0.1-1.2-0.3-1.7c-0.2-0.5-0.5-0.8-1-1.1c-0.4-0.3-0.9-0.4-1.4-0.4c-0.7,0-1.4,0.3-1.9,0.8
		C97.6,192.7,97.3,193.5,97.3,194.7z"/>
</g>
<g>
	<path d="M205.7,210v-7.9h1.1l4.1,6.2v-6.2h1v7.9h-1.1l-4.1-6.2v6.2H205.7z"/>
</g>
<g>
	<path d="M163.9,191l-1.6,4.3h-1l2.1-5.6l-0.8-2.3h1l2.9,7.9h-1L163.9,191z"/>
</g>
<text transform="matrix(1 0 0 1 160.8578 172.4504)" class="st5 st6">φ</text>
</svg>
