<?xml version="1.0" encoding="UTF-8"?>
<svg id="Layer_1" data-name="Layer 1" xmlns="http://www.w3.org/2000/svg" viewBox="0 0 375 378">
  <defs>
    <style>
      .cls-1 {
        fill: #fff;
      }
    </style>
  </defs>
  <path class="cls-1" d="m375,378H0V0h375v378Zm-175.92-60.76c4.49,0,8.98,0,13.46-.01.48,0,1.18,0,1.4-.28.66-.85,1.5-.76,2.37-.75,1.33,0,2.66.04,3.99.01.39,0,.93-.07,1.13-.32.69-.84,1.54-.82,2.48-.76,1.33.08,2.66.05,3.99.04.32,0,.78-.04.93-.24.83-1.18,2.01-.94,3.16-.94.38,0,.95-.05,1.11-.29.51-.78,1.25-.87,1.97-.72,2.59.55,4.76-1.51,7.31-1.11.18.03.39-.29.61-.38.62-.25,1.26-.48,1.9-.69.3-.1.77-.03.92-.22.61-.82,1.42-.89,2.32-.86.34,0,.71-.17,1.02-.35,1.03-.57,1.99-1.47,3.09-1.7,1.17-.24,2.22-.49,3.31-1.05,2.08-1.08,4.32-1.84,6.47-2.78,1.05-.46,2.03-1.42,3.07-1.46,1.77-.07,3.03-1.06,4.44-1.76,1.43-.71,2.68-1.75,4.06-2.57,1.64-.96,3.68-1.27,4.81-3.05.1-.16.32-.28.51-.34,2.06-.63,3.73-1.83,5.1-3.48.27-.33.73-.52,1.11-.75.48-.28,1.04-.47,1.45-.83,1.15-1.01,2.09-2.43,3.41-3.05,2.01-.95,3.31-2.58,4.86-3.99.24-.22.48-.56.77-.61,2.42-.42,3.1-3.46,5.62-3.7,3.28-3.24,6.57-6.47,9.84-9.72.35-.35.59-.8.88-1.2.74-1.03,1.44-2.1,2.24-3.09.65-.8,1.77-1.39,2.07-2.27.46-1.37,1.45-2.18,2.31-3.16.87-.99,2.32-1.56,2.31-3.19,0-.13.19-.26.28-.4.75-1.12,1.49-2.25,2.26-3.37.76-1.11,1.54-2.21,2.31-3.32.14-.2.25-.42.37-.63.41-.69.8-1.39,1.23-2.07.24-.38.62-.68.82-1.08.93-1.9,1.87-3.8,2.7-5.75,1.6-3.72,4.16-6.95,5.12-11.02.6-2.52,1.92-4.89,3.08-7.26.62-1.27,1-2.51.92-3.92-.02-.4.26-.82.43-1.22.23-.56.58-1.09.72-1.67.2-.83.15-1.73.41-2.53.66-2.06,1.72-4.01,1.67-6.27-.02-.73-.04-1.73.39-2.14.92-.87.73-1.84.81-2.85.11-1.51-.59-3.18.91-4.44.18-.15.09-.63.09-.96,0-2.91-.04-5.82.02-8.73.01-.55.42-1.08.64-1.62.19-.48.51-.97.51-1.45.01-3.82-.03-7.64-.08-11.46,0-.34-.27-.66-.41-1-.24-.58-.65-1.16-.67-1.75-.06-2.74,0-5.49-.01-8.23,0-.45.09-1.08-.16-1.32-1.31-1.29-.72-2.88-.86-4.36-.07-.7.08-1.56-.28-2.05-.91-1.26-.72-2.67-.96-4.04-.29-1.62-.78-3.21-1.19-4.81-.02-.07-.12-.13-.14-.2-.23-.62-.51-1.24-.66-1.88-.17-.71-.11-1.49-.34-2.17-.57-1.7-1.31-3.34-1.87-5.04-.48-1.42-.66-2.95-1.24-4.33-.72-1.74-2.13-3.2-2.09-5.25,0-.18-.18-.37-.27-.55-1.69-3.29-3.39-6.57-5.08-9.86-.89-1.73-1.71-3.5-2.71-5.17-1.14-1.91-2.46-3.71-3.67-5.57-.89-1.38-1.65-2.86-2.65-4.16-.64-.83-1.65-1.36-1.74-2.6-.02-.29-.46-.55-.7-.83-2.15-2.59-4.31-5.19-6.45-7.79-.13-.15-.16-.39-.27-.56-.45-.68-.79-1.52-1.4-2.01-3.61-2.87-6.12-6.93-10.29-9.26-1.94-1.09-3.28-3.09-5.28-4.36-2.82-1.8-5.21-4.27-7.8-6.45-.21-.18-.52-.23-.77-.37-.56-.31-1.19-.55-1.66-.97-1.54-1.37-2.71-3.18-4.77-3.89-1.16-.4-2.08-1.07-2.9-1.98-.34-.38-.92-.55-1.37-.83-2.13-1.33-4.81-1.7-6.51-3.78-.12-.14-.37-.26-.55-.25-1.9.15-3.23-1.18-4.82-1.83-2.9-1.18-5.35-3.37-8.6-3.76-.22-.03-.41-.28-.64-.37-.52-.21-1.05-.53-1.58-.54-1.6-.03-2.73-1.63-4.42-1.28-.03,0-.07-.04-.1-.07-1.62-1.2-3.3-2.19-5.45-1.93-.3.04-.63-.15-.94-.25-.84-.25-1.67-.51-2.51-.74-.63-.17-1.46-.09-1.85-.47-.73-.72-1.51-.71-2.39-.74-.67-.02-1.35-.19-2-.37-.6-.16-1.15-.5-1.75-.63-.8-.17-1.63-.15-2.43-.32-.86-.18-1.68-.6-2.54-.69-1.15-.12-2.32,0-3.49-.04-.44-.01-1.04-.02-1.3-.29-.78-.83-1.72-.69-2.67-.69-1.33,0-2.66.06-3.99-.03-.72-.05-1.43-.33-2.13-.54-.65-.19-1.29-.6-1.94-.61-7.85-.05-15.71-.05-23.56-.04-.42,0-.85.2-1.27.34-.59.2-1.15.62-1.74.64-2.16.08-4.32,0-6.48.05-.5.01-.99.29-1.47.48-.54.21-1.04.63-1.58.67-1.41.1-2.82.03-4.24.04-.37,0-.9-.07-1.08.13-1.03,1.13-2.36.8-3.61.91-.32.03-.74.06-.94.27-.8.83-1.81.66-2.8.74-.59.05-1.16.3-1.73.48-.63.2-1.24.49-1.89.63-.67.14-1.65-.12-2.01.25-.82.86-1.74.78-2.73.86-.72.06-1.44.29-2.12.55-1.44.54-2.63,1.79-4.38,1.43-.3-.06-.67.27-1.01.39-1.72.62-3.44,1.25-5.17,1.85-.34.12-.78.02-1.09.17-1.51.75-3.1,1.39-4.45,2.36-3.05,2.18-6.87,2.71-9.93,4.92-2.04,1.47-4.74,1.91-6.53,3.89-.23.25-.66.31-.99.48-1.14.58-2.43.97-3.38,1.78-1.61,1.38-2.87,3.03-4.91,4.04-1.68.83-2.97,2.51-4.68,3.56-1.79,1.1-3.01,2.87-5.02,3.91-2.14,1.12-3.45,3.62-5.85,4.62-3.23,3.75-7.43,6.56-10.07,10.91-1.21,2-3.54,3.26-4.37,5.65-.06.18-.25.33-.4.47-2.59,2.34-4.47,5.2-6.02,8.3-.33.66-.73,1.3-1.16,1.91-1.1,1.58-2.32,3.09-3.31,4.73-.96,1.59-1.8,3.28-2.52,5-1.71,4.08-4.28,7.74-5.47,12.08-.48,1.73-2.12,3.1-2.07,5.14,0,.17-.25.32-.33.51-.22.51-.42,1.04-.62,1.56-.2.53-.39,1.06-.58,1.6-.21.61-.43,1.22-.61,1.85-.1.35,0,.86-.22,1.07-.99.94-.75,2.12-.82,3.26-.03.47-.19.94-.34,1.4-.2.63-.46,1.23-.67,1.86-.09.27-.01.66-.18.83-1.04,1.06-.77,2.37-.85,3.64-.04.69-.04,1.56-.43,2-.7.79-.78,1.6-.72,2.52.05.95.18,1.91.15,2.86-.02.44-.34.87-.53,1.29-.22.49-.63.97-.65,1.47-.07,2.33-.02,4.65-.03,6.98,0,.97.23,2.01-.81,2.71-.17.11-.19.54-.19.82,0,4.65-.01,9.31.02,13.96,0,.37.28.73.43,1.09.2.46.56.91.57,1.37.05,2.12-.02,4.24-.02,6.36,0,1.27-.19,2.58.95,3.59.25.22.25.78.26,1.18.03,1.12,0,2.24,0,3.37,0,.29-.07.72.08.84,1.52,1.12.76,2.74.96,4.14.08.56.2,1.12.36,1.66.18.61.44,1.19.64,1.79.12.39.16.8.28,1.19.24.8.54,1.59.77,2.39.2.69.29,1.41.5,2.09.17.55.54,1.05.65,1.61.15.76-.08,1.66.24,2.31.82,1.67,2.09,3.14,2.06,5.16,0,.14.15.29.23.43.82,1.37,1.87,2.64,1.8,4.38,0,.19.1.4.19.58,1.25,2.43,2.49,4.87,3.76,7.29,1.69,3.21,2.52,6.93,5.42,9.46.12.1.18.28.23.43.54,1.79,1.31,3.45,2.72,4.74.21.19.32.48.47.72,1.05,1.64,1.99,3.37,3.18,4.9,1.93,2.51,4.03,4.88,6.04,7.33.21.25.29.59.46.88.34.56.62,1.19,1.07,1.64,3.55,3.57,7.12,7.1,10.7,10.63.34.33.82.52,1.23.77.51.31,1.05.58,1.51.95.83.67,1.57,1.44,2.41,2.08.6.45,1.39.67,1.96,1.15.91.78,1.7,1.7,2.57,2.54.26.25.58.45.89.65.61.37,1.28.66,1.84,1.09,1.32,1.05,2.59,2.17,3.89,3.24.66.54,1.37,1.02,2.04,1.55.67.53,1.29,1.14,1.98,1.65.68.5,1.42.92,2.12,1.39.31.2.56.5.88.66,1.14.56,2.35,1.02,3.46,1.64,1.51.85,2.88,1.96,4.43,2.7,3.2,1.53,6.52,2.82,9.73,4.32,2.87,1.34,5.71,2.68,8.88,3.29.96.18,1.67,1.4,2.91,1.13.04,0,.09.15.16.18.61.27,1.21.58,1.85.76,1.46.43,2.94.79,4.41,1.19.07.02.15.09.19.15.69,1.12,1.77.84,2.8.84.47,0,1.19-.03,1.36.24.61.92,1.45.83,2.32.85.95.02,2.12-.23,2.79.23,1.08.73,2.13.75,3.29.8.43.02,1.01.11,1.25.4.62.77,1.39.82,2.24.78,1.04-.05,2.07-.14,3.11-.11.4,0,.8.26,1.19.43.54.23,1.06.66,1.6.68,1.82.08,3.66,0,5.48.04.47.01.94.22,1.39.37.59.2,1.18.6,1.77.61,4.44.05,8.89.03,13.34.03Zm156.86-131.04l.17.37c1.85,0,3.71-.03,5.56,0,1.93.04,3.03-1.24,3.93-2.61.37-.57.42-1.79.06-2.33-1-1.48-.47-2.45.62-3.44.84-.77.95-1.74.58-2.74-.4-1.07-1.19-1.88-2.37-1.94-1.82-.1-3.65-.06-5.47-.02-.29,0-.58.34-.87.51.24.28.43.7.74.83,1.42.6,1.34.55.75,2.01-.66,1.62-1.31,3.3-1.56,5.02-.2,1.37-.37,2.59-1.52,3.49-.26.21-.42.55-.63.84ZM196.56,21.22c1.52.94,3.16,1.21,4.53.31,1.68-1.1,2.74-2.74,2.42-4.96-.2-1.36-1.18-2.6-2.37-2.64-1.74-.06-3.48-.06-5.22.01-.39.02-.75.46-1.13.7.32.26.61.68.97.75.99.19,1,.65.61,1.41-.34.66-.7,1.33-.86,2.04-.37,1.64-.57,3.31-.94,4.95-.13.56-.54,1.07-.89,1.55-.32.45-.73.83-1.3,1.49,1.83.39,3.31.57,4.79.06.04-.14.09-.28.13-.41-.7-.34-1.41-.68-2.35-1.13,2.02-.86.87-2.72,1.62-4.12ZM30.45,185.5c-.11-.84-.48-1.64-.23-2,.92-1.33,1.97-2.52,3.95-2.24,1.55.22,1.88.49,1.6,2.02-.15.82-.71.87-1.35.99-.27.05-.52.43-.68.71-.03.05.34.51.53.51,1.26.05,2.52.02,3.67.02-.3-1.14-.74-2.08-.78-3.05-.1-2.61-.01-5.22-.04-7.83,0-.71-.16-1.42-.28-2.52-1.39,1.45-2.68,2.39-3.29,3.99-.42,1.11-.82,2.46-1.68,3.12-.95.72-1.27,1.63-1.86,2.49-.67.96-1.69,1.69-2.61,2.46-.26.22-.77.18-1,.41-.14.14.04.87.1.87,1.34.05,2.67.04,3.97.04Zm168.11,148.14c.87.3,1.54.62,2.24.75,1.98.39,3.17-.84,4.26-2.21.96-1.21.97-2.65.42-3.89-.52-1.19-1.6-1.91-3.13-1.74-1.4.15-2.82.01-4.23.06-.48.02-.96.21-1.43.32,0,.15-.02.3-.03.46.54.21,1.08.42,1.63.62.84.3,1.19,1.14.53,1.6-.85.6-.92,1.33-.97,2.22-.02.42-.4.81-.55,1.23-.18.51-.44,1.05-.42,1.57.07,1.4-.06,2.65-1.35,3.52-.34.23-.54.66-.81,1.02,1.35.85,3.7.76,4.7-.2-.62-.3-1.18-.56-1.61-.77.26-1.6.51-3.1.75-4.54Zm8.09,11.4c.08-.07.16-.15.23-.22-1.56-1.35-1.13-3.1-1.15-4.75-.02-1.24.01-2.48-.03-3.72-.01-.34-.23-.67-.35-1-.32.14-.68.21-.95.42-.74.59-1.23,1.2-.29,2.11.26.25.28.86.25,1.29-.12,1.93-.3,3.85-.47,5.87h2.76Z"/>
  <path d="m199.08,317.24c-4.45,0-8.89.02-13.34-.03-.59,0-1.17-.41-1.77-.61-.46-.15-.93-.36-1.39-.37-1.83-.04-3.66.04-5.48-.04-.54-.02-1.06-.45-1.6-.68-.39-.16-.79-.42-1.19-.43-1.03-.02-2.07.06-3.11.11-.85.04-1.62-.01-2.24-.78-.23-.29-.82-.38-1.25-.4-1.15-.05-2.21-.07-3.29-.8-.67-.46-1.84-.21-2.79-.23-.87-.02-1.71.07-2.32-.85-.18-.27-.89-.24-1.36-.24-1.03,0-2.11.28-2.8-.84-.04-.07-.12-.13-.19-.15-1.47-.4-2.95-.76-4.41-1.19-.64-.19-1.24-.5-1.85-.76-.07-.03-.12-.18-.16-.18-1.24.27-1.95-.95-2.91-1.13-3.16-.61-6-1.94-8.88-3.29-3.22-1.5-6.53-2.8-9.73-4.32-1.55-.74-2.92-1.85-4.43-2.7-1.11-.62-2.31-1.08-3.46-1.64-.32-.16-.58-.46-.88-.66-.7-.47-1.44-.89-2.12-1.39-.69-.51-1.31-1.11-1.98-1.65-.67-.53-1.38-1.01-2.04-1.55-1.31-1.07-2.57-2.2-3.89-3.24-.55-.44-1.23-.72-1.84-1.09-.31-.19-.63-.39-.89-.65-.86-.84-1.65-1.76-2.57-2.54-.57-.48-1.36-.7-1.96-1.15-.85-.64-1.59-1.42-2.41-2.08-.46-.37-1-.63-1.51-.95-.41-.25-.89-.44-1.23-.77-3.59-3.53-7.16-7.06-10.7-10.63-.45-.45-.73-1.08-1.07-1.64-.17-.28-.26-.63-.46-.88-2.01-2.44-4.11-4.82-6.04-7.33-1.19-1.54-2.13-3.26-3.18-4.9-.16-.24-.27-.53-.47-.72-1.41-1.3-2.18-2.95-2.72-4.74-.05-.16-.11-.33-.23-.43-2.89-2.53-3.72-6.24-5.42-9.46-1.28-2.42-2.51-4.86-3.76-7.29-.09-.18-.2-.39-.19-.58.07-1.74-.98-3.01-1.8-4.38-.08-.14-.24-.29-.23-.43.03-2.02-1.24-3.48-2.06-5.16-.32-.65-.09-1.55-.24-2.31-.11-.56-.48-1.06-.65-1.61-.21-.68-.3-1.4-.5-2.09-.23-.8-.52-1.59-.77-2.39-.12-.39-.16-.8-.28-1.19-.19-.6-.46-1.18-.64-1.79-.16-.54-.28-1.1-.36-1.66-.19-1.41.56-3.02-.96-4.14-.15-.11-.08-.55-.08-.84,0-1.12.03-2.24,0-3.37,0-.4-.02-.96-.26-1.18-1.14-1.01-.95-2.32-.95-3.59,0-2.12.06-4.24.02-6.36,0-.46-.37-.92-.57-1.37-.15-.36-.43-.73-.43-1.09-.03-4.65-.03-9.31-.02-13.96,0-.28.02-.7.19-.82,1.04-.7.8-1.74.81-2.71.01-2.33-.04-4.66.03-6.98.01-.5.43-.98.65-1.47.19-.43.51-.86.53-1.29.03-.95-.09-1.9-.15-2.86-.05-.92.03-1.73.72-2.52.4-.45.39-1.32.43-2,.08-1.27-.19-2.59.85-3.64.17-.17.09-.56.18-.83.21-.62.47-1.23.67-1.86.15-.46.31-.93.34-1.4.07-1.14-.17-2.33.82-3.26.22-.2.12-.71.22-1.07.18-.62.4-1.23.61-1.85.19-.54.38-1.07.58-1.6.2-.52.4-1.05.62-1.56.08-.18.33-.34.33-.51-.05-2.03,1.59-3.4,2.07-5.14,1.19-4.34,3.76-8.01,5.47-12.08.72-1.72,1.55-3.41,2.52-5,.99-1.64,2.22-3.15,3.31-4.73.42-.61.83-1.25,1.16-1.91,1.55-3.1,3.42-5.95,6.02-8.3.15-.14.34-.29.4-.47.83-2.39,3.15-3.65,4.37-5.65,2.64-4.35,6.85-7.16,10.07-10.91,2.4-1,3.71-3.5,5.85-4.62,2.01-1.05,3.23-2.82,5.02-3.91,1.72-1.05,3-2.73,4.68-3.56,2.05-1.01,3.31-2.66,4.91-4.04.94-.81,2.24-1.21,3.38-1.78.33-.17.76-.22.99-.48,1.79-1.98,4.49-2.42,6.53-3.89,3.06-2.21,6.88-2.74,9.93-4.92,1.35-.97,2.94-1.61,4.45-2.36.31-.16.75-.06,1.09-.17,1.73-.6,3.45-1.22,5.17-1.85.35-.13.71-.45,1.01-.39,1.76.36,2.95-.88,4.38-1.43.68-.26,1.4-.49,2.12-.55.99-.08,1.9,0,2.73-.86.36-.38,1.34-.11,2.01-.25.65-.13,1.26-.43,1.89-.63.57-.18,1.15-.43,1.73-.48.99-.08,1.99.09,2.8-.74.2-.2.61-.24.94-.27,1.25-.11,2.59.22,3.61-.91.19-.2.71-.13,1.08-.13,1.41-.01,2.83.06,4.24-.04.54-.04,1.05-.46,1.58-.67.48-.19.98-.47,1.47-.48,2.16-.05,4.32.03,6.48-.05.59-.02,1.15-.43,1.74-.64.41-.14.84-.34,1.27-.34,7.85-.01,15.71-.01,23.56.04.65,0,1.29.42,1.94.61.7.21,1.41.49,2.13.54,1.32.09,2.66.02,3.99.03.94,0,1.89-.14,2.67.69.25.27.85.28,1.3.29,1.16.04,2.34-.08,3.49.04.86.09,1.68.51,2.54.69.8.17,1.63.15,2.43.32.6.13,1.16.47,1.75.63.65.18,1.33.35,2,.37.88.03,1.66.02,2.39.74.39.39,1.23.3,1.85.47.84.23,1.68.49,2.51.74.31.09.64.28.94.25,2.14-.25,3.83.74,5.45,1.93.03.02.07.07.1.07,1.69-.35,2.82,1.25,4.42,1.28.53,0,1.06.33,1.58.54.23.09.41.34.64.37,3.25.38,5.7,2.58,8.6,3.76,1.59.65,2.92,1.98,4.82,1.83.18-.01.44.1.55.25,1.7,2.08,4.39,2.44,6.51,3.78.46.29,1.03.45,1.37.83.82.91,1.74,1.58,2.9,1.98,2.06.71,3.24,2.52,4.77,3.89.47.42,1.1.66,1.66.97.25.14.56.19.77.37,2.59,2.17,4.97,4.65,7.8,6.45,2,1.27,3.33,3.27,5.28,4.36,4.17,2.33,6.67,6.38,10.29,9.26.61.49.95,1.32,1.4,2.01.11.17.14.4.27.56,2.14,2.6,4.3,5.19,6.45,7.79.24.28.68.54.7.83.08,1.24,1.1,1.76,1.74,2.6.99,1.3,1.75,2.78,2.65,4.16,1.21,1.87,2.53,3.67,3.67,5.57,1,1.67,1.82,3.44,2.71,5.17,1.7,3.28,3.39,6.57,5.08,9.86.1.18.28.37.27.55-.05,2.06,1.36,3.51,2.09,5.25.57,1.38.76,2.91,1.24,4.33.57,1.7,1.3,3.34,1.87,5.04.23.68.17,1.46.34,2.17.15.64.43,1.26.66,1.88.03.07.12.13.14.2.41,1.6.9,3.19,1.19,4.81.24,1.37.05,2.78.96,4.04.36.49.21,1.35.28,2.05.14,1.48-.46,3.07.86,4.36.25.24.16.87.16,1.32,0,2.74-.05,5.49.01,8.23.01.59.43,1.16.67,1.75.14.34.4.66.41,1,.06,3.82.1,7.64.08,11.46,0,.48-.33.97-.51,1.45-.21.54-.63,1.08-.64,1.62-.06,2.91-.02,5.82-.02,8.73,0,.33.08.81-.09.96-1.5,1.25-.79,2.93-.91,4.44-.08,1.01.11,1.98-.81,2.85-.43.4-.41,1.41-.39,2.14.05,2.27-1.01,4.21-1.67,6.27-.26.8-.21,1.7-.41,2.53-.14.58-.49,1.11-.72,1.67-.17.4-.45.82-.43,1.22.08,1.41-.29,2.65-.92,3.92-1.16,2.36-2.49,4.73-3.08,7.26-.96,4.07-3.52,7.3-5.12,11.02-.84,1.94-1.77,3.84-2.7,5.75-.19.4-.58.7-.82,1.08-.43.68-.82,1.38-1.23,2.07-.12.21-.23.43-.37.63-.77,1.11-1.55,2.21-2.31,3.32-.76,1.12-1.5,2.25-2.26,3.37-.09.14-.28.27-.28.4,0,1.63-1.45,2.2-2.31,3.19-.86.98-1.85,1.79-2.31,3.16-.3.89-1.42,1.47-2.07,2.27-.8.99-1.49,2.06-2.24,3.09-.29.4-.53.85-.88,1.2-3.27,3.25-6.56,6.48-9.84,9.72-2.52.24-3.19,3.28-5.62,3.7-.28.05-.52.39-.77.61-1.55,1.4-2.84,3.04-4.86,3.99-1.32.62-2.25,2.04-3.41,3.05-.41.36-.97.54-1.45.83-.38.23-.84.42-1.11.75-1.38,1.65-3.04,2.85-5.1,3.48-.19.06-.41.18-.51.34-1.13,1.78-3.17,2.09-4.81,3.05-1.38.81-2.64,1.86-4.06,2.57-1.41.7-2.68,1.69-4.44,1.76-1.04.04-2.02,1-3.07,1.46-2.15.94-4.39,1.7-6.47,2.78-1.09.57-2.14.81-3.31,1.05-1.1.23-2.05,1.12-3.09,1.7-.31.17-.68.36-1.02.35-.91-.02-1.72.04-2.32.86-.14.19-.61.12-.92.22-.64.21-1.27.44-1.9.69-.22.09-.43.41-.61.38-2.55-.4-4.73,1.66-7.31,1.11-.72-.16-1.46-.06-1.97.72-.16.24-.73.29-1.11.29-1.15,0-2.33-.24-3.16.94-.14.2-.61.24-.93.24-1.33.02-2.66.04-3.99-.04-.95-.05-1.79-.08-2.48.76-.21.25-.75.31-1.13.32-1.33.03-2.66,0-3.99-.01-.86,0-1.71-.1-2.37.75-.22.29-.92.28-1.4.28-4.49.02-8.98.01-13.46.01Zm143.46-152.04c.15-.08.31-.15.46-.23,0-1.82,0-3.63,0-5.45,0-.16-.02-.39-.13-.47-1.18-.89-.78-2.17-.85-3.33-.06-.99-.06-1.99-.22-2.95-.17-1.03-.62-2.02-.75-3.05-.14-1.12.18-2.31-.89-3.21-.28-.23-.23-.85-.32-1.3-.07-.32,0-.79-.18-.95-1.11-.93-.8-2.17-.86-3.35-.02-.43-.15-.88-.32-1.28-.61-1.48-1.27-2.94-1.9-4.41-.03-.07,0-.17-.01-.25-.37-1.56-.74-3.12-1.14-4.67-.04-.17-.3-.28-.41-.46-.19-.3-.34-.63-.51-.95-.21-.42-.42-.84-.64-1.25-.15-.28-.51-.59-.46-.83.23-1.2-.5-1.99-.99-2.95-1.53-2.99-2.82-6.11-4.37-9.09-1.18-2.29-2.59-4.47-3.93-6.68-.47-.77-1.08-1.45-1.52-2.23-.79-1.44-1.28-3.05-2.71-4.09-.83-.61-1.57-1.35-1.62-2.54-.01-.26-.38-.51-.6-.75-.75-.83-1.56-1.61-2.25-2.48-.82-1.02-1.52-2.13-2.32-3.17-.53-.69-1.19-1.27-1.74-1.95-1.09-1.34-2.05-2.79-3.23-4.04-2.11-2.24-4.34-4.36-6.53-6.52-.26-.26-.56-.49-.87-.68-.67-.42-1.43-.74-2.03-1.24-.85-.72-1.57-1.6-2.39-2.36-.32-.3-.75-.49-1.13-.73-.54-.33-1.14-.6-1.62-1.01-1.19-1.02-2.26-2.2-3.5-3.15-2.08-1.58-4.35-2.91-6.37-4.55-1.66-1.34-2.9-3.21-5.12-3.81-.46-.12-.93-.45-1.24-.81-1.49-1.7-3.52-2.59-5.52-3.26-2.06-.69-3.15-3.26-5.71-2.78-.1.02-.23-.09-.34-.15-2.84-1.46-5.66-2.95-8.53-4.35-1.45-.71-2.97-1.26-4.46-1.88-.15-.06-.33-.07-.49-.06-1.7.18-2.87-1.58-4.62-1.24-.11.02-.25-.2-.4-.28-1.64-.82-3.18-1.68-5.19-1.75-1.64-.06-3.23-1.16-5.02-1.02-.07,0-.17-.06-.21-.12-.76-1.26-1.97-.94-3.12-.92-.42,0-.86-.15-1.27-.28-.7-.23-1.38-.57-2.1-.76-.67-.17-1.38-.14-2.06-.3-.85-.2-1.67-.63-2.52-.71-1.23-.12-2.49,0-3.74-.03-.4,0-1-.02-1.16-.26-.79-1.16-1.94-.92-3.04-.93-1.41,0-2.83.01-4.24-.01-.41,0-.95.02-1.19-.21-.93-.89-2.04-.79-3.16-.79-1.7,0-3.41,0-5.11,0q-1.62,0-1.62,1.68c0,6.15,0,12.3,0,18.45,0,2.16.01,4.32-.03,6.48-.02,1.24-.71,1.65-1.82,1.09-1.11-.55-1.77-1.36-1.76-2.74.05-7.44.02-14.88.04-22.32,0-.73.09-1.46.13-2.1-3.86-.08-6.58,2.34-9.41,4.24-3.13,2.09-4.87,5.62-7.34,8.4-.08.09-.07.24-.13.35-.34.61-.66,1.24-1.03,1.83-.29.45-.72.82-.96,1.29-1.61,3.19-3.23,6.37-4.75,9.6-.4.86-.49,1.86-.76,2.79-.08.29-.25.56-.4.83-.23.43-.52.84-.68,1.3-.16.46-.08,1.02-.29,1.44-1.38,2.69-2.45,5.48-2.99,8.47-.02.12-.05.28-.14.34-1.11.86-.79,2.08-.84,3.22-.01.4.02,1.02-.2,1.15-.97.58-.78,1.45-.81,2.31-.01.35-.17.69-.29,1.03-.23.67-.54,1.32-.7,2-.17.71-.14,1.47-.3,2.19-.19.81-.6,1.57-.72,2.38-.13.88.14,1.84-.96,2.36-.19.09-.25.59-.25.91-.01,1,.03,1.99.04,2.99,0,.28.06.73-.09.82-1.57.99-.78,2.55-.98,3.86-.08.56-.15,1.13-.31,1.67-.2.71-.61,1.39-.7,2.11-.12,1.02-.01,2.07-.04,3.11-.01.36-.03.91-.24,1.03-1.09.65-.85,1.68-.95,2.65-.17,1.6.71,3.39-.88,4.76-.2.17-.11.72-.11,1.09,0,1.83.01,3.66,0,5.49,0,.36,0,.93-.19,1.04-1.02.54-.82,1.45-.83,2.29-.02,1.62-.05,3.24,0,4.86.02.59.13,1.34.49,1.74.92,1.01.53,1.64-.31,2.36-.7.61-1.44,1.16-1.42,2.33.07,4.11.03,8.23.03,12.34,0,.9.46,1.94-.79,2.47-.16.07-.2.52-.21.8,0,5.28,0,10.56-.01,15.83,0,.98.49,1.18,1.33,1.17,3.32-.02,6.65-.01,9.97-.01.46,0,.92-.01,1.37.02,1.23.1,1.53.67.94,1.74-.58,1.06-1.37,1.65-2.7,1.62-3.2-.08-6.4,0-9.6-.04-.95-.01-1.33.33-1.33,1.31.03,5.49,0,10.97.03,16.46,0,.43.21.86.34,1.28.2.64.6,1.27.61,1.91.06,3.66,0,7.31.05,10.97,0,.68.25,1.36.43,2.03.22.81.62,1.58.72,2.4.12,1.02.02,2.07.01,3.11-.01,2.75,1.53,4.3,4.29,4.31.96,0,1.91-.03,2.87.02.39.02.77.21,1.16.34.63.21,1.26.61,1.9.62,6.81.04,13.63.01,20.44.04,1.36,0,2.84-.44,3.96.86.14.16.55.12.84.13.79.02,1.58-.03,2.37.02.98.07,1.33-.35,1.31-1.31-.04-1.58-.02-3.16.02-4.74.02-.93,1.18-2.33,1.78-2.04.69.33,1.21,1.11,1.67,1.78.2.29.1.81.1,1.22,0,1.33-.03,2.66.03,3.99.01.35.34.99.47.98,1.6-.16,3.39.91,4.77-.74.16-.19.61-.2.92-.2,7.19,0,14.38.02,21.57.03.79,0,1.58.09,2.04-.82.1-.2.58-.28.88-.28,2.33.01,4.65.06,6.98.09,1.07.01,2.16.17,2.91-.95.16-.23.76-.22,1.16-.23,2.53-.02,5.07-.01,7.6-.03.41,0,1.03.05,1.19-.18.82-1.18,1.98-.8,3.06-.82,1.16-.03,2.33.02,3.49-.03.39-.01.77-.19,1.15-.33.57-.21,1.12-.56,1.7-.65,1.48-.23,3.18.57,4.38-1,.09-.12.39-.1.59-.11,1.24-.04,2.49-.04,3.73-.12.47-.03.93-.25,1.4-.4.65-.2,1.28-.5,1.94-.59,1.02-.14,2.22.17,3.06-.25,1.43-.72,2.86-.76,4.35-.79.39,0,.78-.19,1.15-.32.58-.21,1.13-.48,1.72-.67.35-.11.91.03,1.07-.17.92-1.18,2.19-.97,3.42-1.04.36-.02.72-.16,1.06-.28.71-.24,1.41-.51,2.12-.75.39-.13.79-.22,1.18-.33.72-.22,1.43-.55,2.16-.64.96-.12,2.01.19,2.62-.94.08-.16.45-.24.68-.22,1.39.11,2.64.27,3.9-.89,1.45-1.34,3.86-.82,5.39-2.26.09-.09.33-.08.48-.04,1.66.45,2.66-1.04,4.07-1.4,1.11-.29,2.07-1.12,3.11-1.69.72-.39,1.47-1.08,2.18-1.04,1.47.07,2.43-.56,3.36-1.52.33-.34.83-.56,1.29-.73,4.35-1.65,7.83-4.62,11.28-7.59,1.51-1.3,2.81-2.83,4.26-4.2,1.33-1.27,2.59-2.58,3.23-4.35.53-1.46,1.6-2.69,1.45-4.42-.15-1.74-.04-1.76-1.74-1.76-6.15,0-12.3,0-18.45-.01-.42,0-.83.02-1.25-.03-1-.11-2.29-1.48-2.16-2.42.18-1.35,1.32-.81,2.1-.89.78-.08,1.58-.02,2.37-.02,5.78,0,11.55,0,17.33,0,1.77,0,1.69-.03,1.82-1.83.09-1.27-.54-2.2-1-3.25-1.45-3.29-3-6.48-5.87-8.83-.93-.76-1.67-1.75-2.58-2.52-.78-.66-1.7-1.14-2.54-1.73-.57-.4-1.18-.8-1.62-1.32-.58-.68-.49-2.34.11-2.79.99-.73,1.48.23,2.08.72.86.7,1.62,1.59,2.57,2.13,2.52,1.42,4.48,3.33,5.94,5.83.65,1.11,1.59,2.06,2.4,3.08Zm-177.92,72.21c.81-1.08,1.76-.85,2.64-.79.8.06,1.27.43,1.17,1.39-.06.53.04,1.25.37,1.61.7.76.79,1.59.77,2.53-.03,1-.04,2-.01,2.99.03,1.12.7,1.47,1.64.84.39-.27.68-.7.98-1.1.79-1.05,1.56-2.12,2.31-3.2.39-.56.69-1.21,1.11-1.74.84-1.05,1.62-2.22,2.66-3.03.93-.72,2.09-.32,3.42.42-.7.32-1.08.53-1.48.66-1.82.58-2.04.87-2.23,2.8-.07.69,0,1.55-.37,2.01-.68.83-.78,1.69-.8,2.66-.01.57-.04,1.2-.29,1.68-.46.88-.36,1.29.68,1.43.25.03.47.38.7.58-.23.2-.44.58-.68.59-1.37.05-2.74.05-4.1,0-.23,0-.44-.38-.67-.58.23-.2.43-.5.7-.57,1.8-.48,2.22-1.1,2.39-2.91.09-.98.56-1.92.81-2.89.1-.38.09-.79.13-1.19-.17-.08-.34-.16-.5-.24-2.36,2.63-4.29,5.59-6.48,8.87-.13-.86-.17-1.37-.29-1.86-.14-.59-.31-1.17-.5-1.74-.21-.64-.54-1.25-.67-1.9-.11-.54-.02-1.12-.02-1.69-1.4.07-1.78.73-1.76,1.95.02,1.06-.27,2.14-.44,3.33.36.17.97.45,1.57.73-.03.14-.07.29-.1.43-.76.09-1.53.12-2.27.29-.64.15-1.53.46-.84,1.31,1.01,1.24.87,2.61.94,4.02.03.63.28,1.25.45,1.87.17.61.42,1.19.54,1.81.14.72.05,1.5.28,2.18.54,1.51,1.38,2.92,1.79,4.45.37,1.4.22,2.84,1.01,4.25.65,1.16-.32,2.97,1.16,4.05.02.02.02.08.01.12-.35,1.93.91,3.46,1.42,5.14,1.09,3.57,2.44,7.11,4.09,10.45,1.82,3.68,3.06,7.72,5.97,10.81.08.09.18.21.18.32,0,1.25.87,1.9,1.71,2.59.21.17.32.47.47.71.43.72.75,1.54,1.31,2.15,1.55,1.68,3.19,3.27,4.81,4.89.2.2.41.44.66.56,2.15,1.08,4.3,2.16,6.48,3.18,1.08.51,1.46.25,1.48-.94.03-1.45.01-2.91.01-4.36,0-1.07.37-1.99,1.32-2.52.47-.26,1.18-.56,1.57-.38.36.17.6.94.62,1.46.08,1.87.08,3.74.02,5.61-.03,1.02.29,1.41,1.34,1.38,2.37-.06,4.74-.02,7.11-.01.84,0,1.63.02,2.19-.85.16-.25.74-.32,1.13-.34.91-.04,1.83.05,2.74-.02,1.31-.1,2.82.7,3.83-.86.13-.2.7-.15,1.07-.15,1.54-.02,3.08.01,4.61-.03.39,0,.99-.09,1.12-.33.44-.84,1.11-.65,1.81-.69.88-.05,1.75-.22,2.61-.41.53-.12,1.02-.49,1.55-.55.82-.1,1.67.04,2.49-.06.47-.06.91-.39,1.37-.59.47-.2.94-.5,1.43-.55,1.12-.12,2.35.27,3.18-.93.11-.16.54-.07.82-.13,1.64-.38,3.27-.76,4.9-1.17.18-.04.29-.3.46-.4.31-.19.63-.35.96-.5,1.22-.56,2.37-1.33,3.82-1.21.19.02.38-.3.6-.41.4-.19.81-.36,1.24-.5.7-.22,1.43-.38,2.12-.62,2.97-1.06,5.37-3.46,8.69-3.72.23-.02.44-.35.67-.51.26-.18.53-.35.82-.49,1.13-.54,2.34-.96,3.4-1.62,2.47-1.53,4.86-3.18,7.29-4.78.03-.02.08-.03.12-.05,1.78-.95,3.63-1.78,4.93-3.44.24-.31.66-.48,1.01-.7.64-.42,1.34-.76,1.91-1.26,1.06-.93,1.89-2.36,3.1-2.82,1.81-.7,2.86-2.04,4.09-3.3.4-.41.86-.78,1.34-1.1,1.98-1.34,4.15-2.46,5.92-4.03,2.92-2.58,5.59-5.44,8.34-8.21.73-.73,1.63-1.44,2.01-2.35,1.18-2.82,4.4-4.07,5.27-7.08,2.76-2.18,4.3-5.3,6.16-8.15.82-1.25,1.04-2.88,2.45-3.76.12-.08.15-.29.24-.43.45-.7.9-1.4,1.36-2.1.27-.41.6-.8.82-1.24.64-1.26,1.3-2.52,1.84-3.82,1.51-3.64,3.94-6.88,4.78-10.83.05-.23.26-.42.36-.65.56-1.19,1.13-2.38,1.64-3.6.3-.71.45-1.49.77-2.19.72-1.58,2-3,1.33-4.97-.06-.19.05-.6.2-.67,1.21-.62.9-1.72.94-2.73.02-.49.07-1,.25-1.44,1.02-2.48,2.2-4.9,1.99-7.71-.03-.44.24-.91.41-1.35.16-.43.51-.84.53-1.27.07-1.24.01-2.49.04-3.74,0-.36,0-.85.22-1.06.85-.79.77-1.78.77-2.78,0-1.58.02-3.16.01-4.74,0-.38-.08-.76-.14-1.37-.67,1.06-1.06,1.98-1.71,2.66-2.38,2.49-4.84,4.91-7.29,7.34-.34.34-.83.53-1.25.79-.65.41-1.32.8-1.95,1.25-1,.71-1.96,1.47-2.95,2.18-1.96,1.4-4.69,1.56-6.14,3.81-.12.18-.44.37-.63.33-1.45-.27-2.5.72-3.71,1.15-1,.36-1.95.86-2.89,1.36-1,.53-1.96,1.14-2.94,1.71-.07.04-.17.07-.24.06-1.13-.31-1.99.15-2.79.91-.17.16-.56.07-.84.14-.59.15-1.21.24-1.76.5-1.71.8-3.3,1.94-5.38,1.57-.33-.06-.94.18-1.06.44-.37.81-1.01.7-1.67.73-.82.03-1.86-.13-2.39.3-.73.59-1.41.72-2.25.76-.38.02-.76.24-1.14.38-.52.2-1.02.5-1.55.62-1.22.26-2.58-.08-3.59,1.03-.19.21-.71.1-1.08.14-.33.03-.81-.06-.96.12-1.14,1.37-2.68.74-4.06.91-.47.06-1.12.06-1.36.36-.65.81-1.47.83-2.35.85-.86.02-2.02-.22-2.53.23-1.08.95-2.22.74-3.39.79-.99.04-2.29-.33-2.92.17-1.49,1.17-3.07.69-4.63.84-.36.04-.92.03-1.04.24-.61,1.1-1.56.85-2.51.8-1.04-.05-2.08-.07-3.11.02-.64.05-1.27.31-1.89.5-.64.2-1.26.61-1.9.63-2.45.07-4.9,0-7.35.04-.51,0-1.01.23-1.51.39-.56.18-1.11.57-1.67.59-2.41.06-4.82.02-7.23.02-.86,0-1.75-.15-2.31.82-.12.2-.67.22-1.02.22-7.19,0-14.38,0-21.57.01-.46,0-.92.25-1.37.42-.62.23-1.21.64-1.84.71-1.02.12-2.08.1-3.11.02-1.18-.09-1.59.34-1.58,1.55.05,5.11,0,10.22-.01,15.33,0,.53.05,1.17-.21,1.57-.37.57-1.17,1.43-1.52,1.33-.67-.21-1.24-.96-1.68-1.59-.22-.32-.11-.89-.11-1.34-.02-5.11-.05-10.22-.01-15.33,0-1.16-.39-1.57-1.52-1.51-1.12.06-2.25.05-3.36-.02-.47-.03-.92-.27-1.37-.43-.62-.23-1.23-.7-1.85-.7-7.52-.04-15.04-.02-22.56-.01-.29,0-.73.07-.83-.08-.89-1.28-2.21-.96-3.41-.95-3.62.02-3.21-.45-3.15,3.19.03,1.96-.67,4.09.9,5.83.09.1.06.32.07.49.07,1.28.1,2.57.21,3.85.04.47.25.93.4,1.38.19.57.51,1.12.57,1.7.1.95-.02,1.91.08,2.86.03.34.37.72.67.92.14.09.7-.13.8-.35.43-.9.9-1.83,1.11-2.8.27-1.26.31-2.57.45-3.9-.43-.26-.96-.59-1.54-.96Zm-110.26-72.53c.37-.1.42-.1.45-.12.16-.13.31-.28.46-.41,4.14-3.63,7.37-8.25,12.17-11.08.59.56,1.14,1.08,1.78,1.69-1.28,1.21-2.54,2.4-3.8,3.59-.06.05-.14.08-.22.11-2.88,1.13-4.53,3.68-6.44,5.84-1.31,1.48-2.28,3.35-3.09,5.18-.61,1.37-1.84,2.48-1.58,4.29.24,1.69.07,1.74,1.79,1.74,7.6,0,15.21,0,22.81,0,.54,0,1.15-.1,1.59.11.34.16.74.8.67,1.14-.26,1.26-1.55,2.12-2.83,2.11-7.69,0-15.37-.01-23.06,0-.54,0-1.07.18-1.73.3.67,1.71,1.2,3.21,1.83,4.66.82,1.88,1.68,3.72,3.28,5.16,1.79,1.61,3.41,3.41,5.13,5.09.83.81,1.45,1.98,2.89,1.91.15,0,.31.24.48.36,1.69,1.23,3.28,2.63,5.09,3.64,2.71,1.52,5.57,2.78,8.36,4.15.89.43,1.77,1.19,2.68,1.23,2.62.11,4.4,2.4,7.06,2.51.69.03,1.55.88,2.56.83.32-.02.65.3.98.46,1.64.83,3.16,1.97,5.19,1.73.44-.05.99.23,1.39.51.56.39,3.33.74,3.82.34.17-.14.34-.44.31-.63-.24-1.6.75-3.41-.81-4.81-.17-.15-.18-.55-.18-.83-.02-3.28,0-6.55-.06-9.83,0-.54-.26-1.08-.45-1.6-.21-.58-.67-1.15-.68-1.72-.07-3.32-.04-6.65-.04-9.97,0-3.45,0-3.5-3.5-3.48-1.39,0-2.17-.66-2.7-1.79-.48-1.01-.19-1.52.91-1.58,1.24-.06,2.5-.09,3.74-.02,1.23.08,1.58-.44,1.56-1.6-.05-3.95-.03-7.9.01-11.84,0-.53.3-1.06.49-1.57.21-.58.63-1.14.64-1.72.07-3.32.05-6.64.08-9.95,0-.28.04-.67.21-.81.93-.74.73-1.75.82-2.73.06-.68.52-1.32.65-2.01.15-.82.25-1.69.14-2.51-.03-.23-1.02-.62-1.37-.47-1.43.61-2.8,1.32-4.41,1.48-.67.07-1.3.52-1.97.7-1.44.39-2.69,1.47-4.31,1.21-.64,1.07-1.66,1.03-2.72,1.02-.31,0-.62.33-.93.5-.28.16-.57.47-.83.44-1.4-.15-2.47.56-3.59,1.2-.61.35-1.23.72-1.9.92-.78.23-1.75.48-2.21-.49-.44-.94.1-1.78.91-2.21,1.23-.66,2.55-1.19,3.87-1.65,1.41-.49,2.93-.68,4.29-1.27,1.73-.75,3.16-2.2,5.24-2.1.13,0,.27-.19.42-.25.58-.24,1.14-.57,1.75-.68,1.57-.29,3.04-1.02,4.48-1.55,1.12-.41,2.13-.71,3.23-.6,1.1.11,1.36-.35,1.47-1.3.08-.7.43-1.36.65-2.04.12-.39.29-.78.31-1.17.05-.95,0-1.91.03-2.87.01-.35.07-.91.28-1.02.89-.45.69-1.21.76-1.94.07-.81.15-1.64.4-2.4.53-1.6,1.18-3.15,1.77-4.73.35-.95.89-1.9.95-2.87.12-1.79,1.04-3.12,2.01-4.47.57-.8.47-3.45-.29-4.07-.65-.52-.69-1.13-.21-1.6.98-.98,2.08-1.83,3.13-2.73.31-.27.91-.63.86-.84-.3-1.39.47-2.38,1.13-3.41,1.36-2.12,1.9-4.71,3.8-6.52.28-.27.25-.85.43-1.25.36-.84.67-1.73,1.18-2.48.53-.78,1.44-1.33,1.87-2.14,1.24-2.33,1.88-5,4.06-6.76.12-.1.14-.3.24-.43.63-.95,1.25-1.91,1.9-2.84.41-.57.89-1.08,1.31-1.65.73-.99,1.37-2.06,2.18-2.99,1.01-1.15,2.23-2.13,3.22-3.29,1.03-1.21,1.77-2.69,2.88-3.81,2.66-2.68,5.41-5.27,8.22-7.79,1.92-1.72,4.01-3.24,6.03-4.85.1-.08.22-.12.32-.19,1.52-.9,3.06-1.78,4.55-2.72,1.04-.66,1.96-1.52,3.05-2.08,2.68-1.39,5.43-2.63,8.13-3.99.26-.13.49-.72.41-1.01-.19-.7-.86-1.13-1.41-.56-.86.9-1.86.73-2.88.78-.45.02-1.06-.05-1.31.21-1,1.02-2.24.95-3.48.99-.24,0-.6,0-.71.14-.93,1.22-2.25.78-3.45.88-.46.04-.92.24-1.36.4-.55.19-1.07.53-1.63.58-.97.1-1.85.16-2.82.63-2.15,1.05-4.48,1.78-6.76,2.54-1.56.52-3.25.7-4.74,1.34-2.44,1.05-4.75,2.38-7.14,3.54-1.21.58-2.48,1.04-3.71,1.57-.64.28-1.26.59-1.86.93-.65.37-1.25.82-1.9,1.2-.39.23-.86.32-1.24.56-1.8,1.18-4.13,1.54-5.46,3.48-.11.17-.45.18-.67.28-1.05.48-2.24.78-3.12,1.48-2.64,2.08-5.14,4.34-7.74,6.46-.61.5-1.49.66-2.13,1.13-1.71,1.27-2.92,3.03-4.93,4.13-2.27,1.25-4.03,3.41-6.17,5.04-2.98,2.27-5.48,5.19-8.16,7.86-.4.4-.64.95-.95,1.43-.4.62-.71,1.3-1.19,1.84-.8.9-1.71,1.7-2.54,2.57-.27.29-.44.68-.64,1.03-.28.48-.5,1-.84,1.44-1.22,1.57-3.31,2.45-3.66,4.71-.03.17-.28.29-.41.46-.59.79-1.24,1.54-1.73,2.39-1.15,1.97-1.97,4.2-3.43,5.9-1.02,1.19-1.81,2.45-2.49,3.77-2.47,4.81-5.03,9.58-6.8,14.72-.41,1.2-.65,2.5-1.27,3.56-.62,1.06-.91,2.09-.93,3.27,0,.19-.17.37-.23.57-.24.73-.47,1.46-.7,2.19-.1.31-.07.76-.28.92-.84.64-.73,1.52-.73,2.38,0,.9.2,1.86-.86,2.41-.16.08-.22.52-.2.78.08.97.17,1.9-.89,2.5-.19.11-.24.6-.24.91-.02.91.03,1.83,0,2.74,0,.36,0,.92-.2,1.04-1.06.63-.77,1.62-.87,2.54-.17,1.55.68,3.32-.93,4.6-.11.09-.07.4-.08.6-.06,1.04-.15,2.07-.16,3.11,0,.63.11,1.26.18,1.97Zm60.92,10.82h0c3.08,0,6.15-.02,9.22.04.51,0,1.35.29,1.45.62.14.47-.18,1.15-.48,1.65-.51.86-1.35,1.08-2.35,1.08-5.61-.03-11.22.01-16.83-.03-1.2,0-1.6.4-1.59,1.58.02,3.53-.09,7.06-.09,10.59,0,.81-.07,1.84.37,2.39.74.93.77,1.88.77,2.91,0,1.7-.03,3.41.02,5.11.05,2.04-.48,4.16.83,6.04.15.21.05.59.16.85.28.67.52,1.37.93,1.95.78,1.12,2.33,1.66,2.46,3.3.01.17.34.35.55.45,1.34.63,2.65,1.41,4.24,1.15.27-.04.67-.02.84.14,1.05,1.06,2.36.82,3.63.85.29,0,.71-.02.83.15.91,1.27,2.22.82,3.42.87,1.4.06,2.92-.39,4,1.03.14.19.63.15.95.16,1.16.01,2.33,0,3.49,0,.33,0,.81-.06.95.12,1.1,1.36,2.6.75,3.94.91.63.08,1.25.29,1.86.48.53.16,1.04.47,1.57.51,1.03.08,2.08.02,3.11.01,1.25,0,2.5-.08,3.48.97.19.2.61.24.93.24,2.28.02,4.56,0,6.83,0,1.41,0,2.64-.79,2.61-2.11-.05-2.28.88-4.71-.74-6.84-.11-.15-.12-.4-.13-.6-.07-1.12-.19-2.24-.18-3.36.02-2.99.11-5.98.15-8.97,0-.44-.02-1.03-.29-1.28-.9-.85-.92-1.91-.92-2.99,0-4.99-.04-9.97.02-14.96.01-1.17-.46-1.59-1.5-1.61-1.41-.02-2.83-.03-4.24-.04-2.08,0-4.16.02-6.23-.02-1.13-.02-2.58-1.41-2.44-2.4.2-1.4,1.39-.91,2.2-.93,3.49-.05,6.98-.02,10.47-.03,1.69,0,1.72-.04,1.72-1.77,0-4.86,0-9.72.04-14.59,0-.58.25-1.17.44-1.74.21-.64.7-1.25.71-1.88.06-4.32.02-8.63.04-12.95,0-.71-.24-1.11-1.01-1.09-.37.01-.76-.07-1.12,0-3.18.71-5.99-1.35-9.1-1.18-.3.02-.62-.23-.91-.37-2.23-1.11-4.49-2.17-6.68-3.36-1.1-.6-2.06-1.45-3.11-2.16-.29-.2-.67-.44-.98-.41-1.59.14-3.34-.59-4.72.84-.18.19-.63.14-.96.15-.75.02-1.51.08-2.24-.01-.64-.08-1.26-.36-1.89-.55.28-.71.43-1.52.88-2.08.33-.41,1.06-.6,1.64-.67.9-.11,1.83.02,2.74-.07.4-.04,1.04-.27,1.11-.54.1-.38-.14-.92-.38-1.31-.23-.38-.59-.71-.95-.98-2.81-2.14-4.28-5.4-6.65-7.91-.17-.18-.28-.41-.39-.63-1.17-2.38-2.29-4.79-3.55-7.12-.24-.44-1.03-.79-1.57-.8-.42,0-1.08.5-1.23.92-.46,1.25-.71,2.57-1.07,3.86-.08.27-.3.49-.4.76-.25.67-.47,1.34-.69,2.02-.44,1.34-1.3,2.55-1.19,4.05,0,.05-.11.12-.18.16-.86.49-.93,1.3-.89,2.17.04.98.49,2.09-.83,2.68-.15.07-.17.53-.17.82-.02.79.07,1.59-.04,2.37-.09.65-.32,1.3-.6,1.89-.53,1.09-.67,2.16.12,3.15.5.62.45,1.05-.23,1.39-1.39.69-1.66,1.79-1.39,3.23.1.53-.19,1.15-.38,1.7-.19.54-.56,1.02-.69,1.56-.21.87-.26,1.77-.44,2.65-.15.71-.54,1.39-.56,2.09-.07,2.87-.02,5.73-.03,8.6,0,.97.19,1.99-.81,2.72-.22.16-.23.69-.23,1.05,0,3.99.03,7.98,0,11.97,0,1.08.4,1.46,1.47,1.45,3.03-.05,6.07-.02,9.1-.02Zm-60.43,12.01c-.11.02-.22.05-.33.07-.06.37-.17.74-.17,1.1-.02,1.91-.02,3.82-.02,5.74,0,.33-.05.77.13.97,1.25,1.33.81,2.96.88,4.51.03.62-.17,1.48.16,1.81,1.23,1.23.75,2.71.88,4.11.04.48.12.97.26,1.44.22.72.5,1.42.75,2.13.15.42.15,1,.44,1.26.84.77.74,1.67.68,2.64-.03.51-.04,1.35.23,1.49,1.1.57.76,1.5.87,2.37.12.88.34,1.76.64,2.59.37,1.01.92,1.95,1.3,2.96.88,2.38,1.64,4.81,2.57,7.18.5,1.26,1.2,2.46,1.88,3.64,2.07,3.56,3.16,7.68,6.05,10.78.18.19.19.54.32.8.57,1.13,1.08,2.3,1.75,3.36,1.13,1.76,2.36,3.45,3.56,5.15.62.87,1.23,1.75,1.93,2.55.7.81,1.91,1.43,2.17,2.34.38,1.34,1.31,2.02,2.11,2.94.61.69,1.02,1.55,1.53,2.33.25.38.47.79.78,1.1,3.4,3.42,6.8,6.83,10.22,10.23.38.38.79.8,1.27.98,2.47.95,4.01,3.2,6.29,4.44.98.53,1.64,1.63,2.49,2.42.31.29.75.45,1.13.67.45.26.94.45,1.33.78,1.32,1.13,2.57,2.34,3.9,3.45.82.68,1.76,1.23,2.62,1.87,1.51,1.12,3,2.26,4.5,3.38.06.05.15.06.23.1,1.26.6,2.57,1.12,3.78,1.81,1.5.85,2.86,1.96,4.4,2.72,2.39,1.17,4.92,2.03,7.31,3.2,3.66,1.8,7.33,3.48,11.35,4.42,1.94.45,3.59,1.96,5.74,1.97.18,0,.37.18.52.32.57.55,1.16.91,2.01.55.21-.09.73.08.83.28.57,1.08,1.49,1.01,2.48.9.56-.06,1.4-.2,1.67.1,1.26,1.37,2.84.84,4.31.97.44.04,1.07.02,1.28.28.69.91,1.62.75,2.5.69.39-.03.99-.28,1.08-.56.1-.31-.17-.93-.47-1.14-1.2-.81-2.45-1.53-3.71-2.24-2.3-1.29-4.88-2.07-6.88-3.95-1.36-1.28-2.97-2.28-4.49-3.38-.19-.14-.47-.15-.69-.27-.47-.25-1-.45-1.38-.8-2.04-1.88-4.14-3.72-6.03-5.75-2.17-2.33-4.88-4.14-6.41-7.15-.81-1.59-2.56-2.68-3.85-4.04-.71-.75-1.37-1.56-1.97-2.4-1.35-1.89-2.4-4.05-4.02-5.66-1.8-1.79-2.4-4.09-3.55-6.15-.28-.5-.56-.99-.88-1.46-.46-.68-1.03-1.29-1.42-2.01-.94-1.75-1.63-3.66-2.74-5.29-1.62-2.38-3.12-4.76-3.66-7.64-.05-.27-.25-.52-.35-.78-.23-.64-.46-1.27-.66-1.92-.11-.35-.04-.79-.23-1.07-.95-1.47-2.05-2.85-2.02-4.74,0-.18-.14-.39-.26-.55-1.01-1.45-1.99-2.91-1.96-4.79,0-.19-.13-.39-.2-.58-.26-.76-.52-1.52-.78-2.28-.13-.39-.23-.79-.42-1.15-1.04-1.91-2.23-3.76-1.8-6.1.06-.35.06-.87-.15-1.08-1.19-1.17-.74-2.64-.87-4.01-.06-.6-.2-1.2-.37-1.78-.18-.63-.42-1.23-.63-1.85-.16-.47-.16-1.07-.46-1.38-1.57-1.62-2.82-3.45-5.7-3.36-1.56.05-3.35-.79-5.06-1.16-1.78-.39-3.16-2.16-5.25-2.01-.14,0-.28-.16-.43-.23-.59-.24-1.18-.48-1.78-.69-.58-.21-1.2-.33-1.76-.57-1.46-.62-2.68-1.86-4.44-1.68-.15.01-.32-.09-.46-.17-1.57-.84-3.15-1.67-4.7-2.53-2.79-1.54-5.6-3.05-8.34-4.67-1.81-1.07-3.62-2.2-5.21-3.56-1.9-1.61-3.59-3.46-5.32-5.26-1.14-1.19-2.74-2.05-2.84-4.04Zm134.47,126.02c-.35-.54-.51-.87-.75-1.12-1.19-1.27-2.48-2.47-3.6-3.79-1.34-1.57-2.55-3.25-3.81-4.88-.07-.1-.15-.23-.14-.34.05-1.02-.66-1.52-1.32-2.11-.39-.34-.65-.85-.93-1.3-1.34-2.17-1.75-4.86-3.76-6.67-.25-.22-.3-.67-.42-1.02-.81-2.35-1.56-4.73-2.45-7.06-.85-2.23-1.85-4.4-2.77-6.61-.11-.26-.12-.57-.14-.85-.1-1.45-1.58-2.51-1.16-4.11.02-.08-.25-.22-.32-.36-.27-.61-.58-1.22-.74-1.86-.16-.67.11-1.63-.26-2.03-.83-.89-.73-1.87-.8-2.89-.03-.52-.26-1.02-.41-1.53-.24-.81-.51-1.61-.75-2.42-.09-.31,0-.79-.19-.94-1.03-.81-.77-1.93-.82-2.98-.02-.33.07-.8-.11-.96-1.4-1.23-.77-2.85-.93-4.31-.05-.48-.17-.96-.31-1.42-.2-.68-.57-1.34-.64-2.03-.11-1.07-.02-2.16-.05-3.24-.01-.36,0-.91-.22-1.05-1.26-.85-.88-2.11-.97-3.27-.06-.76-.22-1.52-.41-2.26-.16-.62-.54-1.2-.6-1.82-.1-1.11,0-2.24-.04-3.36-.01-.4-.14-.8-.25-1.19-.24-.84-.64-1.66-.72-2.52-.12-1.32,0-2.66-.05-3.99-.02-.43-.13-.92-.38-1.26-1.19-1.66-2.68-2.25-4.86-2.17-2.85.1-5.91,1.12-8.58-.93-.2-.15-.56-.1-.85-.1-.83,0-1.67.08-2.49-.01-1.39-.16-3.01.68-4.11-.9-.11-.16-.55-.1-.84-.1-.87,0-1.75.04-2.62-.01-.43-.03-.84-.24-1.26-.38-.56-.19-1.1-.54-1.66-.58-1.16-.09-2.32-.02-3.49-.04-.33,0-.82.04-.95-.15-1.05-1.5-2.58-.98-3.97-1.05-1.17-.05-2.51.6-3.33-.86-.06-.1-.3-.13-.46-.14-1.39-.05-2.83.18-3.99-.94-.16-.16-.56-.11-.85-.1-1.18.03-2.3-.04-3.27-.89-.43-.38-1.3-.6-1.4.2-.15,1.15.02,2.36.19,3.53.12.82.52,1.6.67,2.41.16.89-.11,1.99.33,2.66.68,1.05.67,2.08.72,3.19.04.77.06,1.62.38,2.29.74,1.55,1.89,2.9,1.87,4.76,0,.28.33.55.47.84.18.36.34.74.48,1.12.29.85.52,1.73.85,2.56.43,1.11.93,2.18,1.38,3.28.25.62.42,1.29.68,1.9.4.94.95,1.83,1.28,2.8.56,1.67.86,3.44,1.54,5.06.57,1.35,1.52,2.53,2.29,3.8.24.39.45.79.68,1.18,1.24,2.03,1.7,4.51,3.6,6.17.23.2.33.57.5.85,1.36,2.3,1.98,5.02,4.05,6.91.19.18.21.53.35.78.31.55.6,1.13.99,1.63.68.88,1.44,1.68,2.12,2.56.53.68.89,1.5,1.48,2.12,1.39,1.48,2.89,2.87,4.31,4.33.36.37.56.89.83,1.34.27.45.47.98.84,1.33,3.7,3.58,7.36,7.2,11.2,10.63,1.08.96,2.71,1.3,3.55,2.67.04.06.15.12.22.11,1.18-.22,1.61.81,2.33,1.38,1,.79,2.01,1.59,3.11,2.22,1.33.76,2.79,1.29,4.14,2.02,1.27.69,2.51,1.43,3.66,2.29.65.49,1.12,1.06,2.06.68.26-.11.72.23,1.07.4.44.21.85.48,1.29.7,1.19.61,2.3,1.44,3.76,1.22.13-.02.28.16.43.22.67.24,1.33.48,2.01.7.27.09.7,0,.83.17.82,1.1,2,.77,3.09.87.48.04,1.15.07,1.38.37.83,1.11,1.88.75,3.25.69Zm1.14-272.34c-1.16-.71-2.23-.56-2.95.19-.28.29-.75.5-1.15.53-.95.08-1.91-.01-2.86.05-.42.03-.84.25-1.25.4-.51.19-1,.43-1.51.59-.39.11-1.01-.03-1.18.2-.73.99-1.72.82-2.7.82-.24,0-.52.04-.71.16-.99.61-1.93,1.32-2.95,1.85-1.62.84-3.34,1.5-4.94,2.37-2.28,1.24-4.93,1.85-6.69,3.97-.1.12-.29.15-.43.24-1.71,1.08-3.44,2.12-5.11,3.26-.84.58-1.53,1.38-2.35,2-.68.51-1.55.79-2.17,1.35-2.9,2.67-5.76,5.38-8.61,8.11-.81.78-1.9,1.41-1.83,2.81.01.22-.29.48-.49.67-1.46,1.41-2.97,2.77-4.4,4.22-.57.58-.99,1.32-1.47,1.99-.58.8-1.14,1.61-1.73,2.4-1.14,1.53-2.29,3.05-3.44,4.57-.02.03-.04.07-.05.11-.86,1.75-1.6,3.56-2.61,5.22-.82,1.37-2.09,2.53-.75,4.23.04.05,0,.17.03.24.22.6.43,1.21.67,1.8.45,1.12,1.24,2.21,1.32,3.35.22,3.06.15,6.14.17,9.21,0,.28-.03.69-.21.81-1.11.8-.9,1.94-.92,3.05-.01.4-.08.84-.26,1.19-.85,1.61-1.81,3.16-2.61,4.8-.24.48-.33,1.33-.06,1.71,1.33,1.87,2.76,3.67,4.25,5.41.97,1.13,2.14,2.08,3.2,3.14.28.28.61.66.64,1.02.1,1.18.79,1.41,1.79,1.36,1.02-.05,2.07.17,2.78-.94.16-.24.75-.27,1.15-.28,1.12-.04,2.24,0,3.36-.03.4-.01.96,0,1.18-.24.87-.92,1.96-.78,3.03-.78,1.66,0,3.32.04,4.98,0,.47-.01.93-.25,1.41-.35.42-.09,1.12-.32,1.21-.18.45.68.78,1.46,1.01,2.25.02.08-.8.57-1.25.62-1.2.12-2.52-.25-3.39,1.02-.1.14-.46.14-.7.15-2.12.03-4.23.03-6.35.07-.41,0-.97-.03-1.18.21-.82.92-1.85.79-2.88.81-.37,0-.74.1-1.11.15-.02.11-.03.23-.05.34,1.64.86,3.26,1.76,4.91,2.58,2.17,1.08,4.22,2.54,6.87,2.11.26-.04.61.21.87.4,1.39.98,3.58.67,4.89-.36,2.14-1.68,2.99-3.76,2.59-6.41-.06-.41-.03-.83,0-1.24.02-.28.04-.7.21-.81,1-.6.77-1.55.78-2.44,0-1.54-.04-3.08.02-4.61.02-.55.27-1.1.43-1.65.19-.66.49-1.31.54-1.97.09-1.07,0-2.16.03-3.24,0-.36.01-.92.23-1.05,1.49-.88.9-2.21.88-3.45-.01-.98-.24-2.19.23-2.89.71-1.07.86-2.1.85-3.27,0-1.06-.21-2.16.83-2.96.19-.15.19-.62.2-.94.02-.91-.04-1.83,0-2.74.01-.33.21-.66.34-.99.22-.53.56-1.03.67-1.57.19-.92.18-1.87.36-2.79.15-.74.49-1.44.68-2.17.43-1.65.81-3.32,1.23-4.97.03-.11.18-.18.22-.29.26-.65.63-1.29.74-1.97.15-.97-.3-2.1.9-2.74.13-.07.18-.38.17-.57-.07-1.98,1.29-3.5,1.74-5.33.4-1.63,1.11-3.18,1.68-4.76.08-.23.19-.45.28-.68.25-.63.51-1.26.74-1.9.14-.38.23-.79.38-1.17.57-1.54,1.16-3.08,1.74-4.61.1-.27.18-.58.37-.77,1.94-1.93,2.57-4.6,3.9-6.87.84-1.43,1.81-2.77,2.73-4.15.04-.07.14-.09.19-.16.43-.58.88-1.16,1.28-1.76.3-.44.46-1.02.84-1.37,2.12-1.92,3.64-4.52,6.58-5.71Zm-68.44,75.36c.19.01.38.02.58.03.75-1.95,2.59-3.42,2.26-5.88-.07-.55.32-1.17.51-1.75.15-.46.44-.91.45-1.37.05-2.94.04-5.89.03-8.84,0-.35-.14-.72-.26-1.06-.23-.71-.51-1.41-.73-2.13-.13-.4-.18-.83-.27-1.24-.13-.04-.26-.08-.39-.13-.79,1.08-1.73,2.09-2.35,3.27-.97,1.84-1.91,3.68-2.47,5.76-.35,1.31-.2,1.89.63,2.64.8.73.86,1.44.14,2.38-.42.55-.73,1.53-.53,2.15.67,2.1,1.59,4.11,2.41,6.16Zm52.07,195.54c-.67-.44-1.25-.94-1.92-1.21-.44-.17-1.07-.1-1.49.1-.16.08-.17.96.05,1.25.34.47,2.83.23,3.37-.14Z"/>
  <path d="m355.94,186.2c.21-.28.36-.63.63-.84,1.15-.9,1.32-2.12,1.52-3.49.25-1.71.9-3.4,1.56-5.02.59-1.46.67-1.42-.75-2.01-.31-.13-.5-.54-.74-.83.29-.18.58-.51.87-.51,1.82-.04,3.65-.08,5.47.02,1.17.07,1.97.87,2.37,1.94.37,1,.26,1.97-.58,2.74-1.08.99-1.61,1.96-.62,3.44.37.54.32,1.76-.06,2.33-.9,1.37-2,2.65-3.93,2.61-1.85-.04-3.71,0-5.56,0l-.17-.37Zm2.77-1.02c1.45.37,3.09.53,4.6-.3.47-.25.84-1.02.91-1.59.2-1.47-1.02-3.19-2.94-3.02-1.87.16-1.87.08-1.97,1.99-.05.9-.36,1.78-.61,2.93Zm3.54-6.45s0,.02,0,.03c.41-.03.83,0,1.23-.09,1.31-.29,2.18-1.62,1.91-3.02-.26-1.31-1.38-.64-2.13-.8-.27-.06-.62-.07-.85.05-.32.18-.63.46-.83.77-.32.5-.58,1.04-.82,1.58-.14.32-.36.74-.26,1.01.09.24.56.37.89.46.27.07.57.01.86.01Z"/>
  <path d="m196.56,21.22c-.74,1.4.4,3.26-1.62,4.12.94.45,1.65.79,2.35,1.13-.04.14-.09.28-.13.41-1.48.51-2.96.33-4.79-.06.58-.65.98-1.04,1.3-1.49.35-.49.76-.99.89-1.55.38-1.64.58-3.31.94-4.95.16-.71.52-1.39.86-2.04.39-.76.38-1.21-.61-1.41-.36-.07-.65-.49-.97-.75.38-.24.74-.68,1.13-.7,1.74-.07,3.48-.07,5.22-.01,1.19.04,2.17,1.28,2.37,2.64.32,2.23-.74,3.86-2.42,4.96-1.38.9-3.01.63-4.53-.31Zm5.77-3.83c-.17-.65-.24-1.81-.52-1.87-.97-.18-2.04-.1-3.02.12-.59.13-1.5,3.49-1.21,4.11.11.23.36.47.59.54,2.42.79,4.02-.36,4.16-2.91Z"/>
  <path d="m30.45,185.5c-1.3,0-2.64.01-3.97-.04-.05,0-.23-.73-.1-.87.23-.24.74-.19,1-.41.92-.77,1.94-1.5,2.61-2.46.6-.85.92-1.77,1.86-2.49.86-.65,1.26-2,1.68-3.12.61-1.6,1.9-2.54,3.29-3.99.13,1.1.28,1.81.28,2.52.03,2.61-.06,5.22.04,7.83.04.96.47,1.91.78,3.05-1.15,0-2.42.02-3.67-.02-.19,0-.57-.46-.53-.51.17-.28.41-.66.68-.71.64-.12,1.2-.17,1.35-.99.27-1.53-.06-1.8-1.6-2.02-1.98-.28-3.02.92-3.95,2.24-.25.37.11,1.16.23,2Zm2.48-5.54c.79,0,1.28.11,1.67-.03.43-.15,1.09-.5,1.12-.82.13-1.32.05-2.66.05-3.99-.19-.03-.37-.05-.56-.08-.71,1.54-1.43,3.07-2.29,4.92Z"/>
  <path d="m198.56,333.65c-.24,1.44-.48,2.94-.75,4.54.43.2.99.47,1.61.77-1,.96-3.35,1.05-4.7.2.27-.35.47-.79.81-1.02,1.3-.87,1.42-2.12,1.35-3.52-.03-.52.23-1.06.42-1.57.15-.42.53-.81.55-1.23.05-.88.12-1.61.97-2.22.65-.46.3-1.3-.53-1.6-.55-.2-1.09-.41-1.63-.62,0-.15.02-.3.03-.46.48-.11.95-.3,1.43-.32,1.41-.05,2.84.09,4.23-.06,1.53-.16,2.61.56,3.13,1.74.54,1.24.54,2.69-.42,3.89-1.09,1.37-2.28,2.59-4.26,2.21-.7-.14-1.37-.45-2.24-.75Zm2.58-.39c2.54.05,3.41-1.52,3.24-3.94-.08-1.21-.64-1.55-2.73-1.33-.44.05-.91.52-1.23.9-.33.4-.58.93-.7,1.44-.18.73-.43,1.56-.23,2.22.11.37,1.08.48,1.66.7Z"/>
  <path d="m206.65,345.05h-2.76c.17-2.02.35-3.94.47-5.87.03-.43.01-1.04-.25-1.29-.93-.9-.44-1.52.29-2.11.26-.21.63-.29.95-.42.12.33.34.66.35,1,.05,1.24.02,2.48.03,3.72.02,1.65-.41,3.4,1.15,4.75-.08.07-.16.15-.23.22Z"/>
  <path class="cls-1" d="m342.54,165.2c-.81-1.02-1.74-1.97-2.4-3.08-1.47-2.5-3.42-4.41-5.94-5.83-.95-.54-1.71-1.42-2.57-2.13-.6-.49-1.09-1.45-2.08-.72-.6.44-.69,2.11-.11,2.79.45.52,1.05.91,1.62,1.32.84.59,1.76,1.07,2.54,1.73.92.77,1.66,1.76,2.58,2.52,2.87,2.35,4.42,5.54,5.87,8.83.46,1.05,1.09,1.98,1,3.25-.13,1.79-.05,1.82-1.82,1.83-5.78,0-11.55,0-17.33,0-.79,0-1.59-.06-2.37.02-.77.08-1.91-.45-2.1.89-.13.93,1.16,2.31,2.16,2.42.41.05.83.03,1.25.03,6.15,0,12.3,0,18.45.01,1.71,0,1.6.02,1.74,1.76.15,1.73-.93,2.97-1.45,4.42-.64,1.77-1.9,3.08-3.23,4.35-1.45,1.37-2.75,2.9-4.26,4.2-3.45,2.97-6.93,5.94-11.28,7.59-.46.17-.96.39-1.29.73-.93.96-1.89,1.59-3.36,1.52-.71-.03-1.46.65-2.18,1.04-1.04.57-2,1.4-3.11,1.69-1.4.37-2.4,1.86-4.07,1.4-.15-.04-.39-.05-.48.04-1.53,1.45-3.94.93-5.39,2.26-1.25,1.16-2.51,1-3.9.89-.23-.02-.59.07-.68.22-.61,1.12-1.66.82-2.62.94-.74.09-1.44.43-2.16.64-.39.12-.79.2-1.18.33-.71.24-1.41.51-2.12.75-.35.12-.7.26-1.06.28-1.22.07-2.5-.14-3.42,1.04-.16.21-.72.06-1.07.17-.58.19-1.14.46-1.72.67-.38.14-.77.31-1.15.32-1.49.04-2.92.07-4.35.79-.85.43-2.04.12-3.06.25-.66.09-1.3.39-1.94.59-.46.14-.92.36-1.4.4-1.24.09-2.49.08-3.73.12-.2,0-.5-.01-.59.11-1.19,1.57-2.89.77-4.38,1-.59.09-1.13.44-1.7.65-.37.14-.76.31-1.15.33-1.16.04-2.33,0-3.49.03-1.07.03-2.24-.36-3.06.82-.16.23-.78.18-1.19.18-2.53.02-5.07,0-7.6.03-.4,0-1.01,0-1.16.23-.75,1.12-1.84.96-2.91.95-2.33-.03-4.65-.08-6.98-.09-.3,0-.78.09-.88.28-.46.91-1.25.82-2.04.82-7.19-.01-14.38-.03-21.57-.03-.31,0-.76,0-.92.2-1.38,1.65-3.18.58-4.77.74-.13.01-.46-.63-.47-.98-.06-1.33-.02-2.66-.03-3.99,0-.41.1-.93-.1-1.22-.46-.67-.98-1.45-1.67-1.78-.6-.29-1.76,1.11-1.78,2.04-.04,1.58-.06,3.16-.02,4.74.03.96-.33,1.38-1.31,1.31-.79-.05-1.58,0-2.37-.02-.29,0-.7.04-.84-.13-1.11-1.3-2.6-.86-3.96-.86-6.81-.03-13.63,0-20.44-.04-.63,0-1.26-.41-1.9-.62-.38-.13-.77-.32-1.16-.34-.95-.05-1.91-.01-2.87-.02-2.76-.01-4.3-1.56-4.29-4.31,0-1.04.11-2.09-.01-3.11-.1-.82-.5-1.59-.72-2.4-.18-.67-.42-1.35-.43-2.03-.04-3.66,0-7.31-.05-10.97-.01-.64-.41-1.27-.61-1.91-.13-.42-.34-.85-.34-1.28-.02-5.49,0-10.97-.03-16.46,0-.98.37-1.32,1.33-1.31,3.2.03,6.4-.03,9.6.04,1.32.03,2.11-.56,2.7-1.62.59-1.08.29-1.65-.94-1.74-.45-.04-.91-.02-1.37-.02-3.32,0-6.65-.01-9.97.01-.84,0-1.34-.19-1.33-1.17.02-5.28,0-10.56.01-15.83,0-.28.05-.73.21-.8,1.25-.53.79-1.56.79-2.47,0-4.11.04-8.23-.03-12.34-.02-1.17.72-1.72,1.42-2.33.84-.72,1.23-1.36.31-2.36-.37-.4-.47-1.14-.49-1.74-.06-1.62-.03-3.24,0-4.86.01-.84-.19-1.76.83-2.29.19-.1.19-.68.19-1.04.01-1.83,0-3.66,0-5.49,0-.37-.09-.91.11-1.09,1.6-1.37.71-3.16.88-4.76.1-.98-.14-2.01.95-2.65.21-.13.23-.68.24-1.03.03-1.04-.08-2.09.04-3.11.09-.72.5-1.4.7-2.11.15-.54.22-1.11.31-1.67.2-1.31-.6-2.87.98-3.86.15-.09.09-.54.09-.82,0-1-.06-1.99-.04-2.99,0-.31.06-.82.25-.91,1.1-.51.83-1.47.96-2.36.12-.81.53-1.57.72-2.38.16-.71.14-1.47.3-2.19.16-.69.47-1.33.7-2,.12-.34.28-.68.29-1.03.03-.86-.16-1.73.81-2.31.22-.13.18-.75.2-1.15.04-1.14-.27-2.36.84-3.22.08-.07.12-.22.14-.34.55-2.98,1.61-5.78,2.99-8.47.22-.42.13-.98.29-1.44.16-.46.45-.87.68-1.3.14-.27.31-.54.4-.83.26-.93.35-1.93.76-2.79,1.53-3.23,3.14-6.42,4.75-9.6.24-.47.67-.84.96-1.29.38-.59.7-1.21,1.03-1.83.06-.11.05-.26.13-.35,2.48-2.79,4.21-6.31,7.34-8.4,2.84-1.9,5.55-4.32,9.41-4.24-.04.64-.13,1.37-.13,2.1-.01,7.44.01,14.88-.04,22.32,0,1.38.66,2.19,1.76,2.74,1.11.55,1.8.14,1.82-1.09.04-2.16.03-4.32.03-6.48,0-6.15,0-12.3,0-18.45q0-1.68,1.62-1.68c1.7,0,3.41,0,5.11,0,1.12,0,2.23-.1,3.16.79.24.23.78.2,1.19.21,1.41.02,2.83,0,4.24.01,1.1,0,2.24-.23,3.04.93.17.24.76.25,1.16.26,1.25.03,2.5-.09,3.74.03.86.08,1.67.52,2.52.71.67.16,1.39.13,2.06.3.72.18,1.39.52,2.1.76.41.14.85.29,1.27.28,1.15-.02,2.36-.34,3.12.92.04.06.14.13.21.12,1.79-.14,3.38.96,5.02,1.02,2.01.07,3.54.93,5.19,1.75.15.07.29.3.4.28,1.75-.34,2.92,1.42,4.62,1.24.16-.02.34,0,.49.06,1.49.61,3.02,1.17,4.46,1.88,2.87,1.4,5.69,2.9,8.53,4.35.11.06.24.17.34.15,2.56-.47,3.65,2.09,5.71,2.78,2,.67,4.04,1.56,5.52,3.26.32.36.78.68,1.24.81,2.23.6,3.47,2.47,5.12,3.81,2.02,1.64,4.29,2.97,6.37,4.55,1.25.95,2.31,2.13,3.5,3.15.48.41,1.08.67,1.62,1.01.38.23.81.43,1.13.73.82.77,1.54,1.64,2.39,2.36.6.51,1.36.82,2.03,1.24.31.2.61.42.87.68,2.19,2.16,4.42,4.28,6.53,6.52,1.18,1.25,2.14,2.7,3.23,4.04.55.67,1.2,1.26,1.74,1.95.8,1.03,1.5,2.15,2.32,3.17.7.87,1.5,1.65,2.25,2.48.22.24.59.49.6.75.05,1.19.79,1.93,1.62,2.54,1.43,1.04,1.92,2.65,2.71,4.09.43.78,1.05,1.47,1.52,2.23,1.34,2.21,2.75,4.39,3.93,6.68,1.54,2.99,2.84,6.1,4.37,9.09.49.96,1.22,1.75.99,2.95-.05.24.31.54.46.83.22.41.42.83.64,1.25.16.32.32.64.51.95.11.17.36.28.41.46.4,1.55.77,3.11,1.14,4.67.02.08-.02.18.01.25.63,1.47,1.28,2.93,1.9,4.41.17.4.3.85.32,1.28.06,1.18-.26,2.42.86,3.35.19.16.12.63.18.95.09.44.05,1.06.32,1.3,1.07.9.75,2.09.89,3.21.13,1.03.57,2.02.75,3.05.16.97.16,1.97.22,2.95.07,1.16-.33,2.44.85,3.33.1.08.13.31.13.47,0,1.82,0,3.63,0,5.45-.15.08-.31.15-.46.23Zm-143.48-37.4c-.05,1.08-.11,1.8-.11,2.53,0,8.06,0,16.12.01,24.18,0,.33,0,.67.06.99.13.85,1.31,2.11,1.88,1.82.62-.31,1.09-1.03,1.45-1.67.22-.39.14-.97.14-1.47.02-7.85.02-15.7.03-23.56,0-1.76,0-1.76,1.68-1.85.66-.04,1.33-.06,1.99-.06,7.31,0,14.62,0,21.93,0,.37,0,.83.12,1.1-.05.43-.26.92-.68,1.02-1.12.06-.27-.51-.89-.89-1-.66-.18-1.4-.13-2.1-.1-1.4.06-2.81.28-3.97-.86-.2-.2-.62-.23-.94-.23-6.94-.01-13.88,0-20.81,0-.75,0-1.28.22-1.38,1.08-.13,1.12-.69,1.04-1.27.33-.96-1.19-2.18-1.46-3.64-1.44-4.82.06-9.64.01-14.46.03-1.21,0-2.51-.3-3.47.86-.14.17-.55.16-.83.17-1.66.07-3.33.25-4.97.14-1.45-.1-2.43.5-3.5,1.57.55.51,1.07.97,1.56,1.45.63.61,1.15.63,1.76-.11.3-.36.9-.68,1.36-.68,6.48-.04,12.96-.04,19.44,0,2.25.02,4.54.64,6.93-.96Zm3.43,62.39h.04c0-3.2.04-6.4-.02-9.6-.02-1.13.33-1.55,1.5-1.52,3.12.06,6.23.02,9.35.02,1.49,0,2.66-.76,2.65-1.69,0-.91-1.18-1.66-2.7-1.67-2.41-.01-4.82.05-7.23-.03-.6-.02-1.29-.32-1.74-.71-1.03-.89-1.95-1.92-2.91-2.9-.5-.51-.85-.55-1.4.07-.55.62-1.37,1.02-2.08,1.49-.48.32-1.17.48-1.44.92-.72,1.18-1.77,1.19-2.92,1.17-1.99-.03-4-.09-5.98.06-.63.05-1.4.58-1.74,1.12-.22.34.07,1.25.43,1.65.32.36,1.03.49,1.57.5,3.03.05,6.07,0,9.1.05,1.86.03,1.98.19,1.99,2,.01,6.07.02,12.13.03,18.2,0,.46-.13,1.05.1,1.34.51.64,1.14,1.29,1.86,1.57.26.1,1.01-.79,1.37-1.34.22-.34.17-.88.17-1.33.01-3.12,0-6.23,0-9.35Zm.01-93.22s.01,0,.02,0c0-4.28-.02-8.56.02-12.84.01-1.07-.54-1.85-1.36-2.17-.43-.17-1.3.36-1.74.8-.35.35-.47,1.04-.47,1.59-.02,8.18-.02,16.37,0,24.55,0,.66-.04,1.41.24,1.96.31.6.91,1.2,1.52,1.44.29.11,1.08-.51,1.34-.97.31-.54.41-1.26.41-1.9.03-4.15.02-8.31.02-12.46Zm43.03,82.11h0c4.07,0,8.14,0,12.21,0,.42,0,.83,0,1.25-.02,1.01-.08,1.67-.7,1.76-1.63.09-.99-.74-1.4-1.58-1.63-.32-.08-.66-.08-.99-.08-8.39,0-16.78,0-25.17,0-.49,0-1.1-.01-1.44.26-.46.36-1.06,1.08-.96,1.49.15.6.81,1.12,1.36,1.54.24.19.72.06,1.1.06,4.15,0,8.31,0,12.46,0Zm44.77,0c2.28,0,4.56,0,6.85,0,2.07,0,4.15,0,6.22-.01.82,0,2.44-1.25,2.16-1.65-.46-.68-1.25-1.17-1.97-1.63-.27-.17-.73-.06-1.1-.06-7.59,0-15.18,0-22.78,0-.87,0-1.81-.19-2.59.07-.73.24-1.49.86-1.86,1.53-.32.58.97,1.69,1.88,1.75.25.02.5,0,.75,0,4.15,0,8.3,0,12.45,0Zm-22.51-45c.81.1,1.93-.09,2.37.37.78.82,1.59.68,2.47.76,1.31.12,1.42-.7,1.39-1.66-.02-.95-.02-1.86-1.43-1.76-.85.06-1.96.19-2.51-.26-.87-.7-1.71-.71-2.65-.71-.95,0-1.91.04-2.86-.02-.38-.02-.96-.13-1.09-.38-.43-.87-1.14-.83-1.9-.82-1.08.02-2.16.04-3.24-.02-.46-.03-.91-.28-1.37-.44-.52-.18-1.04-.52-1.57-.54-1.91-.06-3.82.01-5.73,0-.4,0-.87-.05-1.17-.26-1.49-1.1-2.98-1.03-4.21.35-.17.19-.16.79.01.99.71.85,1.55,1.34,2.78,1.31,1.22-.04,2.71-.63,3.54.97.05.1.38.09.59.09,2.11.04,4.22.05,6.33.12.41.01.82.27,1.22.43.47.19.93.52,1.41.55,1.24.08,2.49.02,3.73.03.33,0,.84-.05.95.13.74,1.16,1.87.82,2.92.77Zm48.86,12.31c-.17-1.54-.22-1.61-1.61-1.6-.81,0-1.56,0-2.06-.82-.14-.23-.57-.28-.87-.39-1.38-.49-2.76-.96-4.14-1.47-1.66-.61-3.3-1.23-4.95-1.86-.23-.09-.42-.26-.65-.35-.56-.21-1.12-.48-1.7-.57-1.49-.24-2.67-1.54-4.32-1.22-.06.01-.15-.21-.26-.25-.6-.26-1.2-.56-1.83-.73-.81-.21-1.83-.07-2.45-.51-.96-.68-1.91-.71-2.81-.36-.6.24-1.42,1.09-1.34,1.54.1.59.94,1.44,1.52,1.5,1.61.15,3.09.44,4.59,1.11,1.49.67,3.19.88,4.8,1.29.08.02.19.03.23.08,1.16,1.54,3.13.95,4.64,1.79,2.13,1.18,4.66,1.6,6.96,2.51.97.39,1.73,1.28,2.94.87.16-.05.5.14.62.31.45.62,1.01,1.19,1.73.7.46-.31.63-1.04.94-1.58Zm-144.93,4.96c1.09-1.44,2.24-2.79,3.17-4.27.97-1.54,1.69-3.26,3.67-3.93-.02.51-.22.92-.43,1.32-.17.34-.46.66-.51,1.02-.12.77-.05,1.57-.17,2.35-.18,1.13-.65,2.04-1.97,2.23-.3.04-.56.38-.84.57.3.23.57.63.89.66.94.1,1.91.14,2.86.05.56-.05,1.09-.37,1.63-.57-.4-.36-.8-.72-1.2-1.09-.06-.05-.09-.13-.17-.24.12-.44.3-.91.36-1.39.07-.53,0-1.08.04-1.62.03-.37,0-.87.21-1.06.89-.77.8-1.75.8-2.75,0-1.93.37-2.43,2.18-3.14.42-.16.81-.42,1.3-.69-2.05-1.36-4.98-.07-5.8,2.26-.27.77-.8,1.46-1.27,2.14-.67.98-1.4,1.92-2.11,2.88-.36.5-.67,1.06-1.12,1.47-.26.23-.82.39-1.11.27-.27-.12-.51-.64-.53-.99-.06-1.33,0-2.66-.05-3.98-.02-.43-.08-1.03-.36-1.23-.76-.57-.78-1.27-.75-2.09.01-.37-.28-1.05-.5-1.08-.98-.12-1.97-.05-2.97-.05-.05.18-.1.36-.15.55.72.35,1.44.7,1.89.92-.21.85-.41,1.59-.57,2.33-.16.76-.03,1.83-.49,2.21-.69.58-.68,1.14-.68,1.84.01,2.46-.25,2.83-2.56,3.76-.27.11-.47.4-.7.6.21.22.42.63.64.64,1.45.06,2.91.14,4.34,0,.78-.08.89-.65.18-1.2-.28-.22-.72-.53-.71-.79.04-1.32.14-2.64.37-3.94.05-.27.68-.56,1.07-.61.16-.02.51.53.59.86.47,1.85.88,3.72,1.32,5.58.02.07.11.11.19.19Zm33.65,38.6c-.02,3.9,2.11,5.83,5.69,5.4,2.61-.32,4.55-1.51,5.58-4.03.42-1.03.98-2.01,1.48-3.01,1.15-2.29-.6-5.91-3.15-6.22-1.79-.22-3.47-.35-5.08,1.33-1.05,1.1-2.38,1.88-3.27,3.32-.7,1.13-1.49,2.04-1.26,3.21Zm-16.96-36.07c-.26.19-.36.26-.46.33-.45.34-.81,1.19-1.48.47-.13-.14.28-.99.62-1.32,1.09-1.06,1.58-2.27,1.47-3.8-.09-1.25-.67-2.17-1.69-2.72-1.07-.57-2.15-.18-2.98.59-.39.36-.86,1.24-.71,1.46.58.8.92-.13,1.33-.41.85-.59,2.54-.49,2.61.23.14,1.45.52,2.99-.85,4.18-.94.82-1.81,1.71-2.69,2.59-.25.25-.43.59-.84,1.16,1.6,0,2.84,0,4.07,0,1.68,0,1.79-.12,1.73-1.75-.01-.28-.07-.57-.12-1.01Z"/>
  <path class="cls-1" d="m164.62,237.41c.58.36,1.11.69,1.54.96-.14,1.32-.18,2.64-.45,3.9-.21.97-.68,1.89-1.11,2.8-.1.21-.65.44-.8.35-.3-.2-.64-.58-.67-.92-.1-.95.02-1.92-.08-2.86-.06-.58-.38-1.13-.57-1.7-.15-.46-.36-.91-.4-1.38-.11-1.28-.14-2.57-.21-3.85,0-.17.02-.38-.07-.49-1.57-1.75-.87-3.87-.9-5.83-.06-3.63-.46-3.16,3.15-3.19,1.2,0,2.52-.33,3.41.95.1.15.55.08.83.08,7.52,0,15.04-.03,22.56.01.62,0,1.23.47,1.85.7.45.17.91.41,1.37.43,1.12.07,2.25.08,3.36.02,1.13-.06,1.53.35,1.52,1.51-.04,5.11,0,10.22.01,15.33,0,.46-.11,1.02.11,1.34.45.64,1.01,1.39,1.68,1.59.35.11,1.14-.76,1.52-1.33.26-.4.21-1.04.21-1.57.02-5.11.06-10.22.01-15.33-.01-1.22.4-1.64,1.58-1.55,1.03.08,2.09.1,3.11-.02.63-.07,1.22-.48,1.84-.71.45-.17.92-.42,1.37-.42,7.19-.02,14.38,0,21.57-.01.35,0,.9-.01,1.02-.22.57-.97,1.45-.82,2.31-.82,2.41,0,4.82.04,7.23-.02.56-.01,1.11-.4,1.67-.59.49-.16,1-.38,1.51-.39,2.45-.04,4.9.03,7.35-.04.64-.02,1.26-.43,1.9-.63.62-.19,1.25-.45,1.89-.5,1.03-.09,2.08-.07,3.11-.02.95.05,1.89.3,2.51-.8.12-.21.68-.2,1.04-.24,1.55-.15,3.14.33,4.63-.84.63-.49,1.93-.13,2.92-.17,1.17-.04,2.31.16,3.39-.79.52-.45,1.67-.21,2.53-.23.89-.02,1.7-.04,2.35-.85.24-.3.89-.3,1.36-.36,1.38-.17,2.92.47,4.06-.91.15-.18.63-.09.96-.12.37-.04.89.06,1.08-.14,1.01-1.11,2.37-.77,3.59-1.03.54-.12,1.03-.42,1.55-.62.37-.15.75-.37,1.14-.38.84-.04,1.52-.17,2.25-.76.53-.43,1.57-.27,2.39-.3.67-.03,1.3.08,1.67-.73.12-.26.73-.5,1.06-.44,2.07.37,3.66-.77,5.38-1.57.55-.25,1.17-.35,1.76-.5.28-.07.67.02.84-.14.8-.77,1.65-1.22,2.79-.91.07.02.17-.02.24-.06.98-.57,1.94-1.18,2.94-1.71.94-.5,1.89-1,2.89-1.36,1.21-.43,2.26-1.42,3.71-1.15.19.04.52-.15.63-.33,1.45-2.24,4.18-2.4,6.14-3.81.99-.71,1.95-1.47,2.95-2.18.63-.45,1.3-.84,1.95-1.25.42-.26.91-.45,1.25-.79,2.45-2.42,4.91-4.84,7.29-7.34.65-.68,1.05-1.6,1.71-2.66.06.61.14.99.14,1.37,0,1.58-.02,3.16-.01,4.74,0,1,.08,1.99-.77,2.78-.22.2-.22.7-.22,1.06-.03,1.25.04,2.5-.04,3.74-.03.43-.37.84-.53,1.27-.17.44-.44.91-.41,1.35.21,2.81-.97,5.23-1.99,7.71-.18.44-.23.96-.25,1.44-.04,1.01.27,2.11-.94,2.73-.15.08-.27.48-.2.67.66,1.97-.62,3.38-1.33,4.97-.32.7-.47,1.48-.77,2.19-.51,1.21-1.08,2.4-1.64,3.6-.1.22-.31.42-.36.65-.84,3.94-3.27,7.18-4.78,10.83-.54,1.3-1.2,2.56-1.84,3.82-.22.44-.55.83-.82,1.24-.46.7-.91,1.4-1.36,2.1-.09.14-.12.35-.24.43-1.41.88-1.63,2.51-2.45,3.76-1.87,2.85-3.4,5.97-6.16,8.15-.86,3.01-4.09,4.26-5.27,7.08-.38.91-1.28,1.62-2.01,2.35-2.75,2.77-5.43,5.63-8.34,8.21-1.77,1.57-3.94,2.69-5.92,4.03-.48.32-.94.69-1.34,1.1-1.23,1.27-2.27,2.61-4.09,3.3-1.21.47-2.04,1.9-3.1,2.82-.57.5-1.27.84-1.91,1.26-.35.23-.77.4-1.01.7-1.3,1.65-3.15,2.49-4.93,3.44-.04.02-.08.02-.12.05-2.43,1.6-4.82,3.24-7.29,4.78-1.06.66-2.27,1.08-3.4,1.62-.29.14-.56.31-.82.49-.23.16-.44.49-.67.51-3.32.26-5.72,2.66-8.69,3.72-.69.25-1.42.4-2.12.62-.42.14-.84.31-1.24.5-.22.11-.42.42-.6.41-1.45-.13-2.6.65-3.82,1.21-.33.15-.65.31-.96.5-.17.11-.28.36-.46.4-1.63.41-3.26.79-4.9,1.17-.28.06-.71-.02-.82.13-.83,1.2-2.06.81-3.18.93-.49.05-.96.35-1.43.55-.46.2-.9.53-1.37.59-.82.1-1.67-.04-2.49.06-.53.06-1.02.43-1.55.55-.86.19-1.74.36-2.61.41-.7.04-1.38-.15-1.81.69-.13.24-.73.32-1.12.33-1.54.04-3.07,0-4.61.03-.37,0-.94-.05-1.07.15-1.02,1.57-2.53.77-3.83.86-.91.07-1.83-.03-2.74.02-.39.02-.97.09-1.13.34-.55.87-1.34.85-2.19.85-2.37-.01-4.74-.05-7.11.01-1.06.03-1.38-.37-1.34-1.38.06-1.87.05-3.74-.02-5.61-.02-.52-.26-1.29-.62-1.46-.39-.18-1.1.12-1.57.38-.95.53-1.32,1.44-1.32,2.52,0,1.45.02,2.91-.01,4.36-.02,1.18-.4,1.44-1.48.94-2.18-1.02-4.33-2.1-6.48-3.18-.25-.13-.45-.36-.66-.56-1.61-1.62-3.26-3.21-4.81-4.89-.56-.6-.88-1.43-1.31-2.15-.15-.25-.26-.54-.47-.71-.84-.69-1.72-1.34-1.71-2.59,0-.11-.1-.23-.18-.32-2.92-3.09-4.15-7.13-5.97-10.81-1.66-3.35-3.01-6.88-4.09-10.45-.51-1.68-1.77-3.21-1.42-5.14,0-.04.01-.1-.01-.12-1.48-1.07-.52-2.89-1.16-4.05-.79-1.41-.65-2.85-1.01-4.25-.4-1.53-1.25-2.95-1.79-4.45-.24-.67-.14-1.46-.28-2.18-.12-.61-.37-1.2-.54-1.81-.17-.62-.42-1.24-.45-1.87-.06-1.4.07-2.78-.94-4.02-.69-.85.2-1.16.84-1.31.74-.17,1.51-.2,2.27-.29.03-.14.07-.29.1-.43-.61-.28-1.21-.56-1.57-.73.17-1.2.46-2.27.44-3.33-.03-1.22.36-1.89,1.76-1.95,0,.56-.09,1.14.02,1.69.14.65.46,1.26.67,1.9.19.57.37,1.15.5,1.74.11.49.16,1,.29,1.86,2.19-3.27,4.13-6.24,6.48-8.87.17.08.34.16.5.24-.04.4-.03.81-.13,1.19-.26.97-.72,1.91-.81,2.89-.17,1.82-.59,2.43-2.39,2.91-.26.07-.47.38-.7.57.22.2.44.57.67.58,1.37.06,2.74.06,4.1,0,.23,0,.45-.38.68-.59-.23-.2-.45-.55-.7-.58-1.04-.14-1.13-.55-.68-1.43.25-.48.28-1.11.29-1.68.02-.97.12-1.83.8-2.66.38-.46.3-1.32.37-2.01.19-1.94.41-2.22,2.23-2.8.4-.13.77-.34,1.48-.66-1.33-.74-2.49-1.14-3.42-.42-1.05.81-1.82,1.98-2.66,3.03-.43.54-.72,1.18-1.11,1.74-.75,1.08-1.53,2.14-2.31,3.2-.29.39-.58.83-.98,1.1-.94.64-1.61.28-1.64-.84-.03-1-.01-1.99.01-2.99.03-.93-.07-1.76-.77-2.53-.33-.36-.43-1.08-.37-1.61.1-.96-.37-1.33-1.17-1.39-.87-.06-1.83-.29-2.64.79Zm37.9,39.01c0-1.37,0-2.74,0-4.11,0-3.2.01-6.4-.02-9.6-.02-1.42-.67-1.75-1.92-1.1-1.14.6-1.66,1.48-1.65,2.81.03,8.1,0,16.2,0,24.31,0,.21,0,.42.02.62.13.91,1.7,2.44,2.49,2.32,1.41-.22,1.06-1.39,1.06-2.28.03-4.32.01-8.64.01-12.96Zm-15.68-27.69c-.11-.04-.21-.09-.32-.13.27-1.47-.46-2.46-1.63-3.08-1.02-.54-2.13-.37-2.99.46-.38.36-.6.88-.89,1.33.45-.14.93-.23,1.35-.44.93-.46,2.45-.36,2.74.25.4.83.02,3.2-.66,3.85-1.02.97-2.08,1.9-3.09,2.88-.21.2-.44.61-.36.81.08.22.51.41.8.42,1.19.05,2.4.1,3.58.01.4-.03,1.03-.43,1.1-.76.13-.6.39-1.41-.64-1.73-.94-.29-.77-.78-.26-1.48.53-.72.85-1.6,1.25-2.41Zm-2.14-21.43c-.06.03-.22.06-.27.14-.51.93-1.09,1.85-1.46,2.84-.1.28.41.78.64,1.19.23-.14.55-.22.66-.43.41-.76.77-1.55,1.12-2.34.32-.71-.04-1.46-.69-1.4Z"/>
  <path class="cls-1" d="m54.36,164.89c-.07-.71-.19-1.34-.18-1.97,0-1.04.1-2.07.16-3.11.01-.21-.04-.51.08-.6,1.61-1.28.76-3.04.93-4.6.1-.92-.19-1.91.87-2.54.2-.12.19-.68.2-1.04.02-.91-.03-1.83,0-2.74,0-.32.05-.81.24-.91,1.07-.59.97-1.52.89-2.5-.02-.26.04-.69.2-.78,1.06-.55.86-1.51.86-2.41,0-.87-.1-1.74.73-2.38.21-.16.18-.61.28-.92.23-.73.46-1.46.7-2.19.06-.2.23-.38.23-.57.02-1.18.31-2.21.93-3.27.63-1.07.86-2.37,1.27-3.56,1.77-5.14,4.33-9.91,6.8-14.72.68-1.32,1.48-2.58,2.49-3.77,1.45-1.7,2.27-3.93,3.43-5.9.5-.84,1.15-1.6,1.73-2.39.12-.16.38-.29.41-.46.34-2.26,2.44-3.15,3.66-4.71.34-.43.56-.96.84-1.44.2-.35.37-.74.64-1.03.83-.88,1.74-1.67,2.54-2.57.48-.54.8-1.23,1.19-1.84.31-.48.55-1.04.95-1.43,2.68-2.67,5.17-5.59,8.16-7.86,2.14-1.63,3.89-3.79,6.17-5.04,2.01-1.1,3.21-2.85,4.93-4.13.64-.47,1.52-.63,2.13-1.13,2.61-2.13,5.1-4.38,7.74-6.46.88-.69,2.07-1,3.12-1.48.22-.1.56-.11.67-.28,1.33-1.94,3.65-2.3,5.46-3.48.38-.25.85-.33,1.24-.56.65-.37,1.25-.83,1.9-1.2.6-.34,1.23-.65,1.86-.93,1.23-.54,2.5-.99,3.71-1.57,2.39-1.16,4.7-2.49,7.14-3.54,1.5-.64,3.19-.82,4.74-1.34,2.29-.76,4.61-1.49,6.76-2.54.97-.48,1.85-.54,2.82-.63.56-.05,1.08-.39,1.63-.58.45-.15.9-.36,1.36-.4,1.2-.11,2.52.34,3.45-.88.11-.15.47-.13.71-.14,1.24-.04,2.48.03,3.48-.99.25-.26.86-.19,1.31-.21,1.02-.05,2.02.12,2.88-.78.55-.57,1.22-.15,1.41.56.08.29-.15.88-.41,1.01-2.7,1.36-5.45,2.61-8.13,3.99-1.08.56-2.01,1.43-3.05,2.08-1.5.94-3.03,1.82-4.55,2.72-.11.06-.23.11-.32.19-2.02,1.61-4.11,3.14-6.03,4.85-2.81,2.51-5.56,5.11-8.22,7.79-1.11,1.12-1.85,2.6-2.88,3.81-.99,1.16-2.21,2.14-3.22,3.29-.81.92-1.44,1.99-2.18,2.99-.42.56-.91,1.08-1.31,1.65-.66.93-1.28,1.89-1.9,2.84-.09.14-.12.34-.24.43-2.18,1.76-2.83,4.43-4.06,6.76-.43.81-1.35,1.36-1.87,2.14-.51.75-.82,1.64-1.18,2.48-.18.41-.14.98-.43,1.25-1.9,1.81-2.44,4.4-3.8,6.52-.66,1.03-1.43,2.02-1.13,3.41.04.21-.55.56-.86.84-1.05.91-2.15,1.76-3.13,2.73-.48.47-.44,1.08.21,1.6.76.62.87,3.26.29,4.07-.97,1.35-1.89,2.68-2.01,4.47-.06.97-.6,1.92-.95,2.87-.58,1.58-1.24,3.13-1.77,4.73-.25.76-.33,1.59-.4,2.4-.07.73.14,1.49-.76,1.94-.21.11-.27.66-.28,1.02-.04.95.01,1.91-.03,2.87-.02.39-.19.79-.31,1.17-.22.68-.57,1.35-.65,2.04-.11.95-.37,1.41-1.47,1.3-1.1-.11-2.12.19-3.23.6-1.45.53-2.91,1.26-4.48,1.55-.6.11-1.17.44-1.75.68-.15.06-.28.26-.42.25-2.08-.11-3.51,1.35-5.24,2.1-1.36.59-2.88.78-4.29,1.27-1.32.46-2.63,1-3.87,1.65-.8.43-1.35,1.27-.91,2.21.45.96,1.43.72,2.21.49.67-.19,1.29-.57,1.9-.92,1.12-.64,2.19-1.35,3.59-1.2.26.03.56-.28.83-.44.31-.18.62-.51.93-.5,1.06,0,2.08.04,2.72-1.02,1.62.25,2.87-.82,4.31-1.21.67-.18,1.3-.64,1.97-.7,1.6-.16,2.97-.86,4.41-1.48.35-.15,1.34.23,1.37.47.12.81.02,1.68-.14,2.51-.13.69-.59,1.33-.65,2.01-.09.98.11,1.99-.82,2.73-.18.14-.21.54-.21.81-.03,3.32,0,6.64-.08,9.95-.01.58-.43,1.14-.64,1.72-.19.52-.48,1.05-.49,1.57-.04,3.95-.06,7.9-.01,11.84.01,1.16-.33,1.68-1.56,1.6-1.24-.08-2.49-.04-3.74.02-1.11.06-1.39.57-.91,1.58.53,1.13,1.31,1.8,2.7,1.79,3.5-.02,3.49.03,3.5,3.48,0,3.32-.03,6.65.04,9.97.01.58.47,1.14.68,1.72.19.52.44,1.07.45,1.6.05,3.28.04,6.55.06,9.83,0,.28,0,.67.18.83,1.56,1.4.56,3.2.81,4.81.03.2-.14.49-.31.63-.49.4-3.25.05-3.82-.34-.4-.28-.95-.56-1.39-.51-2.03.24-3.55-.9-5.19-1.73-.33-.16-.66-.48-.98-.46-1.01.05-1.87-.8-2.56-.83-2.66-.11-4.44-2.4-7.06-2.51-.91-.04-1.79-.79-2.68-1.23-2.8-1.37-5.66-2.62-8.36-4.15-1.81-1.02-3.4-2.42-5.09-3.64-.17-.12-.33-.37-.48-.36-1.44.08-2.06-1.09-2.89-1.91-1.72-1.68-3.34-3.48-5.13-5.09-1.6-1.44-2.46-3.28-3.28-5.16-.63-1.45-1.16-2.95-1.83-4.66.66-.12,1.19-.3,1.73-.3,7.69-.02,15.37-.01,23.06,0,1.27,0,2.57-.86,2.83-2.11.07-.34-.32-.98-.67-1.14-.45-.21-1.06-.11-1.59-.11-7.6,0-15.21,0-22.81,0-1.73,0-1.55-.05-1.79-1.74-.26-1.8.98-2.92,1.58-4.29.81-1.83,1.78-3.7,3.09-5.18,1.91-2.16,3.56-4.71,6.44-5.84.08-.03.16-.06.22-.11,1.26-1.19,2.52-2.38,3.8-3.59-.64-.61-1.19-1.13-1.78-1.69-4.8,2.83-8.03,7.46-12.17,11.08-.16.14-.31.28-.46.41-.03.02-.08.02-.45.12Zm47.48-67.77c-1.47-.91-2.98-1.01-3.75-.09-1.9,2.29-3.66,4.7-5.45,7.08-.4.52-.68,1.14-1.13,1.61-.24.25-.81.5-1.03.38-.32-.18-.63-.67-.66-1.05-.08-1.12-.02-2.24-.03-3.36,0-.85.15-1.76-.91-2.24-.22-.1-.29-.65-.31-1-.15-1.95-.74-2.41-2.69-1.98-.26.06-.48.36-.71.54.22.22.39.53.66.65.43.2.91.27,1.1.32-.29.96-.56,1.76-.77,2.58-.15.6,0,1.53-.34,1.78-1.3.9-1.02,2.16-1.08,3.37-.08,1.59-.49,2.06-2.02,2.52-.31.09-.54.41-.81.63.28.26.54.72.84.74,1.32.09,2.66.08,3.98.04.27,0,.67-.28.74-.51.06-.21-.23-.54-.39-.81-.21-.34-.69-.74-.62-.99.5-1.86-.24-4.13,2.03-5.7-1.12,3.12,1.12,5.33,1.37,8,2.14-3,3.99-6.05,6.69-8.53.2.49.25.9.14,1.28-.26.94-.75,1.83-.87,2.78-.2,1.58-.43,3-2.44,3.17-.21.02-.49.43-.53.69-.02.16.35.53.56.54,1.36.06,2.72.09,4.08.04.23,0,.55-.36.64-.61.05-.16-.22-.57-.43-.64-.92-.33-.88-.86-.6-1.66.21-.6.09-1.31.15-1.97.04-.41-.01-.97.22-1.19.94-.86.78-1.95.78-3.01,0-1.67.48-2.26,2.11-2.74.44-.13.84-.36,1.49-.65Zm2.56,17.65c-.31-1.17-.74-2.19-.81-3.23-.1-1.35.16-2.72.13-4.09-.01-.78-.29-1.56-.45-2.33-.69.46-1.38.92-2.05,1.39-.07.05-.07.22,0-.02,1.35,2.96,1.63,5.54-.31,8.28h3.49Z"/>
  <path class="cls-1" d="m115.29,175.71c-3.03,0-6.07-.03-9.1.02-1.07.02-1.48-.36-1.47-1.45.03-3.99,0-7.98,0-11.97,0-.36,0-.9.23-1.05,1-.72.81-1.74.81-2.72,0-2.87-.03-5.74.03-8.6.02-.7.41-1.39.56-2.09.18-.88.23-1.78.44-2.65.13-.54.5-1.02.69-1.56.19-.55.48-1.17.38-1.7-.27-1.44,0-2.53,1.39-3.23.67-.33.73-.76.23-1.39-.79-.99-.64-2.05-.12-3.15.29-.59.52-1.24.6-1.89.1-.78.01-1.58.04-2.37,0-.28.02-.75.17-.82,1.32-.6.87-1.7.83-2.68-.03-.86.03-1.68.89-2.17.07-.04.18-.11.18-.16-.11-1.5.75-2.71,1.19-4.05.22-.68.44-1.35.69-2.02.1-.27.33-.49.4-.76.36-1.29.61-2.61,1.07-3.86.16-.42.81-.93,1.23-.92.54,0,1.33.36,1.57.8,1.26,2.33,2.38,4.74,3.55,7.12.11.22.22.46.39.63,2.37,2.51,3.84,5.77,6.65,7.91.36.27.72.6.95.98.23.39.48.93.38,1.31-.07.27-.71.5-1.11.54-.91.08-1.84-.04-2.74.07-.58.07-1.31.26-1.64.67-.46.56-.6,1.38-.88,2.08.63.19,1.25.47,1.89.55.74.1,1.49.04,2.24.01.33,0,.78.04.96-.15,1.38-1.43,3.13-.69,4.72-.84.31-.03.69.22.98.41,1.04.71,2.01,1.56,3.11,2.16,2.19,1.19,4.45,2.25,6.68,3.36.3.15.62.39.91.37,3.11-.17,5.92,1.9,9.1,1.18.36-.08.75,0,1.12,0,.76-.03,1.01.38,1.01,1.09-.01,4.32.03,8.63-.04,12.95,0,.63-.5,1.24-.71,1.88-.19.57-.43,1.16-.44,1.74-.04,4.86-.03,9.72-.04,14.59,0,1.74-.03,1.77-1.72,1.77-3.49,0-6.98-.02-10.47.03-.81.01-2-.48-2.2.93-.14.99,1.31,2.38,2.44,2.4,2.08.04,4.16.01,6.23.02,1.41,0,2.83.02,4.24.04,1.04.02,1.52.44,1.5,1.61-.06,4.99-.03,9.97-.02,14.96,0,1.09.03,2.14.92,2.99.27.25.29.85.29,1.28-.03,2.99-.12,5.98-.15,8.97,0,1.12.11,2.24.18,3.36.01.2.02.45.13.6,1.62,2.13.69,4.55.74,6.84.03,1.32-1.2,2.11-2.61,2.11-2.28,0-4.56.01-6.83,0-.32,0-.74-.04-.93-.24-.98-1.05-2.23-.98-3.48-.97-1.04,0-2.08.07-3.11-.01-.53-.04-1.04-.35-1.57-.51-.61-.18-1.23-.4-1.86-.48-1.35-.16-2.85.44-3.94-.91-.14-.18-.63-.11-.95-.12-1.16,0-2.33.01-3.49,0-.33,0-.81.03-.95-.16-1.08-1.42-2.6-.97-4-1.03-1.19-.05-2.5.4-3.42-.87-.12-.17-.55-.14-.83-.15-1.27-.03-2.58.21-3.63-.85-.16-.17-.57-.19-.84-.14-1.59.26-2.9-.52-4.24-1.15-.22-.1-.54-.29-.55-.45-.12-1.64-1.67-2.18-2.46-3.3-.41-.58-.65-1.29-.93-1.95-.11-.26,0-.63-.16-.85-1.31-1.88-.77-4-.83-6.04-.04-1.7,0-3.41-.02-5.11,0-1.03-.03-1.98-.77-2.91-.44-.55-.37-1.58-.37-2.39,0-3.53.11-7.06.09-10.59,0-1.19.39-1.59,1.59-1.58,5.61.05,11.22,0,16.83.03,1,0,1.84-.22,2.35-1.08.29-.49.61-1.17.48-1.65-.09-.33-.93-.61-1.45-.62-3.07-.06-6.15-.03-9.22-.03h0Z"/>
  <path class="cls-1" d="m54.86,187.72c.1,1.98,1.7,2.85,2.84,4.04,1.73,1.8,3.42,3.65,5.32,5.26,1.6,1.35,3.41,2.48,5.21,3.56,2.74,1.63,5.55,3.13,8.34,4.67,1.56.86,3.13,1.69,4.7,2.53.14.08.31.19.46.17,1.76-.17,2.98,1.06,4.44,1.68.57.24,1.18.36,1.76.57.6.21,1.19.46,1.78.69.15.06.3.24.43.23,2.09-.15,3.47,1.62,5.25,2.01,1.71.38,3.5,1.21,5.06,1.16,2.87-.09,4.13,1.75,5.7,3.36.31.31.31.92.46,1.38.21.62.45,1.22.63,1.85.16.58.31,1.18.37,1.78.13,1.37-.31,2.84.87,4.01.21.2.21.73.15,1.08-.43,2.35.76,4.2,1.8,6.1.19.35.29.76.42,1.15.26.76.52,1.52.78,2.28.07.19.2.39.2.58-.03,1.88.95,3.34,1.96,4.79.12.17.26.37.26.55-.03,1.89,1.07,3.27,2.02,4.74.19.29.12.72.23,1.07.2.65.43,1.29.66,1.92.1.27.3.51.35.78.53,2.88,2.03,5.26,3.66,7.64,1.11,1.63,1.8,3.54,2.74,5.29.39.72.96,1.33,1.42,2.01.32.47.61.96.88,1.46,1.15,2.06,1.75,4.36,3.55,6.15,1.62,1.61,2.67,3.77,4.02,5.66.6.84,1.26,1.65,1.97,2.4,1.28,1.36,3.04,2.46,3.85,4.04,1.53,3.01,4.23,4.82,6.41,7.15,1.89,2.03,3.99,3.86,6.03,5.75.38.35.91.55,1.38.8.22.11.5.13.69.27,1.51,1.11,3.13,2.1,4.49,3.38,2,1.88,4.58,2.66,6.88,3.95,1.26.71,2.52,1.43,3.71,2.24.3.2.57.83.47,1.14-.09.28-.69.53-1.08.56-.88.06-1.81.21-2.5-.69-.2-.27-.83-.24-1.28-.28-1.47-.13-3.06.41-4.31-.97-.27-.3-1.11-.16-1.67-.1-.99.11-1.9.18-2.48-.9-.1-.2-.62-.37-.83-.28-.85.36-1.44,0-2.01-.55-.15-.14-.35-.32-.52-.32-2.15-.01-3.79-1.52-5.74-1.97-4.02-.94-7.69-2.62-11.35-4.42-2.38-1.17-4.92-2.03-7.31-3.2-1.54-.75-2.9-1.87-4.4-2.72-1.21-.69-2.52-1.21-3.78-1.81-.07-.04-.16-.05-.23-.1-1.5-1.13-2.99-2.27-4.5-3.38-.86-.64-1.8-1.18-2.62-1.87-1.33-1.11-2.58-2.32-3.9-3.45-.38-.33-.88-.52-1.33-.78-.38-.22-.82-.38-1.13-.67-.85-.79-1.51-1.89-2.49-2.42-2.28-1.24-3.82-3.49-6.29-4.44-.48-.18-.89-.61-1.27-.98-3.42-3.4-6.83-6.81-10.22-10.23-.31-.32-.54-.73-.78-1.1-.51-.78-.93-1.64-1.53-2.33-.8-.91-1.73-1.6-2.11-2.94-.26-.91-1.46-1.52-2.17-2.34-.7-.81-1.31-1.68-1.93-2.55-1.21-1.7-2.44-3.4-3.56-5.15-.68-1.06-1.18-2.23-1.75-3.36-.13-.26-.14-.6-.32-.8-2.9-3.1-3.99-7.22-6.05-10.78-.69-1.18-1.39-2.37-1.88-3.64-.93-2.36-1.69-4.79-2.57-7.18-.37-1.01-.93-1.95-1.3-2.96-.3-.83-.52-1.71-.64-2.59-.12-.86.23-1.79-.87-2.37-.27-.14-.27-.98-.23-1.49.06-.97.16-1.88-.68-2.64-.29-.26-.29-.83-.44-1.26-.25-.71-.53-1.41-.75-2.13-.14-.46-.21-.95-.26-1.44-.13-1.4.36-2.88-.88-4.11-.33-.33-.13-1.19-.16-1.81-.07-1.54.37-3.17-.88-4.51-.18-.2-.13-.64-.13-.97,0-1.91,0-3.82.02-5.74,0-.37.11-.74.17-1.1.11-.02.22-.05.33-.07Zm33.63,44.49c-1.3.93-1.32,2.2-1.3,3.53.04,2.24-.21,2.49-2.37,3.11-.32.09-.58.37-.87.57.29.24.57.65.88.68,1.32.11,2.65.14,3.98.12.26,0,.64-.29.73-.53.06-.19-.22-.53-.4-.76-.22-.28-.74-.54-.72-.78.1-1.43.28-2.85.52-4.26.12-.75.56-1.46.59-2.2.07-2.27.26-2.58,2.48-3.36.28-.1.46-.48.68-.73-.26-.17-.49-.44-.77-.49-1.56-.31-4.28,1.54-4.78,3.07-.21.65-.68,1.24-1.12,1.79-.64.8-1.38,1.52-2.02,2.32-.5.64-.87,1.38-1.38,2.01-.23.28-.68.39-1.02.57-.18-.39-.49-.78-.51-1.17-.06-1.41.01-2.82-.04-4.23-.02-.4-.19-1.04-.46-1.15-.83-.32-.66-.87-.65-1.51.01-.52-.11-1.39-.41-1.51-.97-.4-2.04-.42-3.01.06-.03.13-.07.26-.1.4.65.32,1.29.64,1.69.83-.22,1.42-.42,2.72-.62,4.02-.03.2-.02.48-.14.6-1.04.99-.84,2.27-.87,3.5-.03,1.22-.6,1.93-1.84,2.1-.49.07-.96.3-1.79.57.61.37.86.65,1.13.67,1.32.1,2.65.16,3.97.15.26,0,.51-.43.76-.67-.21-.22-.39-.5-.64-.65-.26-.16-.59-.19-.72-.23.19-1.4.23-2.69.56-3.9.32-1.19.92-2.31,1.39-3.46l.42.06c-.35,3.19.61,6.06,1.72,9.18.66-1.21.99-2.21,1.63-2.93,1.1-1.24,2.31-2.34,2.92-3.96.35-.93,1.11-1.62,2.5-1.42Zm6.22,3.29c-.95.47-2.12,1.26-1.71,1.99.99,1.73.53,3.47.62,5.2.03.54-.29,1.15-.58,1.65-.29.48-.46.92.21,1.01.9.12,1.83.03,2.92.03-2.33-3.17-.36-6.66-1.46-9.87Zm-.03-14.55c.14.25.28.58.52.82.08.08.54-.02.61-.16.49-.96.98-1.94,1.34-2.95.1-.29-.2-.74-.39-1.09-.02-.04-.61.07-.68.23-.48.99-.9,2.01-1.39,3.15Z"/>
  <path class="cls-1" d="m189.33,313.73c-1.36.06-2.41.42-3.25-.69-.23-.3-.9-.32-1.38-.37-1.08-.1-2.26.23-3.09-.87-.13-.17-.56-.08-.83-.17-.67-.21-1.34-.46-2.01-.7-.15-.06-.3-.24-.43-.22-1.46.23-2.58-.61-3.76-1.22-.43-.22-.85-.49-1.29-.7-.35-.17-.81-.5-1.07-.4-.95.38-1.41-.19-2.06-.68-1.15-.86-2.4-1.61-3.66-2.29-1.35-.73-2.81-1.26-4.14-2.02-1.1-.63-2.12-1.43-3.11-2.22-.72-.57-1.14-1.6-2.33-1.38-.07.01-.18-.05-.22-.11-.83-1.37-2.47-1.71-3.55-2.67-3.84-3.43-7.5-7.05-11.2-10.63-.37-.35-.56-.88-.84-1.33-.27-.45-.48-.97-.83-1.34-1.41-1.46-2.91-2.85-4.31-4.33-.58-.62-.95-1.44-1.48-2.12-.68-.88-1.45-1.68-2.12-2.56-.38-.5-.68-1.07-.99-1.63-.14-.25-.15-.61-.35-.78-2.07-1.89-2.69-4.61-4.05-6.91-.17-.28-.26-.65-.5-.85-1.89-1.66-2.36-4.14-3.6-6.17-.24-.39-.44-.79-.68-1.18-.77-1.26-1.73-2.45-2.29-3.8-.68-1.62-.98-3.39-1.54-5.06-.33-.97-.87-1.85-1.28-2.8-.27-.62-.43-1.28-.68-1.9-.44-1.1-.95-2.18-1.38-3.28-.32-.84-.56-1.71-.85-2.56-.13-.38-.3-.76-.48-1.12-.14-.29-.47-.56-.47-.84.02-1.86-1.13-3.21-1.87-4.76-.32-.67-.34-1.52-.38-2.29-.05-1.11-.04-2.14-.72-3.19-.44-.67-.17-1.77-.33-2.66-.15-.82-.56-1.59-.67-2.41-.17-1.17-.33-2.38-.19-3.53.1-.8.97-.58,1.4-.2.97.86,2.09.92,3.27.89.29,0,.68-.06.85.1,1.15,1.12,2.6.89,3.99.94.16,0,.41.03.46.14.82,1.46,2.16.81,3.33.86,1.39.06,2.93-.45,3.97,1.05.13.18.62.14.95.15,1.16.02,2.33-.05,3.49.04.57.05,1.11.39,1.66.58.42.15.83.35,1.26.38.87.06,1.74,0,2.62.01.29,0,.73-.05.84.1,1.1,1.59,2.72.75,4.11.9.82.09,1.66,0,2.49.01.29,0,.66-.05.85.1,2.67,2.05,5.73,1.03,8.58.93,2.18-.08,3.67.51,4.86,2.17.24.34.36.83.38,1.26.05,1.33-.07,2.67.05,3.99.08.85.48,1.68.72,2.52.11.39.24.79.25,1.19.03,1.12-.06,2.25.04,3.36.06.62.44,1.2.6,1.82.19.74.35,1.5.41,2.26.09,1.16-.29,2.42.97,3.27.22.15.21.69.22,1.05.03,1.08-.06,2.17.05,3.24.07.69.44,1.35.64,2.03.14.47.26.94.31,1.42.16,1.47-.47,3.09.93,4.31.18.16.1.63.11.96.05,1.05-.21,2.17.82,2.98.19.15.1.63.19.94.23.81.5,1.61.75,2.42.15.51.38,1.01.41,1.53.07,1.02-.03,2,.8,2.89.38.41.1,1.36.26,2.03.15.64.47,1.25.74,1.86.06.14.34.27.32.36-.42,1.6,1.07,2.66,1.16,4.11.02.29.04.59.14.85.92,2.21,1.92,4.38,2.77,6.61.89,2.33,1.64,4.71,2.45,7.06.12.35.17.8.42,1.02,2.01,1.81,2.42,4.5,3.76,6.67.28.45.54.95.93,1.3.66.59,1.37,1.09,1.32,2.11,0,.11.07.24.14.34,1.26,1.63,2.47,3.31,3.81,4.88,1.13,1.33,2.41,2.52,3.6,3.79.24.25.4.59.75,1.12Z"/>
  <path class="cls-1" d="m190.46,41.4c-2.93,1.19-4.46,3.79-6.58,5.71-.38.34-.54.92-.84,1.37-.41.6-.85,1.17-1.28,1.76-.05.06-.15.09-.19.16-.92,1.38-1.89,2.73-2.73,4.15-1.33,2.27-1.96,4.93-3.9,6.87-.19.19-.27.5-.37.77-.59,1.54-1.17,3.07-1.74,4.61-.14.38-.23.79-.38,1.17-.24.64-.49,1.27-.74,1.9-.09.23-.19.45-.28.68-.57,1.58-1.28,3.13-1.68,4.76-.45,1.83-1.8,3.34-1.74,5.33,0,.2-.04.51-.17.57-1.19.64-.75,1.77-.9,2.74-.1.68-.47,1.32-.74,1.97-.04.11-.19.18-.22.29-.41,1.66-.8,3.32-1.23,4.97-.19.73-.53,1.43-.68,2.17-.18.92-.17,1.87-.36,2.79-.11.55-.45,1.05-.67,1.57-.13.32-.33.65-.34.99-.04.91.02,1.83,0,2.74,0,.32,0,.79-.2.94-1.05.8-.84,1.9-.83,2.96,0,1.17-.15,2.2-.85,3.27-.47.71-.24,1.91-.23,2.89.02,1.24.61,2.57-.88,3.45-.21.13-.22.69-.23,1.05-.02,1.08.06,2.17-.03,3.24-.06.67-.36,1.32-.54,1.97-.15.55-.41,1.09-.43,1.65-.06,1.53-.02,3.07-.02,4.61,0,.89.22,1.84-.78,2.44-.17.1-.18.53-.21.81-.03.41-.07.84,0,1.24.39,2.65-.46,4.73-2.59,6.41-1.31,1.03-3.5,1.34-4.89.36-.26-.18-.61-.44-.87-.4-2.65.43-4.7-1.03-6.87-2.11-1.66-.82-3.28-1.72-4.91-2.58.02-.11.03-.23.05-.34.37-.05.74-.15,1.11-.15,1.03-.02,2.07.11,2.88-.81.21-.24.78-.2,1.18-.21,2.12-.04,4.23-.04,6.35-.07.24,0,.61,0,.7-.15.87-1.27,2.19-.9,3.39-1.02.46-.05,1.28-.54,1.25-.62-.24-.78-.56-1.56-1.01-2.25-.1-.15-.8.09-1.21.18-.47.1-.93.34-1.41.35-1.66.04-3.32,0-4.98,0-1.07,0-2.15-.14-3.03.78-.23.24-.78.23-1.18.24-1.12.03-2.24,0-3.36.03-.4.01-1,.04-1.15.28-.7,1.1-1.76.89-2.78.94-1,.05-1.69-.18-1.79-1.36-.03-.36-.36-.74-.64-1.02-1.05-1.06-2.22-2.02-3.2-3.14-1.5-1.74-2.92-3.55-4.25-5.41-.27-.38-.18-1.23.06-1.71.8-1.63,1.75-3.19,2.61-4.8.18-.35.25-.79.26-1.19.03-1.11-.19-2.25.92-3.05.18-.13.21-.53.21-.81-.03-3.07.05-6.15-.17-9.21-.08-1.14-.87-2.23-1.32-3.35-.24-.59-.45-1.2-.67-1.8-.03-.08.01-.19-.03-.24-1.34-1.7-.08-2.86.75-4.23,1-1.66,1.75-3.48,2.61-5.22.02-.04.03-.08.05-.11,1.15-1.52,2.3-3.04,3.44-4.57.59-.79,1.15-1.6,1.73-2.4.48-.67.9-1.41,1.47-1.99,1.43-1.44,2.93-2.81,4.4-4.22.2-.19.51-.46.49-.67-.07-1.4,1.02-2.03,1.83-2.81,2.84-2.73,5.7-5.45,8.61-8.11.62-.57,1.49-.84,2.17-1.35.82-.62,1.51-1.42,2.35-2,1.67-1.14,3.4-2.18,5.11-3.26.14-.09.33-.13.43-.24,1.76-2.11,4.42-2.73,6.69-3.97,1.6-.87,3.32-1.53,4.94-2.37,1.03-.53,1.96-1.25,2.95-1.85.2-.12.47-.16.71-.16.98,0,1.97.18,2.7-.82.17-.23.79-.08,1.18-.2.52-.15,1.01-.4,1.51-.59.41-.15.83-.38,1.25-.4.95-.06,1.91.03,2.86-.05.4-.03.87-.25,1.15-.53.72-.75,1.79-.9,2.95-.19Zm-55.43,67.57c.04-.1.07-.21.11-.31.16.12.31.28.49.34.58.2,1.49.68,1.69.48.71-.73,2.1-1.18,1.6-2.63-.09-.28-.32-.59-.57-.72-1.62-.8-1.86-1.59-1.04-3.2.31-.61.52-1.31.57-1.98.03-.38-.36-.8-.56-1.2-.25.4-.61.78-.72,1.22-.48,1.94-.89,3.9-1.33,5.85-.04.2-.17.38-.28.55-.44.69-2.81,1.3-3.08.69-.32-.71-.43-1.94-.02-2.48,1.25-1.65.69-3.43.74-5.16,0-.23-.45-.65-.69-.65-.25,0-.54.38-.74.65-.1.14-.04.4-.07.61-.16,1.54.53,3.24-.89,4.56-.16.15-.09.56-.1.85-.02.75,0,1.49-.03,2.24-.04,1.24.34,2.58-.98,3.52-.16.11.17.9.27,1.38.36-.22.86-.35,1.04-.66.41-.71.75-1.49.94-2.28.2-.87.68-1.1,1.49-1.16.73-.06,1.45-.32,2.17-.5Zm6.52,5.58c2.07.61,3.84.57,5.57.23.91-.18.97-1.07.65-1.82-.06-.15-.72-.1-1.08-.04-.68.11-1.35.29-2.02.45.38-.53.72-1.09,1.15-1.57.63-.7,1.59-1.22,1.93-2.02.71-1.68-.14-3.7-1.69-4.71-1.16-.76-3.43-.06-3.95,1.26-.11.29.06.68.1,1.03.33-.05.67-.04.97-.15.22-.08.36-.34.57-.47.91-.55,2.42-.22,2.49.57.15,1.66-.03,3.18-1.57,4.31-1.08.79-1.97,1.83-3.15,2.94Zm11.74.19c.08-.08.17-.16.25-.25-1.52-1.12-1.15-2.68-1.16-4.14-.01-1.45.05-2.9-.04-4.35-.02-.37-.49-.7-.75-1.05-.51.48-1.12.9-1.47,1.47-.14.22.31.79.49,1.21.14.33.42.69.39,1-.2,1.99.91,4.24-1.11,6.1h3.4Z"/>
  <path class="cls-1" d="m122.02,116.76c-.82-2.05-1.74-4.06-2.41-6.16-.2-.61.11-1.59.53-2.15.71-.94.66-1.65-.14-2.38-.83-.76-.98-1.34-.63-2.64.56-2.08,1.5-3.92,2.47-5.76.62-1.18,1.55-2.18,2.35-3.27.13.04.26.08.39.13.09.41.14.84.27,1.24.22.72.5,1.41.73,2.13.11.35.26.71.26,1.06.01,2.95.02,5.89-.03,8.84,0,.46-.3.91-.45,1.37-.19.58-.59,1.2-.51,1.75.34,2.47-1.51,3.93-2.26,5.88-.19-.01-.38-.02-.58-.03Z"/>
  <path class="cls-1" d="m174.09,312.3c-.54.38-3.03.61-3.37.14-.22-.3-.21-1.18-.05-1.25.43-.2,1.06-.27,1.49-.1.67.26,1.25.77,1.92,1.21Z"/>
  <path class="cls-1" d="m358.71,185.18c.25-1.15.56-2.03.61-2.93.1-1.91.1-1.83,1.97-1.99,1.92-.16,3.14,1.55,2.94,3.02-.08.58-.45,1.34-.91,1.59-1.52.82-3.15.67-4.6.3Z"/>
  <path class="cls-1" d="m362.26,178.72c-.29,0-.59.06-.86-.01-.33-.09-.8-.22-.89-.46-.1-.26.11-.68.26-1.01.24-.54.5-1.09.82-1.58.2-.31.51-.59.83-.77.23-.12.58-.11.85-.05.75.16,1.87-.51,2.13.8.28,1.39-.6,2.73-1.91,3.02-.4.09-.82.07-1.23.09,0-.01,0-.02,0-.03Z"/>
  <path class="cls-1" d="m202.33,17.39c-.15,2.55-1.75,3.7-4.16,2.91-.24-.08-.49-.32-.59-.54-.29-.62.62-3.98,1.21-4.11.98-.22,2.05-.3,3.02-.12.28.05.35,1.21.52,1.87Z"/>
  <path class="cls-1" d="m32.92,179.96c.86-1.85,1.57-3.38,2.29-4.92.19.03.37.05.56.08,0,1.33.07,2.67-.05,3.99-.03.31-.69.67-1.12.82-.4.14-.88.03-1.67.03Z"/>
  <path class="cls-1" d="m201.14,333.25c-.58-.23-1.54-.33-1.66-.7-.2-.66.05-1.49.23-2.22.13-.51.37-1.03.7-1.44.32-.39.79-.86,1.23-.9,2.09-.22,2.65.12,2.73,1.33.17,2.41-.7,3.98-3.24,3.94Z"/>
  <path d="m199.06,127.8c-2.39,1.6-4.68.98-6.93.96-6.48-.05-12.96-.04-19.44,0-.46,0-1.06.32-1.36.68-.61.73-1.13.72-1.76.11-.5-.48-1.01-.93-1.56-1.45,1.07-1.07,2.05-1.67,3.5-1.57,1.65.11,3.32-.07,4.97-.14.28-.01.69,0,.83-.17.96-1.16,2.26-.86,3.47-.86,4.82-.02,9.64.03,14.46-.03,1.46-.02,2.69.25,3.64,1.44.57.71,1.13.79,1.27-.33.1-.86.63-1.08,1.38-1.08,6.94,0,13.88,0,20.81,0,.32,0,.74.04.94.23,1.16,1.14,2.57.92,3.97.86.7-.03,1.44-.09,2.1.1.38.11.95.73.89,1-.1.44-.59.86-1.02,1.12-.27.17-.73.05-1.1.05-7.31,0-14.62,0-21.93,0-.66,0-1.33.02-1.99.06-1.67.09-1.67.1-1.68,1.85,0,7.85-.02,15.7-.03,23.56,0,.5.08,1.08-.14,1.47-.36.64-.84,1.35-1.45,1.67-.57.29-1.75-.96-1.88-1.82-.05-.33-.06-.66-.06-.99,0-8.06-.02-16.12-.01-24.18,0-.72.06-1.45.11-2.53Z"/>
  <path d="m202.48,190.18c0,3.12,0,6.23,0,9.35,0,.45.05,1-.17,1.33-.36.55-1.12,1.44-1.37,1.34-.72-.28-1.36-.93-1.86-1.57-.23-.29-.1-.88-.1-1.34-.01-6.07-.02-12.13-.03-18.2,0-1.81-.12-1.98-1.99-2-3.03-.04-6.07,0-9.1-.05-.54,0-1.25-.14-1.57-.5-.35-.4-.65-1.3-.43-1.65.34-.54,1.12-1.08,1.74-1.12,1.98-.15,3.99-.09,5.98-.06,1.15.02,2.2,0,2.92-1.17.27-.44.96-.6,1.44-.92.71-.47,1.53-.87,2.08-1.49.55-.62.9-.58,1.4-.07.96.98,1.88,2.01,2.91,2.9.46.39,1.15.69,1.74.71,2.41.08,4.82.02,7.23.03,1.52,0,2.7.75,2.7,1.67,0,.94-1.16,1.69-2.65,1.69-3.12,0-6.23.05-9.35-.02-1.16-.02-1.51.4-1.5,1.52.06,3.2.02,6.4.02,9.6h-.04Z"/>
  <path d="m202.5,96.96c0,4.15.02,8.31-.02,12.46,0,.64-.1,1.37-.41,1.9-.27.46-1.05,1.09-1.34.97-.61-.24-1.21-.84-1.52-1.44-.28-.55-.24-1.3-.24-1.96-.02-8.18-.02-16.37,0-24.55,0-.54.13-1.24.47-1.59.44-.44,1.31-.97,1.74-.8.81.32,1.37,1.09,1.36,2.17-.04,4.28-.02,8.56-.02,12.84,0,0-.01,0-.02,0Z"/>
  <path d="m245.53,179.07c-4.15,0-8.31,0-12.46,0-.37,0-.86.12-1.1-.06-.54-.42-1.21-.94-1.36-1.54-.1-.41.5-1.12.96-1.49.34-.27.95-.26,1.44-.26,8.39-.01,16.78-.01,25.17,0,.33,0,.68,0,.99.08.85.22,1.68.63,1.58,1.63-.09.93-.75,1.56-1.76,1.63-.41.03-.83.02-1.25.02-4.07,0-8.14,0-12.21,0h0Z"/>
  <path d="m290.3,179.08c-4.15,0-8.3,0-12.45,0-.25,0-.5,0-.75,0-.91-.07-2.2-1.18-1.88-1.75.37-.66,1.13-1.28,1.86-1.53.78-.26,1.72-.07,2.59-.07,7.59,0,15.18,0,22.78,0,.37,0,.83-.11,1.1.06.72.46,1.51.95,1.97,1.63.27.4-1.34,1.65-2.16,1.65-2.07.02-4.15,0-6.22.01-2.28,0-4.56,0-6.85,0Z"/>
  <path d="m267.79,134.07c-1.05.04-2.18.39-2.92-.77-.11-.18-.62-.13-.95-.13-1.24-.01-2.49.05-3.73-.03-.48-.03-.94-.37-1.41-.55-.4-.16-.81-.42-1.22-.43-2.11-.08-4.22-.08-6.33-.12-.2,0-.53.01-.59-.09-.83-1.6-2.32-1.01-3.54-.97-1.23.04-2.07-.46-2.78-1.31-.17-.21-.18-.8-.01-.99,1.24-1.38,2.72-1.45,4.21-.35.3.22.77.26,1.17.26,1.91.02,3.82-.05,5.73,0,.53.02,1.04.35,1.57.54.45.16.9.41,1.37.44,1.07.07,2.16.04,3.24.02.76-.01,1.47-.05,1.9.82.13.25.71.36,1.09.38.95.05,1.91.01,2.86.02.94,0,1.78.01,2.65.71.55.45,1.66.32,2.51.26,1.42-.1,1.41.81,1.43,1.76.02.95-.09,1.77-1.39,1.66-.88-.08-1.69.05-2.47-.76-.44-.46-1.56-.27-2.37-.37Z"/>
  <path d="m316.65,146.38c-.3.54-.48,1.27-.94,1.58-.73.49-1.29-.08-1.73-.7-.12-.17-.46-.37-.62-.31-1.21.41-1.97-.48-2.94-.87-2.29-.92-4.83-1.33-6.96-2.51-1.51-.84-3.48-.25-4.64-1.79-.04-.05-.15-.06-.23-.08-1.61-.41-3.31-.62-4.8-1.29-1.5-.68-2.98-.96-4.59-1.11-.59-.06-1.42-.9-1.52-1.5-.08-.44.75-1.3,1.34-1.54.89-.35,1.85-.32,2.81.36.62.44,1.63.3,2.45.51.63.17,1.23.47,1.83.73.1.04.19.26.26.25,1.65-.32,2.83.99,4.32,1.22.58.09,1.14.36,1.7.57.23.09.42.26.65.35,1.65.63,3.3,1.25,4.95,1.86,1.37.5,2.76.97,4.14,1.47.3.11.73.17.87.39.5.83,1.25.83,2.06.82,1.39-.01,1.44.05,1.61,1.6Z"/>
  <path d="m171.73,151.34c-.08-.07-.18-.12-.19-.19-.44-1.86-.85-3.72-1.32-5.58-.09-.34-.43-.89-.59-.86-.39.05-1.02.33-1.07.61-.22,1.3-.33,2.62-.37,3.94,0,.26.43.57.71.79.71.54.6,1.12-.18,1.2-1.43.15-2.89.07-4.34,0-.22,0-.43-.42-.64-.64.23-.21.43-.49.7-.6,2.31-.93,2.58-1.3,2.56-3.76,0-.69-.01-1.26.68-1.84.46-.38.33-1.45.49-2.21.16-.74.36-1.48.57-2.33-.45-.22-1.17-.57-1.89-.92.05-.18.1-.36.15-.55.99,0,1.99-.07,2.97.05.22.03.51.71.5,1.08-.02.83,0,1.52.75,2.09.28.21.34.81.36,1.23.05,1.33-.01,2.66.05,3.98.02.35.25.87.53.99.29.12.85-.03,1.11-.27.45-.41.75-.97,1.12-1.47.7-.96,1.43-1.9,2.11-2.88.47-.69,1-1.38,1.27-2.14.82-2.32,3.75-3.62,5.8-2.26-.49.27-.88.52-1.3.69-1.81.7-2.18,1.21-2.18,3.14,0,.99.09,1.98-.8,2.75-.22.19-.19.7-.21,1.06-.04.54.03,1.08-.04,1.62-.06.48-.24.95-.36,1.39.07.11.11.19.17.24.4.37.8.73,1.2,1.09-.54.2-1.07.52-1.63.57-.95.08-1.91.05-2.86-.05-.32-.03-.6-.43-.89-.66.28-.2.54-.53.84-.57,1.32-.19,1.79-1.11,1.97-2.23.12-.77.06-1.57.17-2.35.05-.36.34-.68.51-1.02.21-.4.4-.81.43-1.32-1.98.68-2.7,2.39-3.67,3.93-.93,1.48-2.08,2.82-3.17,4.27Z"/>
  <path d="m205.38,189.94c-.22-1.18.56-2.09,1.26-3.21.89-1.44,2.22-2.21,3.27-3.32,1.6-1.68,3.29-1.55,5.08-1.33,2.54.31,4.29,3.93,3.15,6.22-.5,1-1.06,1.97-1.48,3.01-1.03,2.52-2.98,3.71-5.58,4.03-3.58.44-5.71-1.49-5.69-5.4Zm5.18,3.88c1.76.44,2.69-.84,3.79-1.76,2-1.66,3.08-3.76,2.75-6.37-.08-.67-.63-1.62-1.18-1.82-1.56-.55-3.38-.82-4.78.18-1.41,1.01-3.21,1.86-3.45,3.97-.02.17-.24.33-.37.49-1.1,1.37-.77,3.99.74,4.79.72.39,1.67.36,2.51.51Z"/>
  <path d="m188.42,153.87c.06.45.11.73.12,1.01.06,1.64-.04,1.74-1.73,1.75-1.24,0-2.47,0-4.07,0,.41-.58.59-.91.84-1.16.88-.88,1.75-1.77,2.69-2.59,1.37-1.19.99-2.73.85-4.18-.07-.72-1.75-.82-2.61-.23-.41.28-.74,1.21-1.33.41-.16-.21.32-1.09.71-1.46.83-.78,1.91-1.16,2.98-.59,1.02.55,1.6,1.47,1.69,2.72.11,1.53-.38,2.74-1.47,3.8-.34.33-.75,1.18-.62,1.32.67.71,1.03-.13,1.48-.47.1-.07.2-.14.46-.33Z"/>
  <path d="m202.52,276.42c0,4.32.02,8.64-.01,12.96,0,.89.35,2.06-1.06,2.28-.79.12-2.36-1.4-2.49-2.32-.03-.2-.02-.41-.02-.62,0-8.1.03-16.2,0-24.31,0-1.33.51-2.22,1.65-2.81,1.25-.65,1.9-.32,1.92,1.1.04,3.2.02,6.4.02,9.6,0,1.37,0,2.74,0,4.11Z"/>
  <path d="m186.84,248.73c-.41.81-.72,1.69-1.25,2.41-.52.7-.69,1.19.26,1.48,1.03.32.77,1.13.64,1.73-.07.33-.7.73-1.1.76-1.19.09-2.39.04-3.58-.01-.29-.01-.71-.2-.8-.42-.08-.2.15-.61.36-.81,1.01-.98,2.07-1.91,3.09-2.88.68-.65,1.06-3.02.66-3.85-.29-.6-1.81-.71-2.74-.25-.42.21-.9.29-1.35.44.29-.45.51-.97.89-1.33.87-.83,1.97-.99,2.99-.46,1.17.61,1.9,1.61,1.63,3.08.11.04.21.09.32.13Z"/>
  <path d="m184.69,227.3c.65-.06,1.01.69.69,1.4-.35.79-.71,1.58-1.12,2.34-.11.2-.43.29-.66.43-.23-.4-.74-.91-.64-1.19.37-.99.95-1.9,1.46-2.84.05-.09.21-.11.27-.14Z"/>
  <path d="m101.84,97.12c-.65.29-1.06.53-1.49.65-1.63.47-2.1,1.07-2.11,2.74,0,1.07.16,2.15-.78,3.01-.24.22-.19.78-.22,1.19-.06.66.06,1.37-.15,1.97-.27.8-.31,1.33.6,1.66.21.07.48.48.43.64-.09.26-.41.6-.64.61-1.36.04-2.72.02-4.08-.04-.21,0-.58-.38-.56-.54.04-.26.32-.67.53-.69,2.01-.17,2.23-1.58,2.44-3.17.12-.95.61-1.85.87-2.78.11-.37.06-.79-.14-1.28-2.7,2.48-4.54,5.53-6.69,8.53-.25-2.68-2.49-4.89-1.37-8-2.27,1.57-1.52,3.84-2.03,5.7-.07.25.41.65.62.99.16.26.46.59.39.81-.07.23-.48.5-.74.51-1.33.04-2.66.05-3.98-.04-.3-.02-.56-.48-.84-.74.27-.21.51-.53.81-.63,1.53-.46,1.94-.93,2.02-2.52.06-1.21-.22-2.47,1.08-3.37.35-.24.19-1.18.34-1.78.2-.82.48-1.62.77-2.58-.19-.05-.67-.13-1.1-.32-.26-.12-.44-.43-.66-.65.24-.19.45-.49.71-.54,1.95-.44,2.54.03,2.69,1.98.03.35.1.91.31,1,1.06.48.9,1.39.91,2.24.01,1.12-.05,2.25.03,3.36.03.38.34.88.66,1.05.22.12.8-.13,1.03-.38.44-.47.73-1.09,1.13-1.61,1.8-2.37,3.55-4.79,5.45-7.08.77-.92,2.28-.83,3.75.09Z"/>
  <path d="m104.4,114.77h-3.49c1.95-2.74,1.67-5.32.31-8.28-.06.25-.07.07,0,.02.68-.48,1.37-.93,2.05-1.39.16.78.43,1.55.45,2.33.03,1.36-.23,2.73-.13,4.09.07,1.04.5,2.06.81,3.23Z"/>
  <path d="m88.49,232.21c-1.39-.2-2.15.49-2.5,1.42-.62,1.62-1.83,2.72-2.92,3.96-.64.72-.97,1.72-1.63,2.93-1.11-3.11-2.07-5.99-1.72-9.18l-.42-.06c-.48,1.15-1.08,2.27-1.39,3.46-.32,1.21-.37,2.5-.56,3.9.14.04.47.07.72.23.25.15.43.43.64.65-.25.23-.5.67-.76.67-1.32.02-2.65-.05-3.97-.15-.27-.02-.52-.29-1.13-.67.84-.27,1.3-.5,1.79-.57,1.24-.18,1.81-.89,1.84-2.1.03-1.23-.17-2.51.87-3.5.12-.12.11-.39.14-.6.2-1.3.4-2.6.62-4.02-.39-.19-1.04-.51-1.69-.83.03-.13.07-.26.1-.4.97-.48,2.04-.47,3.01-.06.3.13.42.99.41,1.51-.02.64-.19,1.19.65,1.51.27.1.45.74.46,1.15.05,1.41-.02,2.82.04,4.23.02.4.33.78.51,1.17.35-.19.79-.29,1.02-.57.51-.62.88-1.37,1.38-2.01.64-.8,1.38-1.52,2.02-2.32.44-.55.91-1.14,1.12-1.79.5-1.54,3.22-3.38,4.78-3.07.28.06.52.32.77.49-.22.25-.4.63-.68.73-2.22.78-2.41,1.09-2.48,3.36-.02.74-.46,1.45-.59,2.2-.23,1.41-.41,2.84-.52,4.26-.02.24.5.49.72.78.18.23.46.57.4.76-.08.24-.47.53-.73.53-1.33.02-2.66-.01-3.98-.12-.31-.03-.59-.44-.88-.68.29-.19.55-.48.87-.57,2.16-.62,2.41-.87,2.37-3.11-.03-1.34,0-2.6,1.3-3.53Z"/>
  <path d="m94.71,235.51c1.1,3.21-.86,6.7,1.46,9.87-1.09,0-2.02.09-2.92-.03-.67-.09-.5-.52-.21-1.01.3-.5.61-1.11.58-1.65-.09-1.73.37-3.47-.62-5.2-.42-.73.75-1.52,1.71-1.99Z"/>
  <path d="m94.68,220.95c.49-1.14.91-2.16,1.39-3.15.08-.16.66-.27.68-.23.19.34.49.8.39,1.09-.36,1.02-.85,1.99-1.34,2.95-.07.13-.53.24-.61.16-.24-.24-.37-.57-.52-.82Z"/>
  <path d="m135.03,108.97c-.72.17-1.44.44-2.17.5-.81.06-1.28.3-1.49,1.16-.19.79-.53,1.57-.94,2.28-.18.32-.69.45-1.04.66-.1-.48-.43-1.27-.27-1.38,1.32-.94.94-2.28.98-3.52.03-.75.01-1.49.03-2.24,0-.29-.06-.7.1-.85,1.42-1.31.73-3.01.89-4.56.02-.21-.04-.47.07-.61.2-.27.48-.64.74-.65.24,0,.7.42.69.65-.05,1.73.51,3.51-.74,5.16-.41.54-.3,1.77.02,2.48.28.6,2.64,0,3.08-.69.11-.17.23-.36.28-.55.45-1.95.85-3.91,1.33-5.85.11-.44.48-.82.72-1.22.2.4.59.82.56,1.2-.05.67-.26,1.37-.57,1.98-.82,1.61-.58,2.39,1.04,3.2.25.12.48.44.57.72.5,1.46-.89,1.9-1.6,2.63-.2.2-1.11-.28-1.69-.48-.18-.06-.33-.22-.49-.34-.04.1-.07.21-.11.31Z"/>
  <path d="m141.54,114.55c1.18-1.11,2.07-2.15,3.15-2.94,1.54-1.13,1.71-2.65,1.57-4.31-.07-.79-1.58-1.12-2.49-.57-.21.13-.36.39-.57.47-.3.11-.64.11-.97.15-.04-.34-.21-.74-.1-1.03.51-1.32,2.78-2.02,3.95-1.26,1.54,1,2.4,3.03,1.69,4.71-.34.8-1.31,1.33-1.93,2.02-.43.48-.77,1.04-1.15,1.57.67-.15,1.34-.34,2.02-.45.36-.06,1.02-.1,1.08.04.32.75.26,1.65-.65,1.82-1.73.33-3.5.37-5.57-.23Z"/>
  <path d="m153.28,114.73h-3.4c2.01-1.86.9-4.11,1.11-6.1.03-.32-.25-.67-.39-1-.18-.41-.62-.99-.49-1.21.36-.57.96-.99,1.47-1.47.26.35.73.69.75,1.05.09,1.44.02,2.9.04,4.35.01,1.46-.36,3.02,1.16,4.14-.08.08-.17.16-.25.25Z"/>
  <path class="cls-1" d="m210.56,193.82c-.84-.16-1.79-.13-2.51-.51-1.51-.81-1.83-3.42-.74-4.79.13-.16.35-.31.37-.49.24-2.11,2.04-2.97,3.45-3.97,1.41-1,3.22-.73,4.78-.18.56.2,1.1,1.15,1.18,1.82.33,2.61-.75,4.71-2.75,6.37-1.1.91-2.03,2.2-3.79,1.76Z"/>
</svg>