<?xml version="1.0" encoding="utf-8"?>
<!-- Generator: Adobe Illustrator 27.3.1, SVG Export Plug-In . SVG Version: 6.00 Build 0)  -->
<svg version="1.1" id="Layer_1" xmlns="http://www.w3.org/2000/svg" xmlns:xlink="http://www.w3.org/1999/xlink" x="0px" y="0px"
	 viewBox="0 0 332.9 220.1" style="enable-background:new 0 0 332.9 220.1;" xml:space="preserve">
<style type="text/css">
	.st0{fill:none;stroke:#000000;stroke-width:2;stroke-miterlimit:10;}
	.st1{fill:none;stroke:#000000;stroke-miterlimit:10;stroke-dasharray:4;}
	.st2{fill:none;stroke:#000000;stroke-miterlimit:10;}
	.st3{fill:#FFFFFF;stroke:#000000;stroke-miterlimit:10;}
	.st4{fill:none;stroke:#000000;stroke-width:0.5;stroke-miterlimit:10;}
	.st5{fill:none;stroke:#000000;stroke-miterlimit:10;stroke-dasharray:4.115,4.115;}
	.st6{fill:none;}
	.st7{fill:#2A3FAA;}
	.st8{font-family:'Arial-BoldMT';}
	.st9{font-size:8px;}
	.st10{fill:#E90000;}
	.st11{fill:#005516;}
	.st12{fill:#7F0071;}
	.st13{font-family:'ArialMT';}
</style>
<path class="st0" d="M255.6,111.1c0-48.8-38.4-88.3-85.7-88.3c-31,0-59.1,18.8-73.7,43.2c-3,5-13,22.2-12,45.2
	c1.5,38.3,33.3,88.3,85.7,88.3C217.2,199.5,255.6,159.9,255.6,111.1z"/>
<path class="st1" d="M95.9,66.4c0.9-6.7,39.1-17.1,73.1-17.2c35.3-0.1,78.6,10.5,74.5,19.1"/>
<path class="st2" d="M95.8,67.5c-6,9.7,32.7,30.5,74.3,30.5c41,0,78.8-24.2,73.5-30.5"/>
<circle class="st3" cx="168.4" cy="35.1" r="1.6"/>
<line class="st4" x1="182.6" y1="121.8" x2="178.1" y2="123.6"/>
<circle class="st2" cx="169.7" cy="112.5" r="1.6"/>
<circle class="st2" cx="171.5" cy="188.4" r="1.6"/>
<g>
	<g>
		<line class="st2" x1="168.4" y1="36.3" x2="168.4" y2="38.3"/>
		<line class="st5" x1="168.5" y1="42.4" x2="169.6" y2="106.2"/>
		<line class="st2" x1="169.6" y1="108.3" x2="169.7" y2="110.3"/>
	</g>
</g>
<line class="st1" x1="169.7" y1="113.8" x2="171.4" y2="187.2"/>
<path class="st2" d="M286.5,98.2L29.7,99.7l26.6-50.4c55.4,0,110.8,0,166.2,0c29.5,0,59,0,88.5,0C302.8,65.6,294.7,81.9,286.5,98.2z
	"/>
<path class="st2" d="M219.5,40.3c-6-3.1-27.8-13.6-48-6.4c-9.9,3.5-16.3,9.8-22,15.3c-10.1,9.8-15.2,19.4-22.3,33
	c-3.2,6.2-7.8,14.9-11.8,27.2c-2,6.1-4.9,15.2-6.1,27.5c-1,9.9-1.7,17.2,1.2,26.3c1,3.2,3.5,10.6,10.2,17.4c8.3,8.5,18,12,22.1,12.8
	"/>
<path class="st1" d="M139.3,193.1c5.6,0.9,18.2,1.6,28.8-3c5.2-2.2,9.6-5.3,16.3-12c15.6-15.5,24.5-31.1,27.7-37.1
	c11.1-20.5,15-37.3,15.9-41.8c2.6-12.1,4.4-20.5,2.1-31.4c-2.9-13.6-6.3-22.8-10.9-27.6"/>
<path class="st2" d="M198.8,192.9c2.1-0.7,8.5-3.4,12.2-10.2c1.7-3.2,2.2-6,2.4-7.6c1.8-16.6-1.1-33.2-1.1-33.2
	c-2.9-14.6-4.3-21.9-7.9-34.4c0,0-7.4-25.5-22.7-56c-2.5-5-5.4-10.6-11.5-15.1c-9.7-7.3-21.2-7.4-23.6-7.4c-3.4,0-6.3,0.5-8.3,0.9"
	/>
<path class="st1" d="M198.6,193c-4.6,1.2-15.1,3.3-24.4-2.2c-1.7-1-4.4-2.9-9.6-9.6c-7.1-9.1-11.7-18.1-15.7-27
	c-4.6-10.4-7.1-18.3-10.8-29.6c-3.8-11.9-6-18.7-8.1-28.8c-2.2-10.4-2.8-18-4-33.2c-0.8-10.2-0.8-14.7,1.6-19.7
	c3.1-6.4,9.8-12,13.4-14"/>
<path class="st1" d="M84.8,112.7c0.2-2.7,0.9-7.6,4.3-12.2c1.2-1.7,3.3-4,8.9-7.2c3.6-2.1,9.9-5.2,25.7-8.9c4.7-1.1,8.8-2.1,14.4-3
	c12.3-2,21.6-1.9,34.2-1.8c11.9,0.1,18.8,0.1,28.7,1.4c3.6,0.4,14.2,1.9,27.5,6c15.3,4.7,20,8.5,23,12.8c2.1,3.1,3.2,6.1,3.7,8.2"/>
<path class="st2" d="M254.8,116.7c-1.2,2.9-3.3,7.2-7.4,11c-4.2,3.9-8.6,5.7-14.4,7.6c-16,5.2-25.7,6.4-25.7,6.4
	c-5.4,0.7-27.7,3.3-69,0c-15.5-1.2-23.3-2.5-32.6-6.4c-9-3.9-15.7-8.8-20-12.4"/>
<line class="st1" x1="84.1" y1="112.7" x2="254" y2="111.1"/>
<line class="st1" x1="168.4" y1="69.2" x2="244.2" y2="68.3"/>
<line class="st1" x1="171.3" y1="113.3" x2="212.1" y2="140.9"/>
<line class="st1" x1="168.1" y1="113.8" x2="109.3" y2="137"/>
<path class="st2" d="M155.6,119.6c2.7,5.5,8.1,9,14,9.2c7.9,0.2,12.6-5.9,13.1-6.5"/>
<line class="st4" x1="182.6" y1="121.8" x2="178.1" y2="123.6"/>
<line class="st4" x1="183.3" y1="121.9" x2="182.3" y2="126.6"/>
<rect x="178.4" y="17" class="st6" width="4.8" height="0.2"/>
<rect x="165.4" y="25.2" class="st6" width="28" height="19.7"/>
<text transform="matrix(1 0 0 1 165.4014 30.9402)" class="st7 st8 st9">M</text>
<rect x="155.7" y="183.6" class="st6" width="28" height="19.7"/>
<text transform="matrix(1 0 0 1 155.6758 189.3518)" class="st7 st8 st9">M1</text>
<rect x="289.2" y="54.7" class="st6" width="28" height="19.7"/>
<text transform="matrix(1 0 0 1 289.2234 60.4539)" class="st8 st9">K</text>
<path class="st6" d="M175.3,84.5h-13.8c-3.9,0-7.1-3.2-7.1-7.1v-5.6c0-3.9,3.2-7.1,7.1-7.1h13.8c3.9,0,7.1,3.2,7.1,7.1v5.6
	C182.3,81.3,179.2,84.5,175.3,84.5z"/>
<text transform="matrix(1 0 0 1 158.6641 70.4782)" class="st8 st9">O1</text>
<rect x="173.6" y="103.7" class="st6" width="28" height="19.7"/>
<text transform="matrix(1 0 0 1 173.6171 109.4523)" class="st8 st9">O</text>
<rect x="197.9" y="61.7" class="st6" width="28" height="19.7"/>
<text transform="matrix(1 0 0 1 197.9005 67.3827)" class="st10 st8 st9">r</text>
<rect x="212.3" y="102.8" class="st6" width="28" height="19.7"/>
<text transform="matrix(1 0 0 1 212.2584 108.5689)" class="st10 st8 st9">R</text>
<rect x="99" y="137.6" class="st6" width="28" height="19.7"/>
<text transform="matrix(1 0 0 1 98.9605 143.3293)" class="st11 st8 st9">A</text>
<rect x="215.7" y="141.3" class="st6" width="28" height="19.7"/>
<text transform="matrix(1 0 0 1 215.7122 147.0102)" class="st11 st8 st9">B</text>
<text transform="matrix(1 0 0 1 163.2612 124.6669)" class="st12 st13 st9">φ</text>
</svg>
