<?xml version="1.0" encoding="UTF-8"?>
<svg xmlns="http://www.w3.org/2000/svg" xmlns:xlink="http://www.w3.org/1999/xlink" viewBox="0 0 400 400">
  <defs>
    <style>
      .cls-1, .cls-2, .cls-3, .cls-4 {
        fill: none;
      }

      .cls-1, .cls-2, .cls-4 {
        stroke: #000;
        stroke-miterlimit: 10;
      }

      .cls-5 {
        fill: url(#radial-gradient);
      }

      .cls-2 {
        stroke-width: 2px;
      }

      .cls-6, .cls-7 {
        font-family: ArialMT, Arial;
        font-size: 14px;
      }

      .cls-7 {
        letter-spacing: -.06em;
      }

      .cls-4 {
        stroke-width: .5px;
      }
    </style>
    <radialGradient id="radial-gradient" cx="166.81" cy="339.17" fx="166.81" fy="339.17" r="200" gradientTransform="translate(-328.6 373.57) rotate(37.43) scale(1.31 -1.34)" gradientUnits="userSpaceOnUse">
      <stop offset="0" stop-color="#fff"/>
      <stop offset="1" stop-color="#000"/>
    </radialGradient>
  </defs>
  <g id="Layer_2" data-name="Layer 2">
    <circle class="cls-5" cx="200" cy="200" r="200"/>
  </g>
  <g id="Layer_3" data-name="Layer 3">
    <path class="cls-2" d="m72.82,95.79c18.35,3.42,39.63,8.82,62.6,17.43,14.75,5.53,35.09,14.22,57.78,27.52,10.39,6.09,22.93,13.51,38.06,25.68,5.89,4.74,21.86,17.99,39.21,38.52,5.89,6.97,10.57,13.15,13.99,17.89"/>
    <path class="cls-2" d="m54.82,246.34c6.22-9.08,13.18-18.18,20.97-27.18,57.77-66.72,132.97-94.72,184.36-107.31"/>
    <line class="cls-1" x1="73.96" y1="188.5" x2="294.58" y2="88.52"/>
    <line class="cls-3" x1="120.59" y1="99.61" x2="305.86" y2="201.42"/>
    <line class="cls-1" x1="72.82" y1="73.36" x2="295.33" y2="195.64"/>
    <text class="cls-7" transform="translate(183.69 125.41)"><tspan x="0" y="0">A</tspan></text>
    <line class="cls-4" x1="294.24" y1="88.3" x2="287.99" y2="88.91"/>
    <line class="cls-4" x1="294.51" y1="88.86" x2="290.69" y2="92.72"/>
    <line class="cls-4" x1="73.94" y1="188.16" x2="76.6" y2="182.66"/>
    <line class="cls-4" x1="74.23" y1="188.83" x2="81.51" y2="188.91"/>
    <line class="cls-4" x1="295.04" y1="195.34" x2="291.89" y2="191.16"/>
    <line class="cls-4" x1="294.54" y1="195.87" x2="289.81" y2="195.58"/>
    <line class="cls-4" x1="72.77" y1="73.81" x2="76.02" y2="79.43"/>
    <line class="cls-4" x1="73.02" y1="73.02" x2="80.07" y2="73.19"/>
    <text class="cls-6" transform="translate(65.6 110.9)"><tspan x="0" y="0">C1</tspan></text>
    <text class="cls-6" transform="translate(266.88 229.23)"><tspan x="0" y="0">C</tspan></text>
    <text class="cls-6" transform="translate(256.56 127.83)"><tspan x="0" y="0">B1</tspan></text>
    <text class="cls-6" transform="translate(61.78 254.24)"><tspan x="0" y="0">B</tspan></text>
    <text class="cls-6" transform="translate(71.77 68.97)"><tspan x="0" y="0">N1</tspan></text>
    <text class="cls-6" transform="translate(288.45 190.04)"><tspan x="0" y="0">N</tspan></text>
    <text class="cls-6" transform="translate(58.68 184.43)"><tspan x="0" y="0">M</tspan></text>
    <text class="cls-6" transform="translate(280.22 84.47)"><tspan x="0" y="0">M1</tspan></text>
  </g>
</svg>