<?xml version="1.0" encoding="UTF-8" standalone="no"?>
<!DOCTYPE svg PUBLIC "-//W3C//DTD SVG 1.1//EN" "http://www.w3.org/Graphics/SVG/1.1/DTD/svg11.dtd">
<svg width="100%" height="100%" viewBox="0 0 430 97" version="1.1" xmlns="http://www.w3.org/2000/svg" xmlns:xlink="http://www.w3.org/1999/xlink" xml:space="preserve" xmlns:serif="http://www.serif.com/" style="fill-rule:evenodd;clip-rule:evenodd;stroke-linejoin:round;stroke-miterlimit:2;">
    <g transform="matrix(0.46567,0,0,0.46567,-102.867,-130.178)">
        <path d="M325,279.6L325,324.8C357.5,324.8 383.9,351.2 383.9,383.7C383.9,416.2 357.5,442.6 325,442.6L325,487.8C382.5,487.8 429.1,441.2 429.1,383.7C429.1,326.2 382.5,279.6 325,279.6" style="fill:rgb(70,20,115);fill-rule:nonzero;"/>
        <path d="M651.2,283.3L651.2,327.5L705.9,327.5L705.9,484.3L751.8,484.3L751.8,327.5L806.6,327.5L806.6,283.3L651.2,283.3Z" style="fill:rgb(70,20,115);fill-rule:nonzero;"/>
        <path d="M580.9,484.3L630.3,484.3L587.5,410.5C609.6,399.3 624.6,376.9 624.6,352.2C624.6,314 593.9,283.3 555.7,283.3L470.5,283.3L470.5,484.4L516.5,484.4L516.5,418.3L543,418.3L580.9,484.3ZM516.5,326.3L555.7,326.3C568.3,326.3 578.7,337.5 578.7,352.2C578.7,366.9 568.4,378.1 555.7,378.1L516.5,378.1L516.5,326.3Z" style="fill:rgb(70,20,115);fill-rule:nonzero;"/>
        <path d="M266.1,383.7C266.1,351.2 292.5,324.8 325,324.8L325,279.6C267.5,279.6 220.9,326.2 220.9,383.7C220.9,441.2 267.5,487.8 325,487.8L325,442.6C292.5,442.6 266.1,416.2 266.1,383.7" style="fill:rgb(75,225,190);fill-rule:nonzero;"/>
        <rect x="856.3" y="283.5" width="7.3" height="44.1" style="fill:rgb(75,225,190);"/>
        <path d="M918.6,308.1L918.6,327.6L911.8,327.6L911.8,308.5C911.8,304.1 909.4,301.6 905.7,301.6C901.7,301.6 898.8,304.2 898.8,309.9L898.8,327.6L892,327.6L892,308.5C892,304.1 889.8,301.6 886.1,301.6C882.3,301.6 879.1,304.2 879.1,309.9L879.1,327.6L872.3,327.6L872.3,296.1L879.1,296.1L879.1,299.9C881.1,296.8 884.2,295.3 888.1,295.3C892.2,295.3 895.2,297.1 897.1,300.3C899.2,297 902.5,295.3 906.7,295.3C913.8,295.3 918.6,300.2 918.6,308.1" style="fill:rgb(75,225,190);fill-rule:nonzero;"/>
        <path d="M960.1,311.9C960.1,321.3 953,328.5 944.4,328.5C939.5,328.5 935.8,326.5 933.4,323.2L933.4,340.3L926.6,340.3L926.6,296.2L933.4,296.2L933.4,300.7C935.8,297.4 939.5,295.3 944.4,295.3C953,295.3 960.1,302.6 960.1,311.9M953.3,311.9C953.3,306 949,301.8 943.3,301.8C937.6,301.8 933.3,306 933.3,311.9C933.3,317.8 937.6,322 943.3,322C949,322 953.3,317.8 953.3,311.9" style="fill:rgb(75,225,190);fill-rule:nonzero;"/>
        <path d="M998.3,296.1L998.3,327.6L991.5,327.6L991.5,323.1C989.1,326.4 985.4,328.5 980.5,328.5C971.9,328.5 964.8,321.3 964.8,311.9C964.8,302.5 971.9,295.3 980.5,295.3C985.4,295.3 989.1,297.3 991.5,300.6L991.5,296.1L998.3,296.1ZM991.5,311.9C991.5,306 987.2,301.8 981.5,301.8C975.8,301.8 971.5,306 971.5,311.9C971.5,317.8 975.8,322 981.5,322C987.2,322 991.5,317.8 991.5,311.9" style="fill:rgb(75,225,190);fill-rule:nonzero;"/>
        <path d="M1004.8,311.9C1004.8,302.5 1011.9,295.3 1021.4,295.3C1027.6,295.3 1032.9,298.5 1035.5,303.4L1029.6,306.8C1028.2,303.8 1025.1,301.9 1021.3,301.9C1015.8,301.9 1011.5,306.1 1011.5,311.8C1011.5,317.5 1015.7,321.7 1021.3,321.7C1025.1,321.7 1028.2,319.7 1029.7,316.8L1035.6,320.1C1033,325.1 1027.6,328.3 1021.4,328.3C1011.9,328.5 1004.8,321.2 1004.8,311.9" style="fill:rgb(75,225,190);fill-rule:nonzero;"/>
        <path d="M1051.8,302.7L1051.8,317.8C1051.8,321.8 1054.4,321.8 1059.6,321.5L1059.6,327.6C1049.1,328.9 1045,326 1045,317.8L1045,302.7L1039.2,302.7L1039.2,296.1L1045,296.1L1045,289.3L1051.8,287.3L1051.8,296.1L1059.6,296.1L1059.6,302.7L1051.8,302.7Z" style="fill:rgb(75,225,190);fill-rule:nonzero;"/>
        <path d="M883.1,477.4L883.1,484.4L856.3,484.4L856.3,440.2L882.7,440.2L882.7,447.2L863.5,447.2L863.5,458.7L881.2,458.7L881.2,465.5L863.5,465.5L863.5,477.4L883.1,477.4Z" style="fill:rgb(75,225,190);fill-rule:nonzero;"/>
        <path d="M921.1,440.2L921.1,484.3L914.3,484.3L914.3,479.8C911.9,483.1 908.2,485.2 903.3,485.2C894.7,485.2 887.6,478 887.6,468.6C887.6,459.2 894.7,452 903.3,452C908.2,452 911.9,454 914.3,457.3L914.3,440.2L921.1,440.2ZM914.3,468.6C914.3,462.7 910,458.5 904.3,458.5C898.6,458.5 894.3,462.7 894.3,468.6C894.3,474.5 898.6,478.7 904.3,478.7C910,478.7 914.3,474.5 914.3,468.6" style="fill:rgb(75,225,190);fill-rule:nonzero;"/>
        <path d="M957.7,452.8L957.7,484.3L950.9,484.3L950.9,480.3C948.8,483.6 945.4,485.2 941.1,485.2C934,485.2 929,480.4 929,472.2L929,452.8L935.8,452.8L935.8,471.5C935.8,476.3 938.6,478.8 942.9,478.8C947.4,478.8 950.9,476.2 950.9,469.7L950.9,452.8L957.7,452.8Z" style="fill:rgb(75,225,190);fill-rule:nonzero;"/>
        <path d="M963.4,468.6C963.4,459.2 970.5,452 980,452C986.2,452 991.5,455.2 994.1,460.1L988.2,463.5C986.8,460.5 983.7,458.6 979.9,458.6C974.4,458.6 970.1,462.8 970.1,468.5C970.1,474.2 974.3,478.4 979.9,478.4C983.7,478.4 986.8,476.4 988.3,473.5L994.2,476.8C991.6,481.8 986.2,485 980,485C970.5,485.2 963.4,477.9 963.4,468.6" style="fill:rgb(75,225,190);fill-rule:nonzero;"/>
        <path d="M1031.7,452.8L1031.7,484.3L1024.9,484.3L1024.9,479.8C1022.5,483.1 1018.8,485.2 1013.9,485.2C1005.3,485.2 998.2,478 998.2,468.6C998.2,459.2 1005.3,452 1013.9,452C1018.8,452 1022.5,454 1024.9,457.3L1024.9,452.8L1031.7,452.8ZM1024.9,468.6C1024.9,462.7 1020.6,458.5 1014.9,458.5C1009.2,458.5 1004.9,462.7 1004.9,468.6C1004.9,474.5 1009.2,478.7 1014.9,478.7C1020.6,478.7 1024.9,474.5 1024.9,468.6" style="fill:rgb(75,225,190);fill-rule:nonzero;"/>
        <path d="M1049.3,459.4L1049.3,474.5C1049.3,478.5 1051.9,478.5 1057.1,478.2L1057.1,484.3C1046.6,485.6 1042.5,482.7 1042.5,474.5L1042.5,459.4L1036.7,459.4L1036.7,452.8L1042.5,452.8L1042.5,446L1049.3,444L1049.3,452.8L1057.1,452.8L1057.1,459.4L1049.3,459.4Z" style="fill:rgb(75,225,190);fill-rule:nonzero;"/>
        <path d="M1062,443.8C1062,441.4 1064,439.4 1066.4,439.4C1068.8,439.4 1070.8,441.4 1070.8,443.8C1070.8,446.1 1068.8,448.2 1066.4,448.2C1064,448.1 1062,446.1 1062,443.8M1063,452.8L1069.8,452.8L1069.8,484.3L1063,484.3L1063,452.8Z" style="fill:rgb(75,225,190);fill-rule:nonzero;"/>
        <path d="M1075.9,468.6C1075.9,459.2 1083.3,452 1092.5,452C1101.8,452 1109.1,459.2 1109.1,468.6C1109.1,477.9 1101.7,485.2 1092.5,485.2C1083.4,485.2 1075.9,477.9 1075.9,468.6M1102.4,468.6C1102.4,462.9 1098.1,458.6 1092.6,458.6C1087.1,458.6 1082.8,462.8 1082.8,468.6C1082.8,474.3 1087.1,478.6 1092.6,478.6C1098.1,478.6 1102.4,474.3 1102.4,468.6" style="fill:rgb(75,225,190);fill-rule:nonzero;"/>
        <path d="M1144.3,465L1144.3,484.4L1137.5,484.4L1137.5,465.7C1137.5,460.9 1134.7,458.4 1130.4,458.4C1125.9,458.4 1122.4,461 1122.4,467.5L1122.4,484.4L1115.6,484.4L1115.6,452.9L1122.4,452.9L1122.4,456.9C1124.5,453.6 1127.9,452 1132.2,452C1139.3,452 1144.3,456.8 1144.3,465" style="fill:rgb(75,225,190);fill-rule:nonzero;"/>
        <path d="M885,368.6L872.5,368.6L872.5,405.8L865.3,405.8L865.3,368.6L852.8,368.6L852.8,361.6L885,361.6L885,368.6Z" style="fill:rgb(75,225,190);fill-rule:nonzero;"/>
        <path d="M918.5,386.4L918.5,405.8L911.7,405.8L911.7,387.1C911.7,382.3 908.9,379.8 904.6,379.8C900.1,379.8 896.6,382.4 896.6,388.9L896.6,405.8L889.8,405.8L889.8,361.7L896.6,361.7L896.6,378.3C898.7,375 902.1,373.4 906.4,373.4C913.4,373.4 918.5,378.2 918.5,386.4" style="fill:rgb(75,225,190);fill-rule:nonzero;"/>
        <path d="M942.8,373.7L942.8,381.1C938.3,380.8 933.1,382.9 933.1,389.9L933.1,405.8L926.3,405.8L926.3,374.3L933.1,374.3L933.1,379.6C935,375.3 938.9,373.7 942.8,373.7" style="fill:rgb(75,225,190);fill-rule:nonzero;"/>
        <path d="M945.1,390C945.1,380.6 952.5,373.4 961.7,373.4C971,373.4 978.3,380.6 978.3,390C978.3,399.3 970.9,406.6 961.7,406.6C952.5,406.6 945.1,399.3 945.1,390M971.6,390C971.6,384.3 967.3,380 961.8,380C956.3,380 952,384.2 952,390C952,395.7 956.3,400 961.8,400C967.3,400 971.6,395.7 971.6,390" style="fill:rgb(75,225,190);fill-rule:nonzero;"/>
        <path d="M1012.9,374.2L1012.9,405.7L1006.1,405.7L1006.1,401.7C1004,405 1000.6,406.6 996.3,406.6C989.2,406.6 984.2,401.8 984.2,393.6L984.2,374.2L991,374.2L991,392.9C991,397.7 993.8,400.2 998.1,400.2C1002.6,400.2 1006.1,397.6 1006.1,391.1L1006.1,374.2L1012.9,374.2Z" style="fill:rgb(75,225,190);fill-rule:nonzero;"/>
        <path d="M1052.9,374.2L1052.9,404.3C1052.9,414.5 1045,419.2 1036.7,419.2C1029.8,419.2 1024.4,416.6 1021.8,411.6L1027.7,408.2C1029.1,410.9 1031.4,413.1 1036.9,413.1C1042.8,413.1 1046.3,409.9 1046.3,404.4L1046.3,400.6C1043.9,404 1040.2,406.1 1035.3,406.1C1026.4,406.1 1019.4,398.8 1019.4,389.8C1019.4,380.8 1026.4,373.5 1035.3,373.5C1040.2,373.5 1043.9,375.6 1046.3,379L1046.3,374.3L1052.9,374.3L1052.9,374.2ZM1046.2,389.7C1046.2,384 1041.9,379.8 1036.2,379.8C1030.5,379.8 1026.2,384 1026.2,389.7C1026.2,395.4 1030.5,399.6 1036.2,399.6C1041.9,399.6 1046.2,395.4 1046.2,389.7" style="fill:rgb(75,225,190);fill-rule:nonzero;"/>
        <path d="M1089.8,386.4L1089.8,405.8L1083,405.8L1083,387.1C1083,382.3 1080.2,379.8 1075.9,379.8C1071.4,379.8 1067.9,382.4 1067.9,388.9L1067.9,405.8L1061.1,405.8L1061.1,361.7L1067.9,361.7L1067.9,378.3C1070,375 1073.4,373.4 1077.7,373.4C1084.8,373.4 1089.8,378.2 1089.8,386.4" style="fill:rgb(75,225,190);fill-rule:nonzero;"/>
    </g>
</svg>
